ISO-10303-21;
HEADER;
/* Generated by software containing ST-Developer
 * from STEP Tools, Inc. (www.steptools.com) 
 */

FILE_DESCRIPTION(
/* description */ ('Alibre Inc.'),
/* implementation_level */ '2;1');

FILE_NAME(
/* name */ 'export-F4B2A8AB-FB6F-4A14-9B32-184CDA744B17',
/* time_stamp */ '2026-09-15T15:22:50-07:00',
/* author */ (''),
/* organization */ (''),
/* preprocessor_version */ 'ST-DEVELOPER v17',
/* originating_system */ 'Alibre',
/* authorisation */ '');

FILE_SCHEMA (('CONFIG_CONTROL_DESIGN'));
ENDSEC;

DATA;
#10=MECHANICAL_CONTEXT('detailed design',#18,'mechanical');
#11=PRODUCT_RELATED_PRODUCT_CATEGORY('detail','',(#98));
#12=CC_DESIGN_SECURITY_CLASSIFICATION(#14,(#97));
#13=SECURITY_CLASSIFICATION_LEVEL('unclassified');
#14=SECURITY_CLASSIFICATION('name','Security for version',#13);
#15=SHAPE_DEFINITION_REPRESENTATION(#16,#1884);
#16=PRODUCT_DEFINITION_SHAPE('','DefinitionDesc',#96);
#17=APPLICATION_PROTOCOL_DEFINITION('AP definition status',
'config_control_design',1994,#18);
#18=APPLICATION_CONTEXT(
'control the configuration of three dimensional design');
#19=DESIGN_CONTEXT('detailed design',#18,'design');
#20=PERSON_AND_ORGANIZATION_ROLE('creator');
#21=PERSON_AND_ORGANIZATION_ROLE('classification_officer');
#22=PERSON_AND_ORGANIZATION_ROLE('creator');
#23=PERSON_AND_ORGANIZATION_ROLE('design_supplier');
#24=PERSON_AND_ORGANIZATION_ROLE('design_owner');
#25=CC_DESIGN_PERSON_AND_ORGANIZATION_ASSIGNMENT(#57,#20,(#96));
#26=CC_DESIGN_PERSON_AND_ORGANIZATION_ASSIGNMENT(#60,#21,(#14));
#27=CC_DESIGN_PERSON_AND_ORGANIZATION_ASSIGNMENT(#61,#22,(#97));
#28=CC_DESIGN_PERSON_AND_ORGANIZATION_ASSIGNMENT(#62,#23,(#97));
#29=CC_DESIGN_PERSON_AND_ORGANIZATION_ASSIGNMENT(#63,#24,(#98));
#30=DATE_TIME_ROLE('creation_date');
#31=DATE_TIME_ROLE('classification_date');
#32=CC_DESIGN_DATE_AND_TIME_ASSIGNMENT(#86,#30,(#96));
#33=CC_DESIGN_DATE_AND_TIME_ASSIGNMENT(#89,#31,(#14));
#34=CC_DESIGN_APPROVAL(#93,(#96));
#35=CC_DESIGN_APPROVAL(#94,(#97));
#36=CC_DESIGN_APPROVAL(#95,(#14));
#37=APPROVAL_PERSON_ORGANIZATION(#56,#93,#64);
#38=APPROVAL_PERSON_ORGANIZATION(#58,#94,#65);
#39=APPROVAL_PERSON_ORGANIZATION(#59,#95,#66);
#40=ORGANIZATION('DEFINITION_APPROVEDBY_ORG_ID',
'DEFINITION_APPROVEDBY_ORG_NAME','DEFINITION_APPROVEDBY_ORG_DESCR');
#41=ORGANIZATION('DEF_CREATOR_ORG_ID','DEF_CREATOR_ORG_NAME',
'DEF_CREATOR_ORG_DESCR');
#42=ORGANIZATION('APPROVEDBY_ORG_ID','APPROVEDBY_ORG_NAME',
'APPROVEDBY_ORG_DESCR');
#43=ORGANIZATION('SECURITY_APPROVEDBY_ORG_ID',
'SECURITY_APPROVEDBY_ORG_NAME','SECURITY_APPROVEDBY_ORG_DESCR');
#44=ORGANIZATION('CLASSOFFICER_ORG_ID','CLASSOFFICER_ORG_NAME',
'CLASSOFFICER_ORG_DESCR');
#45=ORGANIZATION('CREATOR_ORG_ID','CREATOR_ORG_NAME',
'CREATOR_ORG_DESCR');
#46=ORGANIZATION('SUPPLIER_ORG_ID','SUPPLIER_ORG_NAME',
'SUPPLIER_ORG_DESCR');
#47=ORGANIZATION('OWNER_ORG_ID','OWNER_ORG_NAME','OWNER_ORG_DESCR');
#48=PERSON('DEFINITION_approverID','DEFINITION_APPROVEDBY_LASTNAME',
'DEFINITION_APPROVEDBY_FIRSTNAME',$,$,$);
#49=PERSON('DEF_createrID','DEF_CREATOR_LASTNAME',
'DEF_CREATOR_FIRSTNAME',$,$,$);
#50=PERSON('approverID','APPROVEDBY_LASTNAME','APPROVEDBY_FIRSTNAME',$,
$,$);
#51=PERSON('SECURITY_approverID','SECURITY_LASTNAME',
'SECURITY_APPROVEDBY_FIRSTNAME',$,$,$);
#52=PERSON('classifierID','CLASSOFFICER_LASTNAME',
'CLASSOFFICER_FIRSTNAME',$,$,$);
#53=PERSON('createrID','CREATOR_LASTNAME','CREATOR_FIRSTNAME',$,$,$);
#54=PERSON('supplierID','SUPPLIER_LASTNAME','SUPPLIER_FIRSTNAME',$,$,$);
#55=PERSON('ownerID','OWNER_LASTNAME','OWNER_FIRSTNAME',$,$,$);
#56=PERSON_AND_ORGANIZATION(#48,#40);
#57=PERSON_AND_ORGANIZATION(#49,#41);
#58=PERSON_AND_ORGANIZATION(#50,#42);
#59=PERSON_AND_ORGANIZATION(#51,#43);
#60=PERSON_AND_ORGANIZATION(#52,#44);
#61=PERSON_AND_ORGANIZATION(#53,#45);
#62=PERSON_AND_ORGANIZATION(#54,#46);
#63=PERSON_AND_ORGANIZATION(#55,#47);
#64=APPROVAL_ROLE('definition_approval');
#65=APPROVAL_ROLE('version_approval');
#66=APPROVAL_ROLE('security_approval');
#67=APPROVAL_DATE_TIME(#85,#93);
#68=APPROVAL_DATE_TIME(#87,#94);
#69=APPROVAL_DATE_TIME(#88,#95);
#70=COORDINATED_UNIVERSAL_TIME_OFFSET(7,0,.BEHIND.);
#71=COORDINATED_UNIVERSAL_TIME_OFFSET(7,0,.BEHIND.);
#72=COORDINATED_UNIVERSAL_TIME_OFFSET(7,0,.BEHIND.);
#73=COORDINATED_UNIVERSAL_TIME_OFFSET(7,0,.BEHIND.);
#74=COORDINATED_UNIVERSAL_TIME_OFFSET(7,0,.BEHIND.);
#75=LOCAL_TIME(9,0,8.,#70);
#76=LOCAL_TIME(9,0,8.,#71);
#77=LOCAL_TIME(9,0,8.,#72);
#78=LOCAL_TIME(9,0,8.,#73);
#79=LOCAL_TIME(9,0,8.,#74);
#80=CALENDAR_DATE(2026,15,9);
#81=CALENDAR_DATE(2026,15,9);
#82=CALENDAR_DATE(2026,15,9);
#83=CALENDAR_DATE(2026,15,9);
#84=CALENDAR_DATE(2026,15,9);
#85=DATE_AND_TIME(#80,#75);
#86=DATE_AND_TIME(#81,#76);
#87=DATE_AND_TIME(#82,#77);
#88=DATE_AND_TIME(#83,#78);
#89=DATE_AND_TIME(#84,#79);
#90=APPROVAL_STATUS('not_yet_approved');
#91=APPROVAL_STATUS('not_yet_approved');
#92=APPROVAL_STATUS('not_yet_approved');
#93=APPROVAL(#90,'defintion approval');
#94=APPROVAL(#91,'version approval');
#95=APPROVAL(#92,'security approval');
#96=PRODUCT_DEFINITION('DefinitionID','DefinitionDesc',#97,#19);
#97=PRODUCT_DEFINITION_FORMATION_WITH_SPECIFIED_SOURCE(
'PRODUCT_VERSION_ID','PRODUCT_VERSION_DESCR',#98,.NOT_KNOWN.);
#98=PRODUCT('','Case_Front','',(#10));
#99=(
LENGTH_UNIT()
NAMED_UNIT(*)
SI_UNIT(.CENTI.,.METRE.)
);
#100=(
NAMED_UNIT(*)
PLANE_ANGLE_UNIT()
SI_UNIT($,.RADIAN.)
);
#101=(
NAMED_UNIT(*)
SI_UNIT($,.STERADIAN.)
SOLID_ANGLE_UNIT()
);
#102=UNCERTAINTY_MEASURE_WITH_UNIT(LENGTH_MEASURE(1.E-6),#99,
'DISTANCE_ACCURACY_VALUE',
'Maximum model space distance between geometric entities at asserted c
onnectivities');
#103=(
GEOMETRIC_REPRESENTATION_CONTEXT(3)
GLOBAL_UNCERTAINTY_ASSIGNED_CONTEXT((#102))
GLOBAL_UNIT_ASSIGNED_CONTEXT((#101,#100,#99))
REPRESENTATION_CONTEXT('ID1','3D')
);
#104=TOROIDAL_SURFACE('',#1227,0.8,0.4);
#105=TOROIDAL_SURFACE('',#1241,0.8,0.4);
#106=PLANE('',#1196);
#107=PLANE('',#1197);
#108=PLANE('',#1210);
#109=PLANE('',#1213);
#110=PLANE('',#1219);
#111=PLANE('',#1223);
#112=PLANE('',#1234);
#113=PLANE('',#1237);
#114=PLANE('',#1246);
#115=PLANE('',#1247);
#116=PLANE('',#1250);
#117=PLANE('',#1251);
#118=PLANE('',#1256);
#119=PLANE('',#1260);
#120=PLANE('',#1261);
#121=PLANE('',#1262);
#122=PLANE('',#1263);
#123=PLANE('',#1264);
#124=PLANE('',#1266);
#125=PLANE('',#1267);
#126=PLANE('',#1269);
#127=PLANE('',#1270);
#128=PLANE('',#1271);
#129=PLANE('',#1272);
#130=PLANE('',#1273);
#131=PLANE('',#1282);
#132=PLANE('',#1283);
#133=PLANE('',#1284);
#134=PLANE('',#1285);
#135=PLANE('',#1286);
#136=PLANE('',#1287);
#137=VECTOR('',#1292,1.);
#138=VECTOR('',#1295,1.);
#139=VECTOR('',#1297,1.);
#140=VECTOR('',#1298,1.);
#141=VECTOR('',#1299,1.);
#142=VECTOR('',#1303,1.);
#143=VECTOR('',#1306,1.);
#144=VECTOR('',#1309,1.);
#145=VECTOR('',#1328,1.);
#146=VECTOR('',#1330,1.);
#147=VECTOR('',#1331,1.);
#148=VECTOR('',#1336,1.);
#149=VECTOR('',#1337,1.);
#150=VECTOR('',#1339,1.);
#151=VECTOR('',#1340,1.);
#152=VECTOR('',#1349,1.);
#153=VECTOR('',#1352,1.);
#154=VECTOR('',#1354,1.);
#155=VECTOR('',#1357,1.);
#156=VECTOR('',#1358,1.);
#157=VECTOR('',#1359,1.);
#158=VECTOR('',#1360,1.);
#159=VECTOR('',#1361,1.);
#160=VECTOR('',#1362,1.);
#161=VECTOR('',#1363,1.);
#162=VECTOR('',#1366,1.);
#163=VECTOR('',#1369,1.);
#164=VECTOR('',#1370,1.);
#165=VECTOR('',#1374,1.);
#166=VECTOR('',#1375,1.);
#167=VECTOR('',#1378,1.);
#168=VECTOR('',#1379,1.);
#169=VECTOR('',#1380,1.);
#170=VECTOR('',#1383,1.);
#171=VECTOR('',#1393,1.);
#172=VECTOR('',#1398,1.);
#173=VECTOR('',#1400,1.);
#174=VECTOR('',#1401,1.);
#175=VECTOR('',#1404,1.);
#176=VECTOR('',#1408,1.);
#177=VECTOR('',#1409,1.);
#178=VECTOR('',#1414,1.);
#179=VECTOR('',#1426,1.);
#180=VECTOR('',#1428,1.);
#181=VECTOR('',#1429,1.);
#182=VECTOR('',#1430,1.);
#183=VECTOR('',#1431,1.);
#184=VECTOR('',#1432,1.);
#185=VECTOR('',#1433,1.);
#186=VECTOR('',#1434,1.);
#187=VECTOR('',#1435,1.);
#188=VECTOR('',#1437,1.);
#189=VECTOR('',#1438,1.);
#190=VECTOR('',#1441,1.);
#191=VECTOR('',#1445,1.);
#192=VECTOR('',#1446,1.);
#193=VECTOR('',#1450,1.);
#194=VECTOR('',#1457,1.);
#195=VECTOR('',#1458,1.);
#196=VECTOR('',#1460,1.);
#197=VECTOR('',#1461,1.);
#198=VECTOR('',#1466,1.);
#199=VECTOR('',#1470,1.);
#200=VECTOR('',#1471,1.);
#201=VECTOR('',#1472,1.);
#202=VECTOR('',#1474,1.);
#203=VECTOR('',#1475,1.);
#204=VECTOR('',#1476,1.);
#205=VECTOR('',#1478,1.);
#206=VECTOR('',#1479,1.);
#207=VECTOR('',#1480,1.);
#208=VECTOR('',#1481,1.);
#209=VECTOR('',#1482,1.);
#210=VECTOR('',#1483,1.);
#211=VECTOR('',#1485,1.);
#212=VECTOR('',#1486,1.);
#213=VECTOR('',#1487,1.);
#214=VECTOR('',#1488,1.);
#215=VECTOR('',#1489,1.);
#216=VECTOR('',#1491,1.);
#217=VECTOR('',#1492,1.);
#218=VECTOR('',#1493,1.);
#219=VECTOR('',#1494,1.);
#220=VECTOR('',#1498,1.);
#221=VECTOR('',#1500,1.);
#222=VECTOR('',#1501,1.);
#223=VECTOR('',#1502,1.);
#224=VECTOR('',#1503,1.);
#225=VECTOR('',#1504,1.);
#226=VECTOR('',#1508,1.);
#227=VECTOR('',#1509,1.);
#228=VECTOR('',#1510,1.);
#229=VECTOR('',#1512,1.);
#230=VECTOR('',#1513,1.);
#231=VECTOR('',#1514,1.);
#232=VECTOR('',#1516,1.);
#233=VECTOR('',#1517,1.);
#234=VECTOR('',#1519,1.);
#235=VECTOR('',#1520,1.);
#236=VECTOR('',#1521,1.);
#237=VECTOR('',#1522,1.);
#238=VECTOR('',#1524,1.);
#239=VECTOR('',#1542,1.);
#240=VECTOR('',#1544,1.);
#241=VECTOR('',#1546,1.);
#242=VECTOR('',#1547,1.);
#243=VECTOR('',#1550,1.);
#244=LINE('',#1556,#137);
#245=LINE('',#1560,#138);
#246=LINE('',#1562,#139);
#247=LINE('',#1564,#140);
#248=LINE('',#1566,#141);
#249=LINE('',#1570,#142);
#250=LINE('',#1574,#143);
#251=LINE('',#1578,#144);
#252=LINE('',#1596,#145);
#253=LINE('',#1598,#146);
#254=LINE('',#1600,#147);
#255=LINE('',#1605,#148);
#256=LINE('',#1606,#149);
#257=LINE('',#1608,#150);
#258=LINE('',#1610,#151);
#259=LINE('',#1617,#152);
#260=LINE('',#1621,#153);
#261=LINE('',#1623,#154);
#262=LINE('',#1627,#155);
#263=LINE('',#1629,#156);
#264=LINE('',#1631,#157);
#265=LINE('',#1633,#158);
#266=LINE('',#1635,#159);
#267=LINE('',#1638,#160);
#268=LINE('',#1640,#161);
#269=LINE('',#1644,#162);
#270=LINE('',#1649,#163);
#271=LINE('',#1652,#164);
#272=LINE('',#1656,#165);
#273=LINE('',#1658,#166);
#274=LINE('',#1662,#167);
#275=LINE('',#1664,#168);
#276=LINE('',#1666,#169);
#277=LINE('',#1670,#170);
#278=LINE('',#1678,#171);
#279=LINE('',#1682,#172);
#280=LINE('',#1684,#173);
#281=LINE('',#1686,#174);
#282=LINE('',#1688,#175);
#283=LINE('',#1692,#176);
#284=LINE('',#1694,#177);
#285=LINE('',#1698,#178);
#286=LINE('',#1708,#179);
#287=LINE('',#1710,#180);
#288=LINE('',#1712,#181);
#289=LINE('',#1714,#182);
#290=LINE('',#1716,#183);
#291=LINE('',#1718,#184);
#292=LINE('',#1720,#185);
#293=LINE('',#1722,#186);
#294=LINE('',#1724,#187);
#295=LINE('',#1726,#188);
#296=LINE('',#1728,#189);
#297=LINE('',#1730,#190);
#298=LINE('',#1734,#191);
#299=LINE('',#1736,#192);
#300=LINE('',#1740,#193);
#301=LINE('',#1747,#194);
#302=LINE('',#1748,#195);
#303=LINE('',#1750,#196);
#304=LINE('',#1752,#197);
#305=LINE('',#1756,#198);
#306=LINE('',#1759,#199);
#307=LINE('',#1761,#200);
#308=LINE('',#1763,#201);
#309=LINE('',#1765,#202);
#310=LINE('',#1767,#203);
#311=LINE('',#1769,#204);
#312=LINE('',#1771,#205);
#313=LINE('',#1774,#206);
#314=LINE('',#1776,#207);
#315=LINE('',#1778,#208);
#316=LINE('',#1781,#209);
#317=LINE('',#1783,#210);
#318=LINE('',#1785,#211);
#319=LINE('',#1787,#212);
#320=LINE('',#1789,#213);
#321=LINE('',#1791,#214);
#322=LINE('',#1793,#215);
#323=LINE('',#1795,#216);
#324=LINE('',#1797,#217);
#325=LINE('',#1798,#218);
#326=LINE('',#1800,#219);
#327=LINE('',#1804,#220);
#328=LINE('',#1806,#221);
#329=LINE('',#1809,#222);
#330=LINE('',#1810,#223);
#331=LINE('',#1811,#224);
#332=LINE('',#1813,#225);
#333=LINE('',#1817,#226);
#334=LINE('',#1820,#227);
#335=LINE('',#1821,#228);
#336=LINE('',#1823,#229);
#337=LINE('',#1825,#230);
#338=LINE('',#1827,#231);
#339=LINE('',#1829,#232);
#340=LINE('',#1831,#233);
#341=LINE('',#1833,#234);
#342=LINE('',#1835,#235);
#343=LINE('',#1836,#236);
#344=LINE('',#1838,#237);
#345=LINE('',#1840,#238);
#346=LINE('',#1852,#239);
#347=LINE('',#1854,#240);
#348=LINE('',#1856,#241);
#349=LINE('',#1857,#242);
#350=LINE('',#1860,#243);
#351=VERTEX_POINT('',#1554);
#352=VERTEX_POINT('',#1555);
#353=VERTEX_POINT('',#1557);
#354=VERTEX_POINT('',#1559);
#355=VERTEX_POINT('',#1563);
#356=VERTEX_POINT('',#1565);
#357=VERTEX_POINT('',#1569);
#358=VERTEX_POINT('',#1571);
#359=VERTEX_POINT('',#1573);
#360=VERTEX_POINT('',#1575);
#361=VERTEX_POINT('',#1577);
#362=VERTEX_POINT('',#1579);
#363=VERTEX_POINT('',#1582);
#364=VERTEX_POINT('',#1584);
#365=VERTEX_POINT('',#1586);
#366=VERTEX_POINT('',#1588);
#367=VERTEX_POINT('',#1590);
#368=VERTEX_POINT('',#1592);
#369=VERTEX_POINT('',#1595);
#370=VERTEX_POINT('',#1599);
#371=VERTEX_POINT('',#1603);
#372=VERTEX_POINT('',#1604);
#373=VERTEX_POINT('',#1609);
#374=VERTEX_POINT('',#1615);
#375=VERTEX_POINT('',#1616);
#376=VERTEX_POINT('',#1618);
#377=VERTEX_POINT('',#1620);
#378=VERTEX_POINT('',#1624);
#379=VERTEX_POINT('',#1626);
#380=VERTEX_POINT('',#1628);
#381=VERTEX_POINT('',#1630);
#382=VERTEX_POINT('',#1632);
#383=VERTEX_POINT('',#1634);
#384=VERTEX_POINT('',#1636);
#385=VERTEX_POINT('',#1637);
#386=VERTEX_POINT('',#1639);
#387=VERTEX_POINT('',#1641);
#388=VERTEX_POINT('',#1643);
#389=VERTEX_POINT('',#1645);
#390=VERTEX_POINT('',#1647);
#391=VERTEX_POINT('',#1648);
#392=VERTEX_POINT('',#1650);
#393=VERTEX_POINT('',#1651);
#394=VERTEX_POINT('',#1655);
#395=VERTEX_POINT('',#1657);
#396=VERTEX_POINT('',#1659);
#397=VERTEX_POINT('',#1661);
#398=VERTEX_POINT('',#1663);
#399=VERTEX_POINT('',#1665);
#400=VERTEX_POINT('',#1667);
#401=VERTEX_POINT('',#1669);
#402=VERTEX_POINT('',#1673);
#403=VERTEX_POINT('',#1675);
#404=VERTEX_POINT('',#1681);
#405=VERTEX_POINT('',#1685);
#406=VERTEX_POINT('',#1689);
#407=VERTEX_POINT('',#1693);
#408=VERTEX_POINT('',#1697);
#409=VERTEX_POINT('',#1699);
#410=VERTEX_POINT('',#1703);
#411=VERTEX_POINT('',#1707);
#412=VERTEX_POINT('',#1711);
#413=VERTEX_POINT('',#1713);
#414=VERTEX_POINT('',#1715);
#415=VERTEX_POINT('',#1717);
#416=VERTEX_POINT('',#1719);
#417=VERTEX_POINT('',#1721);
#418=VERTEX_POINT('',#1723);
#419=VERTEX_POINT('',#1727);
#420=VERTEX_POINT('',#1731);
#421=VERTEX_POINT('',#1735);
#422=VERTEX_POINT('',#1739);
#423=VERTEX_POINT('',#1742);
#424=VERTEX_POINT('',#1745);
#425=VERTEX_POINT('',#1746);
#426=VERTEX_POINT('',#1751);
#427=VERTEX_POINT('',#1755);
#428=VERTEX_POINT('',#1760);
#429=VERTEX_POINT('',#1762);
#430=VERTEX_POINT('',#1766);
#431=VERTEX_POINT('',#1768);
#432=VERTEX_POINT('',#1772);
#433=VERTEX_POINT('',#1773);
#434=VERTEX_POINT('',#1775);
#435=VERTEX_POINT('',#1777);
#436=VERTEX_POINT('',#1779);
#437=VERTEX_POINT('',#1780);
#438=VERTEX_POINT('',#1782);
#439=VERTEX_POINT('',#1786);
#440=VERTEX_POINT('',#1788);
#441=VERTEX_POINT('',#1790);
#442=VERTEX_POINT('',#1792);
#443=VERTEX_POINT('',#1796);
#444=VERTEX_POINT('',#1799);
#445=VERTEX_POINT('',#1802);
#446=VERTEX_POINT('',#1807);
#447=VERTEX_POINT('',#1808);
#448=VERTEX_POINT('',#1812);
#449=VERTEX_POINT('',#1815);
#450=VERTEX_POINT('',#1818);
#451=VERTEX_POINT('',#1819);
#452=VERTEX_POINT('',#1824);
#453=VERTEX_POINT('',#1826);
#454=VERTEX_POINT('',#1830);
#455=VERTEX_POINT('',#1834);
#456=VERTEX_POINT('',#1837);
#457=VERTEX_POINT('',#1843);
#458=VERTEX_POINT('',#1849);
#459=CIRCLE('',#1194,0.2);
#460=CIRCLE('',#1195,0.2);
#461=CIRCLE('',#1198,0.18);
#462=CIRCLE('',#1199,0.2);
#463=CIRCLE('',#1200,0.2);
#464=CIRCLE('',#1201,0.2);
#465=CIRCLE('',#1202,0.14);
#466=CIRCLE('',#1203,0.14);
#467=CIRCLE('',#1204,0.14);
#468=CIRCLE('',#1205,0.14);
#469=CIRCLE('',#1206,0.14);
#470=CIRCLE('',#1207,0.14);
#471=CIRCLE('',#1209,0.2);
#472=CIRCLE('',#1212,0.2);
#473=CIRCLE('',#1215,0.2);
#474=CIRCLE('',#1217,0.4);
#475=CIRCLE('',#1218,0.4);
#476=CIRCLE('',#1220,0.4);
#477=CIRCLE('',#1221,0.125);
#478=CIRCLE('',#1222,0.125);
#479=CIRCLE('',#1224,0.18);
#480=CIRCLE('',#1225,0.8);
#481=CIRCLE('',#1226,0.8);
#482=CIRCLE('',#1228,0.399999999999999);
#483=CIRCLE('',#1229,0.4);
#484=CIRCLE('',#1230,0.4);
#485=CIRCLE('',#1233,0.4);
#486=CIRCLE('',#1236,0.4);
#487=CIRCLE('',#1239,0.4);
#488=CIRCLE('',#1240,0.4);
#489=CIRCLE('',#1242,0.399999999999999);
#490=CIRCLE('',#1243,0.4);
#491=CIRCLE('',#1245,0.4);
#492=CIRCLE('',#1249,0.4);
#493=CIRCLE('',#1252,0.14);
#494=CIRCLE('',#1253,0.14);
#495=CIRCLE('',#1255,0.125);
#496=CIRCLE('',#1258,0.125);
#497=CIRCLE('',#1265,0.14);
#498=CIRCLE('',#1268,0.14);
#499=CIRCLE('',#1275,0.14);
#500=CIRCLE('',#1280,0.14);
#501=EDGE_CURVE('',#351,#352,#459,.T.);
#502=EDGE_CURVE('',#352,#353,#244,.T.);
#503=EDGE_CURVE('',#353,#354,#460,.T.);
#504=EDGE_CURVE('',#354,#351,#245,.T.);
#505=EDGE_CURVE('',#355,#354,#246,.T.);
#506=EDGE_CURVE('',#356,#355,#247,.T.);
#507=EDGE_CURVE('',#356,#351,#248,.T.);
#508=EDGE_CURVE('',#357,#357,#461,.T.);
#509=EDGE_CURVE('',#353,#358,#249,.T.);
#510=EDGE_CURVE('',#359,#358,#462,.T.);
#511=EDGE_CURVE('',#359,#360,#250,.T.);
#512=EDGE_CURVE('',#361,#360,#463,.T.);
#513=EDGE_CURVE('',#361,#362,#251,.T.);
#514=EDGE_CURVE('',#355,#362,#464,.T.);
#515=EDGE_CURVE('',#363,#363,#465,.T.);
#516=EDGE_CURVE('',#364,#364,#466,.T.);
#517=EDGE_CURVE('',#365,#365,#467,.T.);
#518=EDGE_CURVE('',#366,#366,#468,.T.);
#519=EDGE_CURVE('',#367,#367,#469,.T.);
#520=EDGE_CURVE('',#368,#368,#470,.T.);
#521=EDGE_CURVE('',#369,#356,#471,.T.);
#522=EDGE_CURVE('',#362,#369,#252,.T.);
#523=EDGE_CURVE('',#370,#361,#253,.T.);
#524=EDGE_CURVE('',#370,#369,#254,.T.);
#525=EDGE_CURVE('',#371,#372,#472,.T.);
#526=EDGE_CURVE('',#372,#359,#255,.T.);
#527=EDGE_CURVE('',#358,#371,#256,.T.);
#528=EDGE_CURVE('',#372,#373,#257,.T.);
#529=EDGE_CURVE('',#360,#373,#258,.T.);
#530=EDGE_CURVE('',#373,#370,#473,.T.);
#531=EDGE_CURVE('',#374,#375,#474,.T.);
#532=EDGE_CURVE('',#374,#376,#259,.T.);
#533=EDGE_CURVE('',#377,#376,#475,.T.);
#534=EDGE_CURVE('',#377,#375,#260,.T.);
#535=EDGE_CURVE('',#378,#376,#261,.T.);
#536=EDGE_CURVE('',#378,#379,#476,.T.);
#537=EDGE_CURVE('',#380,#379,#262,.T.);
#538=EDGE_CURVE('',#381,#380,#263,.T.);
#539=EDGE_CURVE('',#382,#381,#264,.T.);
#540=EDGE_CURVE('',#382,#383,#265,.T.);
#541=EDGE_CURVE('',#383,#384,#266,.T.);
#542=EDGE_CURVE('',#385,#384,#263,.T.);
#543=EDGE_CURVE('',#386,#385,#267,.F.);
#544=EDGE_CURVE('',#386,#387,#268,.T.);
#545=EDGE_CURVE('',#388,#387,#477,.F.);
#546=EDGE_CURVE('',#388,#389,#269,.T.);
#547=EDGE_CURVE('',#390,#389,#478,.F.);
#548=EDGE_CURVE('',#390,#391,#268,.T.);
#549=EDGE_CURVE('',#392,#391,#270,.F.);
#550=EDGE_CURVE('',#393,#392,#263,.T.);
#551=EDGE_CURVE('',#393,#377,#271,.T.);
#552=EDGE_CURVE('',#394,#394,#479,.T.);
#553=EDGE_CURVE('',#374,#395,#272,.T.);
#554=EDGE_CURVE('',#396,#395,#273,.T.);
#555=EDGE_CURVE('',#397,#396,#480,.T.);
#556=EDGE_CURVE('',#398,#397,#274,.T.);
#557=EDGE_CURVE('',#398,#399,#275,.T.);
#558=EDGE_CURVE('',#400,#399,#276,.T.);
#559=EDGE_CURVE('',#401,#400,#481,.T.);
#560=EDGE_CURVE('',#378,#401,#277,.T.);
#561=EDGE_CURVE('',#402,#401,#482,.T.);
#562=EDGE_CURVE('',#400,#403,#483,.T.);
#563=EDGE_CURVE('',#403,#402,#484,.T.);
#564=EDGE_CURVE('',#402,#379,#278,.T.);
#565=EDGE_CURVE('',#404,#399,#485,.T.);
#566=EDGE_CURVE('',#404,#403,#279,.T.);
#567=EDGE_CURVE('',#405,#402,#280,.T.);
#568=EDGE_CURVE('',#380,#405,#281,.T.);
#569=EDGE_CURVE('',#403,#406,#282,.T.);
#570=EDGE_CURVE('',#406,#405,#486,.T.);
#571=EDGE_CURVE('',#407,#404,#283,.T.);
#572=EDGE_CURVE('',#406,#407,#284,.T.);
#573=EDGE_CURVE('',#408,#395,#487,.T.);
#574=EDGE_CURVE('',#408,#409,#285,.T.);
#575=EDGE_CURVE('',#409,#396,#488,.T.);
#576=EDGE_CURVE('',#410,#397,#489,.T.);
#577=EDGE_CURVE('',#409,#410,#490,.T.);
#578=EDGE_CURVE('',#398,#411,#491,.T.);
#579=EDGE_CURVE('',#410,#411,#286,.T.);
#580=EDGE_CURVE('',#412,#411,#287,.T.);
#581=EDGE_CURVE('',#413,#412,#288,.T.);
#582=EDGE_CURVE('',#414,#413,#289,.T.);
#583=EDGE_CURVE('',#415,#414,#290,.T.);
#584=EDGE_CURVE('',#416,#415,#291,.T.);
#585=EDGE_CURVE('',#417,#416,#292,.T.);
#586=EDGE_CURVE('',#417,#418,#293,.T.);
#587=EDGE_CURVE('',#382,#418,#294,.T.);
#588=EDGE_CURVE('',#407,#381,#288,.T.);
#589=EDGE_CURVE('',#419,#410,#295,.T.);
#590=EDGE_CURVE('',#412,#419,#296,.T.);
#591=EDGE_CURVE('',#409,#420,#297,.T.);
#592=EDGE_CURVE('',#420,#419,#492,.T.);
#593=EDGE_CURVE('',#421,#408,#298,.T.);
#594=EDGE_CURVE('',#420,#421,#299,.T.);
#595=EDGE_CURVE('',#422,#422,#493,.T.);
#596=EDGE_CURVE('',#421,#413,#300,.T.);
#597=EDGE_CURVE('',#423,#423,#494,.T.);
#598=EDGE_CURVE('',#424,#425,#495,.F.);
#599=EDGE_CURVE('',#425,#388,#301,.T.);
#600=EDGE_CURVE('',#424,#387,#302,.T.);
#601=EDGE_CURVE('',#426,#425,#303,.T.);
#602=EDGE_CURVE('',#389,#426,#304,.T.);
#603=EDGE_CURVE('',#426,#427,#496,.F.);
#604=EDGE_CURVE('',#390,#427,#305,.T.);
#605=EDGE_CURVE('',#428,#415,#306,.T.);
#606=EDGE_CURVE('',#429,#428,#307,.T.);
#607=EDGE_CURVE('',#416,#429,#308,.T.);
#608=EDGE_CURVE('',#418,#430,#309,.T.);
#609=EDGE_CURVE('',#431,#417,#310,.T.);
#610=EDGE_CURVE('',#431,#430,#311,.T.);
#611=EDGE_CURVE('',#432,#375,#312,.T.);
#612=EDGE_CURVE('',#433,#432,#300,.T.);
#613=EDGE_CURVE('',#434,#433,#313,.F.);
#614=EDGE_CURVE('',#434,#427,#314,.T.);
#615=EDGE_CURVE('',#424,#435,#314,.T.);
#616=EDGE_CURVE('',#436,#435,#315,.F.);
#617=EDGE_CURVE('',#437,#436,#300,.T.);
#618=EDGE_CURVE('',#438,#437,#316,.T.);
#619=EDGE_CURVE('',#438,#414,#317,.T.);
#620=EDGE_CURVE('',#439,#386,#318,.T.);
#621=EDGE_CURVE('',#440,#439,#319,.T.);
#622=EDGE_CURVE('',#441,#440,#320,.T.);
#623=EDGE_CURVE('',#442,#441,#321,.T.);
#624=EDGE_CURVE('',#435,#442,#322,.T.);
#625=EDGE_CURVE('',#442,#443,#323,.T.);
#626=EDGE_CURVE('',#443,#436,#324,.T.);
#627=EDGE_CURVE('',#443,#444,#325,.T.);
#628=EDGE_CURVE('',#444,#437,#326,.T.);
#629=EDGE_CURVE('',#445,#445,#497,.T.);
#630=EDGE_CURVE('',#444,#441,#327,.T.);
#631=EDGE_CURVE('',#446,#447,#328,.T.);
#632=EDGE_CURVE('',#447,#434,#329,.T.);
#633=EDGE_CURVE('',#433,#446,#330,.T.);
#634=EDGE_CURVE('',#432,#448,#331,.T.);
#635=EDGE_CURVE('',#448,#446,#332,.T.);
#636=EDGE_CURVE('',#449,#449,#498,.T.);
#637=EDGE_CURVE('',#450,#451,#333,.T.);
#638=EDGE_CURVE('',#451,#392,#334,.T.);
#639=EDGE_CURVE('',#391,#450,#335,.T.);
#640=EDGE_CURVE('',#450,#452,#336,.T.);
#641=EDGE_CURVE('',#453,#452,#337,.T.);
#642=EDGE_CURVE('',#451,#453,#338,.T.);
#643=EDGE_CURVE('',#454,#439,#339,.T.);
#644=EDGE_CURVE('',#385,#454,#340,.T.);
#645=EDGE_CURVE('',#455,#454,#341,.T.);
#646=EDGE_CURVE('',#455,#440,#342,.T.);
#647=EDGE_CURVE('',#456,#447,#343,.T.);
#648=EDGE_CURVE('',#452,#456,#344,.T.);
#649=EDGE_CURVE('',#384,#455,#326,.T.);
#650=EDGE_CURVE('',#438,#383,#345,.T.);
#651=EDGE_CURVE('',#457,#457,#499,.T.);
#652=EDGE_CURVE('',#458,#458,#500,.T.);
#653=EDGE_CURVE('',#448,#456,#346,.T.);
#654=EDGE_CURVE('',#453,#393,#347,.T.);
#655=EDGE_CURVE('',#430,#428,#348,.T.);
#656=EDGE_CURVE('',#429,#431,#349,.T.);
#657=EDGE_CURVE('',#352,#371,#350,.T.);
#658=ORIENTED_EDGE('',*,*,#501,.T.);
#659=ORIENTED_EDGE('',*,*,#502,.T.);
#660=ORIENTED_EDGE('',*,*,#503,.T.);
#661=ORIENTED_EDGE('',*,*,#504,.T.);
#662=ORIENTED_EDGE('',*,*,#504,.F.);
#663=ORIENTED_EDGE('',*,*,#505,.F.);
#664=ORIENTED_EDGE('',*,*,#506,.F.);
#665=ORIENTED_EDGE('',*,*,#507,.T.);
#666=ORIENTED_EDGE('',*,*,#508,.T.);
#667=ORIENTED_EDGE('',*,*,#503,.F.);
#668=ORIENTED_EDGE('',*,*,#509,.T.);
#669=ORIENTED_EDGE('',*,*,#510,.F.);
#670=ORIENTED_EDGE('',*,*,#511,.T.);
#671=ORIENTED_EDGE('',*,*,#512,.F.);
#672=ORIENTED_EDGE('',*,*,#513,.T.);
#673=ORIENTED_EDGE('',*,*,#514,.F.);
#674=ORIENTED_EDGE('',*,*,#505,.T.);
#675=ORIENTED_EDGE('',*,*,#515,.T.);
#676=ORIENTED_EDGE('',*,*,#516,.T.);
#677=ORIENTED_EDGE('',*,*,#517,.T.);
#678=ORIENTED_EDGE('',*,*,#518,.T.);
#679=ORIENTED_EDGE('',*,*,#519,.T.);
#680=ORIENTED_EDGE('',*,*,#520,.T.);
#681=ORIENTED_EDGE('',*,*,#521,.T.);
#682=ORIENTED_EDGE('',*,*,#506,.T.);
#683=ORIENTED_EDGE('',*,*,#514,.T.);
#684=ORIENTED_EDGE('',*,*,#522,.T.);
#685=ORIENTED_EDGE('',*,*,#522,.F.);
#686=ORIENTED_EDGE('',*,*,#513,.F.);
#687=ORIENTED_EDGE('',*,*,#523,.F.);
#688=ORIENTED_EDGE('',*,*,#524,.T.);
#689=ORIENTED_EDGE('',*,*,#525,.T.);
#690=ORIENTED_EDGE('',*,*,#526,.T.);
#691=ORIENTED_EDGE('',*,*,#510,.T.);
#692=ORIENTED_EDGE('',*,*,#527,.T.);
#693=ORIENTED_EDGE('',*,*,#526,.F.);
#694=ORIENTED_EDGE('',*,*,#528,.T.);
#695=ORIENTED_EDGE('',*,*,#529,.F.);
#696=ORIENTED_EDGE('',*,*,#511,.F.);
#697=ORIENTED_EDGE('',*,*,#530,.T.);
#698=ORIENTED_EDGE('',*,*,#523,.T.);
#699=ORIENTED_EDGE('',*,*,#512,.T.);
#700=ORIENTED_EDGE('',*,*,#529,.T.);
#701=ORIENTED_EDGE('',*,*,#531,.F.);
#702=ORIENTED_EDGE('',*,*,#532,.T.);
#703=ORIENTED_EDGE('',*,*,#533,.F.);
#704=ORIENTED_EDGE('',*,*,#534,.T.);
#705=ORIENTED_EDGE('',*,*,#533,.T.);
#706=ORIENTED_EDGE('',*,*,#535,.F.);
#707=ORIENTED_EDGE('',*,*,#536,.T.);
#708=ORIENTED_EDGE('',*,*,#537,.F.);
#709=ORIENTED_EDGE('',*,*,#538,.F.);
#710=ORIENTED_EDGE('',*,*,#539,.F.);
#711=ORIENTED_EDGE('',*,*,#540,.T.);
#712=ORIENTED_EDGE('',*,*,#541,.T.);
#713=ORIENTED_EDGE('',*,*,#542,.F.);
#714=ORIENTED_EDGE('',*,*,#543,.F.);
#715=ORIENTED_EDGE('',*,*,#544,.T.);
#716=ORIENTED_EDGE('',*,*,#545,.F.);
#717=ORIENTED_EDGE('',*,*,#546,.T.);
#718=ORIENTED_EDGE('',*,*,#547,.F.);
#719=ORIENTED_EDGE('',*,*,#548,.T.);
#720=ORIENTED_EDGE('',*,*,#549,.F.);
#721=ORIENTED_EDGE('',*,*,#550,.F.);
#722=ORIENTED_EDGE('',*,*,#551,.T.);
#723=ORIENTED_EDGE('',*,*,#552,.T.);
#724=ORIENTED_EDGE('',*,*,#532,.F.);
#725=ORIENTED_EDGE('',*,*,#553,.T.);
#726=ORIENTED_EDGE('',*,*,#554,.F.);
#727=ORIENTED_EDGE('',*,*,#555,.F.);
#728=ORIENTED_EDGE('',*,*,#556,.F.);
#729=ORIENTED_EDGE('',*,*,#557,.T.);
#730=ORIENTED_EDGE('',*,*,#558,.F.);
#731=ORIENTED_EDGE('',*,*,#559,.F.);
#732=ORIENTED_EDGE('',*,*,#560,.F.);
#733=ORIENTED_EDGE('',*,*,#535,.T.);
#734=ORIENTED_EDGE('',*,*,#561,.T.);
#735=ORIENTED_EDGE('',*,*,#559,.T.);
#736=ORIENTED_EDGE('',*,*,#562,.T.);
#737=ORIENTED_EDGE('',*,*,#563,.T.);
#738=ORIENTED_EDGE('',*,*,#536,.F.);
#739=ORIENTED_EDGE('',*,*,#560,.T.);
#740=ORIENTED_EDGE('',*,*,#561,.F.);
#741=ORIENTED_EDGE('',*,*,#564,.T.);
#742=ORIENTED_EDGE('',*,*,#565,.F.);
#743=ORIENTED_EDGE('',*,*,#566,.T.);
#744=ORIENTED_EDGE('',*,*,#562,.F.);
#745=ORIENTED_EDGE('',*,*,#558,.T.);
#746=ORIENTED_EDGE('',*,*,#564,.F.);
#747=ORIENTED_EDGE('',*,*,#567,.F.);
#748=ORIENTED_EDGE('',*,*,#568,.F.);
#749=ORIENTED_EDGE('',*,*,#537,.T.);
#750=ORIENTED_EDGE('',*,*,#563,.F.);
#751=ORIENTED_EDGE('',*,*,#569,.T.);
#752=ORIENTED_EDGE('',*,*,#570,.T.);
#753=ORIENTED_EDGE('',*,*,#567,.T.);
#754=ORIENTED_EDGE('',*,*,#566,.F.);
#755=ORIENTED_EDGE('',*,*,#571,.F.);
#756=ORIENTED_EDGE('',*,*,#572,.F.);
#757=ORIENTED_EDGE('',*,*,#569,.F.);
#758=ORIENTED_EDGE('',*,*,#573,.F.);
#759=ORIENTED_EDGE('',*,*,#574,.T.);
#760=ORIENTED_EDGE('',*,*,#575,.T.);
#761=ORIENTED_EDGE('',*,*,#554,.T.);
#762=ORIENTED_EDGE('',*,*,#576,.T.);
#763=ORIENTED_EDGE('',*,*,#555,.T.);
#764=ORIENTED_EDGE('',*,*,#575,.F.);
#765=ORIENTED_EDGE('',*,*,#577,.T.);
#766=ORIENTED_EDGE('',*,*,#578,.F.);
#767=ORIENTED_EDGE('',*,*,#556,.T.);
#768=ORIENTED_EDGE('',*,*,#576,.F.);
#769=ORIENTED_EDGE('',*,*,#579,.T.);
#770=ORIENTED_EDGE('',*,*,#565,.T.);
#771=ORIENTED_EDGE('',*,*,#557,.F.);
#772=ORIENTED_EDGE('',*,*,#578,.T.);
#773=ORIENTED_EDGE('',*,*,#580,.F.);
#774=ORIENTED_EDGE('',*,*,#581,.F.);
#775=ORIENTED_EDGE('',*,*,#582,.F.);
#776=ORIENTED_EDGE('',*,*,#583,.F.);
#777=ORIENTED_EDGE('',*,*,#584,.F.);
#778=ORIENTED_EDGE('',*,*,#585,.F.);
#779=ORIENTED_EDGE('',*,*,#586,.T.);
#780=ORIENTED_EDGE('',*,*,#587,.F.);
#781=ORIENTED_EDGE('',*,*,#539,.T.);
#782=ORIENTED_EDGE('',*,*,#588,.F.);
#783=ORIENTED_EDGE('',*,*,#571,.T.);
#784=ORIENTED_EDGE('',*,*,#579,.F.);
#785=ORIENTED_EDGE('',*,*,#589,.F.);
#786=ORIENTED_EDGE('',*,*,#590,.F.);
#787=ORIENTED_EDGE('',*,*,#580,.T.);
#788=ORIENTED_EDGE('',*,*,#577,.F.);
#789=ORIENTED_EDGE('',*,*,#591,.T.);
#790=ORIENTED_EDGE('',*,*,#592,.T.);
#791=ORIENTED_EDGE('',*,*,#589,.T.);
#792=ORIENTED_EDGE('',*,*,#574,.F.);
#793=ORIENTED_EDGE('',*,*,#593,.F.);
#794=ORIENTED_EDGE('',*,*,#594,.F.);
#795=ORIENTED_EDGE('',*,*,#591,.F.);
#796=ORIENTED_EDGE('',*,*,#570,.F.);
#797=ORIENTED_EDGE('',*,*,#572,.T.);
#798=ORIENTED_EDGE('',*,*,#588,.T.);
#799=ORIENTED_EDGE('',*,*,#538,.T.);
#800=ORIENTED_EDGE('',*,*,#568,.T.);
#801=ORIENTED_EDGE('',*,*,#595,.T.);
#802=ORIENTED_EDGE('',*,*,#592,.F.);
#803=ORIENTED_EDGE('',*,*,#594,.T.);
#804=ORIENTED_EDGE('',*,*,#596,.T.);
#805=ORIENTED_EDGE('',*,*,#581,.T.);
#806=ORIENTED_EDGE('',*,*,#590,.T.);
#807=ORIENTED_EDGE('',*,*,#597,.T.);
#808=ORIENTED_EDGE('',*,*,#598,.T.);
#809=ORIENTED_EDGE('',*,*,#599,.T.);
#810=ORIENTED_EDGE('',*,*,#545,.T.);
#811=ORIENTED_EDGE('',*,*,#600,.F.);
#812=ORIENTED_EDGE('',*,*,#599,.F.);
#813=ORIENTED_EDGE('',*,*,#601,.F.);
#814=ORIENTED_EDGE('',*,*,#602,.F.);
#815=ORIENTED_EDGE('',*,*,#546,.F.);
#816=ORIENTED_EDGE('',*,*,#547,.T.);
#817=ORIENTED_EDGE('',*,*,#602,.T.);
#818=ORIENTED_EDGE('',*,*,#603,.T.);
#819=ORIENTED_EDGE('',*,*,#604,.F.);
#820=ORIENTED_EDGE('',*,*,#552,.F.);
#821=ORIENTED_EDGE('',*,*,#508,.F.);
#822=ORIENTED_EDGE('',*,*,#605,.F.);
#823=ORIENTED_EDGE('',*,*,#606,.F.);
#824=ORIENTED_EDGE('',*,*,#607,.F.);
#825=ORIENTED_EDGE('',*,*,#584,.T.);
#826=ORIENTED_EDGE('',*,*,#608,.F.);
#827=ORIENTED_EDGE('',*,*,#586,.F.);
#828=ORIENTED_EDGE('',*,*,#609,.F.);
#829=ORIENTED_EDGE('',*,*,#610,.T.);
#830=ORIENTED_EDGE('',*,*,#531,.T.);
#831=ORIENTED_EDGE('',*,*,#611,.F.);
#832=ORIENTED_EDGE('',*,*,#612,.F.);
#833=ORIENTED_EDGE('',*,*,#613,.F.);
#834=ORIENTED_EDGE('',*,*,#614,.T.);
#835=ORIENTED_EDGE('',*,*,#603,.F.);
#836=ORIENTED_EDGE('',*,*,#601,.T.);
#837=ORIENTED_EDGE('',*,*,#598,.F.);
#838=ORIENTED_EDGE('',*,*,#615,.T.);
#839=ORIENTED_EDGE('',*,*,#616,.F.);
#840=ORIENTED_EDGE('',*,*,#617,.F.);
#841=ORIENTED_EDGE('',*,*,#618,.F.);
#842=ORIENTED_EDGE('',*,*,#619,.T.);
#843=ORIENTED_EDGE('',*,*,#582,.T.);
#844=ORIENTED_EDGE('',*,*,#596,.F.);
#845=ORIENTED_EDGE('',*,*,#593,.T.);
#846=ORIENTED_EDGE('',*,*,#573,.T.);
#847=ORIENTED_EDGE('',*,*,#553,.F.);
#848=ORIENTED_EDGE('',*,*,#600,.T.);
#849=ORIENTED_EDGE('',*,*,#544,.F.);
#850=ORIENTED_EDGE('',*,*,#620,.F.);
#851=ORIENTED_EDGE('',*,*,#621,.F.);
#852=ORIENTED_EDGE('',*,*,#622,.F.);
#853=ORIENTED_EDGE('',*,*,#623,.F.);
#854=ORIENTED_EDGE('',*,*,#624,.F.);
#855=ORIENTED_EDGE('',*,*,#615,.F.);
#856=ORIENTED_EDGE('',*,*,#625,.T.);
#857=ORIENTED_EDGE('',*,*,#626,.T.);
#858=ORIENTED_EDGE('',*,*,#616,.T.);
#859=ORIENTED_EDGE('',*,*,#624,.T.);
#860=ORIENTED_EDGE('',*,*,#626,.F.);
#861=ORIENTED_EDGE('',*,*,#627,.T.);
#862=ORIENTED_EDGE('',*,*,#628,.T.);
#863=ORIENTED_EDGE('',*,*,#617,.T.);
#864=ORIENTED_EDGE('',*,*,#629,.T.);
#865=ORIENTED_EDGE('',*,*,#625,.F.);
#866=ORIENTED_EDGE('',*,*,#623,.T.);
#867=ORIENTED_EDGE('',*,*,#630,.F.);
#868=ORIENTED_EDGE('',*,*,#627,.F.);
#869=ORIENTED_EDGE('',*,*,#631,.T.);
#870=ORIENTED_EDGE('',*,*,#632,.T.);
#871=ORIENTED_EDGE('',*,*,#613,.T.);
#872=ORIENTED_EDGE('',*,*,#633,.T.);
#873=ORIENTED_EDGE('',*,*,#633,.F.);
#874=ORIENTED_EDGE('',*,*,#612,.T.);
#875=ORIENTED_EDGE('',*,*,#634,.T.);
#876=ORIENTED_EDGE('',*,*,#635,.T.);
#877=ORIENTED_EDGE('',*,*,#636,.T.);
#878=ORIENTED_EDGE('',*,*,#637,.T.);
#879=ORIENTED_EDGE('',*,*,#638,.T.);
#880=ORIENTED_EDGE('',*,*,#549,.T.);
#881=ORIENTED_EDGE('',*,*,#639,.T.);
#882=ORIENTED_EDGE('',*,*,#637,.F.);
#883=ORIENTED_EDGE('',*,*,#640,.T.);
#884=ORIENTED_EDGE('',*,*,#641,.F.);
#885=ORIENTED_EDGE('',*,*,#642,.F.);
#886=ORIENTED_EDGE('',*,*,#643,.T.);
#887=ORIENTED_EDGE('',*,*,#620,.T.);
#888=ORIENTED_EDGE('',*,*,#543,.T.);
#889=ORIENTED_EDGE('',*,*,#644,.T.);
#890=ORIENTED_EDGE('',*,*,#643,.F.);
#891=ORIENTED_EDGE('',*,*,#645,.F.);
#892=ORIENTED_EDGE('',*,*,#646,.T.);
#893=ORIENTED_EDGE('',*,*,#621,.T.);
#894=ORIENTED_EDGE('',*,*,#604,.T.);
#895=ORIENTED_EDGE('',*,*,#614,.F.);
#896=ORIENTED_EDGE('',*,*,#632,.F.);
#897=ORIENTED_EDGE('',*,*,#647,.F.);
#898=ORIENTED_EDGE('',*,*,#648,.F.);
#899=ORIENTED_EDGE('',*,*,#640,.F.);
#900=ORIENTED_EDGE('',*,*,#639,.F.);
#901=ORIENTED_EDGE('',*,*,#548,.F.);
#902=ORIENTED_EDGE('',*,*,#622,.T.);
#903=ORIENTED_EDGE('',*,*,#646,.F.);
#904=ORIENTED_EDGE('',*,*,#649,.F.);
#905=ORIENTED_EDGE('',*,*,#541,.F.);
#906=ORIENTED_EDGE('',*,*,#650,.F.);
#907=ORIENTED_EDGE('',*,*,#618,.T.);
#908=ORIENTED_EDGE('',*,*,#628,.F.);
#909=ORIENTED_EDGE('',*,*,#630,.T.);
#910=ORIENTED_EDGE('',*,*,#520,.F.);
#911=ORIENTED_EDGE('',*,*,#651,.F.);
#912=ORIENTED_EDGE('',*,*,#519,.F.);
#913=ORIENTED_EDGE('',*,*,#597,.F.);
#914=ORIENTED_EDGE('',*,*,#518,.F.);
#915=ORIENTED_EDGE('',*,*,#629,.F.);
#916=ORIENTED_EDGE('',*,*,#517,.F.);
#917=ORIENTED_EDGE('',*,*,#636,.F.);
#918=ORIENTED_EDGE('',*,*,#516,.F.);
#919=ORIENTED_EDGE('',*,*,#652,.F.);
#920=ORIENTED_EDGE('',*,*,#515,.F.);
#921=ORIENTED_EDGE('',*,*,#595,.F.);
#922=ORIENTED_EDGE('',*,*,#631,.F.);
#923=ORIENTED_EDGE('',*,*,#635,.F.);
#924=ORIENTED_EDGE('',*,*,#653,.T.);
#925=ORIENTED_EDGE('',*,*,#647,.T.);
#926=ORIENTED_EDGE('',*,*,#534,.F.);
#927=ORIENTED_EDGE('',*,*,#551,.F.);
#928=ORIENTED_EDGE('',*,*,#654,.F.);
#929=ORIENTED_EDGE('',*,*,#641,.T.);
#930=ORIENTED_EDGE('',*,*,#648,.T.);
#931=ORIENTED_EDGE('',*,*,#653,.F.);
#932=ORIENTED_EDGE('',*,*,#634,.F.);
#933=ORIENTED_EDGE('',*,*,#611,.T.);
#934=ORIENTED_EDGE('',*,*,#644,.F.);
#935=ORIENTED_EDGE('',*,*,#542,.T.);
#936=ORIENTED_EDGE('',*,*,#649,.T.);
#937=ORIENTED_EDGE('',*,*,#645,.T.);
#938=ORIENTED_EDGE('',*,*,#652,.T.);
#939=ORIENTED_EDGE('',*,*,#638,.F.);
#940=ORIENTED_EDGE('',*,*,#642,.T.);
#941=ORIENTED_EDGE('',*,*,#654,.T.);
#942=ORIENTED_EDGE('',*,*,#550,.T.);
#943=ORIENTED_EDGE('',*,*,#651,.T.);
#944=ORIENTED_EDGE('',*,*,#655,.F.);
#945=ORIENTED_EDGE('',*,*,#610,.F.);
#946=ORIENTED_EDGE('',*,*,#656,.F.);
#947=ORIENTED_EDGE('',*,*,#606,.T.);
#948=ORIENTED_EDGE('',*,*,#650,.T.);
#949=ORIENTED_EDGE('',*,*,#540,.F.);
#950=ORIENTED_EDGE('',*,*,#587,.T.);
#951=ORIENTED_EDGE('',*,*,#608,.T.);
#952=ORIENTED_EDGE('',*,*,#655,.T.);
#953=ORIENTED_EDGE('',*,*,#605,.T.);
#954=ORIENTED_EDGE('',*,*,#583,.T.);
#955=ORIENTED_EDGE('',*,*,#619,.F.);
#956=ORIENTED_EDGE('',*,*,#502,.F.);
#957=ORIENTED_EDGE('',*,*,#657,.T.);
#958=ORIENTED_EDGE('',*,*,#527,.F.);
#959=ORIENTED_EDGE('',*,*,#509,.F.);
#960=ORIENTED_EDGE('',*,*,#501,.F.);
#961=ORIENTED_EDGE('',*,*,#507,.F.);
#962=ORIENTED_EDGE('',*,*,#521,.F.);
#963=ORIENTED_EDGE('',*,*,#524,.F.);
#964=ORIENTED_EDGE('',*,*,#530,.F.);
#965=ORIENTED_EDGE('',*,*,#528,.F.);
#966=ORIENTED_EDGE('',*,*,#525,.F.);
#967=ORIENTED_EDGE('',*,*,#657,.F.);
#968=ORIENTED_EDGE('',*,*,#656,.T.);
#969=ORIENTED_EDGE('',*,*,#609,.T.);
#970=ORIENTED_EDGE('',*,*,#585,.T.);
#971=ORIENTED_EDGE('',*,*,#607,.T.);
#972=EDGE_LOOP('',(#658,#659,#660,#661));
#973=EDGE_LOOP('',(#662,#663,#664,#665));
#974=EDGE_LOOP('',(#666));
#975=EDGE_LOOP('',(#667,#668,#669,#670,#671,#672,#673,#674));
#976=EDGE_LOOP('',(#675));
#977=EDGE_LOOP('',(#676));
#978=EDGE_LOOP('',(#677));
#979=EDGE_LOOP('',(#678));
#980=EDGE_LOOP('',(#679));
#981=EDGE_LOOP('',(#680));
#982=EDGE_LOOP('',(#681,#682,#683,#684));
#983=EDGE_LOOP('',(#685,#686,#687,#688));
#984=EDGE_LOOP('',(#689,#690,#691,#692));
#985=EDGE_LOOP('',(#693,#694,#695,#696));
#986=EDGE_LOOP('',(#697,#698,#699,#700));
#987=EDGE_LOOP('',(#701,#702,#703,#704));
#988=EDGE_LOOP('',(#705,#706,#707,#708,#709,#710,#711,#712,#713,#714,#715,
#716,#717,#718,#719,#720,#721,#722));
#989=EDGE_LOOP('',(#723));
#990=EDGE_LOOP('',(#724,#725,#726,#727,#728,#729,#730,#731,#732,#733));
#991=EDGE_LOOP('',(#734,#735,#736,#737));
#992=EDGE_LOOP('',(#738,#739,#740,#741));
#993=EDGE_LOOP('',(#742,#743,#744,#745));
#994=EDGE_LOOP('',(#746,#747,#748,#749));
#995=EDGE_LOOP('',(#750,#751,#752,#753));
#996=EDGE_LOOP('',(#754,#755,#756,#757));
#997=EDGE_LOOP('',(#758,#759,#760,#761));
#998=EDGE_LOOP('',(#762,#763,#764,#765));
#999=EDGE_LOOP('',(#766,#767,#768,#769));
#1000=EDGE_LOOP('',(#770,#771,#772,#773,#774,#775,#776,#777,#778,#779,#780,
#781,#782,#783));
#1001=EDGE_LOOP('',(#784,#785,#786,#787));
#1002=EDGE_LOOP('',(#788,#789,#790,#791));
#1003=EDGE_LOOP('',(#792,#793,#794,#795));
#1004=EDGE_LOOP('',(#796,#797,#798,#799,#800));
#1005=EDGE_LOOP('',(#801));
#1006=EDGE_LOOP('',(#802,#803,#804,#805,#806));
#1007=EDGE_LOOP('',(#807));
#1008=EDGE_LOOP('',(#808,#809,#810,#811));
#1009=EDGE_LOOP('',(#812,#813,#814,#815));
#1010=EDGE_LOOP('',(#816,#817,#818,#819));
#1011=EDGE_LOOP('',(#820));
#1012=EDGE_LOOP('',(#821));
#1013=EDGE_LOOP('',(#822,#823,#824,#825));
#1014=EDGE_LOOP('',(#826,#827,#828,#829));
#1015=EDGE_LOOP('',(#830,#831,#832,#833,#834,#835,#836,#837,#838,#839,#840,
#841,#842,#843,#844,#845,#846,#847));
#1016=EDGE_LOOP('',(#848,#849,#850,#851,#852,#853,#854,#855));
#1017=EDGE_LOOP('',(#856,#857,#858,#859));
#1018=EDGE_LOOP('',(#860,#861,#862,#863));
#1019=EDGE_LOOP('',(#864));
#1020=EDGE_LOOP('',(#865,#866,#867,#868));
#1021=EDGE_LOOP('',(#869,#870,#871,#872));
#1022=EDGE_LOOP('',(#873,#874,#875,#876));
#1023=EDGE_LOOP('',(#877));
#1024=EDGE_LOOP('',(#878,#879,#880,#881));
#1025=EDGE_LOOP('',(#882,#883,#884,#885));
#1026=EDGE_LOOP('',(#886,#887,#888,#889));
#1027=EDGE_LOOP('',(#890,#891,#892,#893));
#1028=EDGE_LOOP('',(#894,#895,#896,#897,#898,#899,#900,#901));
#1029=EDGE_LOOP('',(#902,#903,#904,#905,#906,#907,#908,#909));
#1030=EDGE_LOOP('',(#910));
#1031=EDGE_LOOP('',(#911));
#1032=EDGE_LOOP('',(#912));
#1033=EDGE_LOOP('',(#913));
#1034=EDGE_LOOP('',(#914));
#1035=EDGE_LOOP('',(#915));
#1036=EDGE_LOOP('',(#916));
#1037=EDGE_LOOP('',(#917));
#1038=EDGE_LOOP('',(#918));
#1039=EDGE_LOOP('',(#919));
#1040=EDGE_LOOP('',(#920));
#1041=EDGE_LOOP('',(#921));
#1042=EDGE_LOOP('',(#922,#923,#924,#925));
#1043=EDGE_LOOP('',(#926,#927,#928,#929,#930,#931,#932,#933));
#1044=EDGE_LOOP('',(#934,#935,#936,#937));
#1045=EDGE_LOOP('',(#938));
#1046=EDGE_LOOP('',(#939,#940,#941,#942));
#1047=EDGE_LOOP('',(#943));
#1048=EDGE_LOOP('',(#944,#945,#946,#947));
#1049=EDGE_LOOP('',(#948,#949,#950,#951,#952,#953,#954,#955));
#1050=EDGE_LOOP('',(#956,#957,#958,#959));
#1051=EDGE_LOOP('',(#960,#961,#962,#963,#964,#965,#966,#967));
#1052=EDGE_LOOP('',(#968,#969,#970,#971));
#1053=FACE_BOUND('',#972,.T.);
#1054=FACE_BOUND('',#973,.T.);
#1055=FACE_BOUND('',#974,.T.);
#1056=FACE_BOUND('',#975,.T.);
#1057=FACE_BOUND('',#976,.T.);
#1058=FACE_BOUND('',#977,.T.);
#1059=FACE_BOUND('',#978,.T.);
#1060=FACE_BOUND('',#979,.T.);
#1061=FACE_BOUND('',#980,.T.);
#1062=FACE_BOUND('',#981,.T.);
#1063=FACE_BOUND('',#982,.T.);
#1064=FACE_BOUND('',#983,.T.);
#1065=FACE_BOUND('',#984,.T.);
#1066=FACE_BOUND('',#985,.T.);
#1067=FACE_BOUND('',#986,.T.);
#1068=FACE_BOUND('',#987,.T.);
#1069=FACE_BOUND('',#988,.T.);
#1070=FACE_BOUND('',#989,.T.);
#1071=FACE_BOUND('',#990,.T.);
#1072=FACE_BOUND('',#991,.T.);
#1073=FACE_BOUND('',#992,.T.);
#1074=FACE_BOUND('',#993,.T.);
#1075=FACE_BOUND('',#994,.T.);
#1076=FACE_BOUND('',#995,.T.);
#1077=FACE_BOUND('',#996,.T.);
#1078=FACE_BOUND('',#997,.T.);
#1079=FACE_BOUND('',#998,.T.);
#1080=FACE_BOUND('',#999,.T.);
#1081=FACE_BOUND('',#1000,.T.);
#1082=FACE_BOUND('',#1001,.T.);
#1083=FACE_BOUND('',#1002,.T.);
#1084=FACE_BOUND('',#1003,.T.);
#1085=FACE_BOUND('',#1004,.T.);
#1086=FACE_BOUND('',#1005,.T.);
#1087=FACE_BOUND('',#1006,.T.);
#1088=FACE_BOUND('',#1007,.T.);
#1089=FACE_BOUND('',#1008,.T.);
#1090=FACE_BOUND('',#1009,.T.);
#1091=FACE_BOUND('',#1010,.T.);
#1092=FACE_BOUND('',#1011,.T.);
#1093=FACE_BOUND('',#1012,.T.);
#1094=FACE_BOUND('',#1013,.T.);
#1095=FACE_BOUND('',#1014,.T.);
#1096=FACE_BOUND('',#1015,.T.);
#1097=FACE_BOUND('',#1016,.T.);
#1098=FACE_BOUND('',#1017,.T.);
#1099=FACE_BOUND('',#1018,.T.);
#1100=FACE_BOUND('',#1019,.T.);
#1101=FACE_BOUND('',#1020,.T.);
#1102=FACE_BOUND('',#1021,.T.);
#1103=FACE_BOUND('',#1022,.T.);
#1104=FACE_BOUND('',#1023,.T.);
#1105=FACE_BOUND('',#1024,.T.);
#1106=FACE_BOUND('',#1025,.T.);
#1107=FACE_BOUND('',#1026,.T.);
#1108=FACE_BOUND('',#1027,.T.);
#1109=FACE_BOUND('',#1028,.T.);
#1110=FACE_BOUND('',#1029,.T.);
#1111=FACE_BOUND('',#1030,.T.);
#1112=FACE_BOUND('',#1031,.T.);
#1113=FACE_BOUND('',#1032,.T.);
#1114=FACE_BOUND('',#1033,.T.);
#1115=FACE_BOUND('',#1034,.T.);
#1116=FACE_BOUND('',#1035,.T.);
#1117=FACE_BOUND('',#1036,.T.);
#1118=FACE_BOUND('',#1037,.T.);
#1119=FACE_BOUND('',#1038,.T.);
#1120=FACE_BOUND('',#1039,.T.);
#1121=FACE_BOUND('',#1040,.T.);
#1122=FACE_BOUND('',#1041,.T.);
#1123=FACE_BOUND('',#1042,.T.);
#1124=FACE_BOUND('',#1043,.T.);
#1125=FACE_BOUND('',#1044,.T.);
#1126=FACE_BOUND('',#1045,.T.);
#1127=FACE_BOUND('',#1046,.T.);
#1128=FACE_BOUND('',#1047,.T.);
#1129=FACE_BOUND('',#1048,.T.);
#1130=FACE_BOUND('',#1049,.T.);
#1131=FACE_BOUND('',#1050,.T.);
#1132=FACE_BOUND('',#1051,.T.);
#1133=FACE_BOUND('',#1052,.T.);
#1134=ADVANCED_FACE('',(#1053),#1862,.T.);
#1135=ADVANCED_FACE('',(#1054),#106,.T.);
#1136=ADVANCED_FACE('',(#1055,#1056,#1057,#1058,#1059,#1060,#1061,#1062),
#107,.F.);
#1137=ADVANCED_FACE('',(#1063),#1863,.T.);
#1138=ADVANCED_FACE('',(#1064),#108,.T.);
#1139=ADVANCED_FACE('',(#1065),#1864,.T.);
#1140=ADVANCED_FACE('',(#1066),#109,.T.);
#1141=ADVANCED_FACE('',(#1067),#1865,.T.);
#1142=ADVANCED_FACE('',(#1068),#1866,.F.);
#1143=ADVANCED_FACE('',(#1069),#110,.F.);
#1144=ADVANCED_FACE('',(#1070,#1071),#111,.T.);
#1145=ADVANCED_FACE('',(#1072),#104,.F.);
#1146=ADVANCED_FACE('',(#1073),#1867,.F.);
#1147=ADVANCED_FACE('',(#1074),#1868,.F.);
#1148=ADVANCED_FACE('',(#1075),#112,.F.);
#1149=ADVANCED_FACE('',(#1076),#1869,.T.);
#1150=ADVANCED_FACE('',(#1077),#113,.F.);
#1151=ADVANCED_FACE('',(#1078),#1870,.F.);
#1152=ADVANCED_FACE('',(#1079),#105,.F.);
#1153=ADVANCED_FACE('',(#1080),#1871,.F.);
#1154=ADVANCED_FACE('',(#1081),#114,.F.);
#1155=ADVANCED_FACE('',(#1082),#115,.F.);
#1156=ADVANCED_FACE('',(#1083),#1872,.T.);
#1157=ADVANCED_FACE('',(#1084),#116,.F.);
#1158=ADVANCED_FACE('',(#1085,#1086),#117,.T.);
#1159=ADVANCED_FACE('',(#1087,#1088),#117,.T.);
#1160=ADVANCED_FACE('',(#1089),#1873,.T.);
#1161=ADVANCED_FACE('',(#1090),#118,.T.);
#1162=ADVANCED_FACE('',(#1091),#1874,.T.);
#1163=ADVANCED_FACE('',(#1092,#1093),#1875,.F.);
#1164=ADVANCED_FACE('',(#1094),#119,.F.);
#1165=ADVANCED_FACE('',(#1095),#120,.F.);
#1166=ADVANCED_FACE('',(#1096),#121,.F.);
#1167=ADVANCED_FACE('',(#1097),#122,.T.);
#1168=ADVANCED_FACE('',(#1098),#123,.T.);
#1169=ADVANCED_FACE('',(#1099,#1100),#117,.T.);
#1170=ADVANCED_FACE('',(#1101),#124,.F.);
#1171=ADVANCED_FACE('',(#1102),#125,.T.);
#1172=ADVANCED_FACE('',(#1103,#1104),#117,.T.);
#1173=ADVANCED_FACE('',(#1105),#126,.T.);
#1174=ADVANCED_FACE('',(#1106),#127,.F.);
#1175=ADVANCED_FACE('',(#1107),#128,.T.);
#1176=ADVANCED_FACE('',(#1108),#129,.F.);
#1177=ADVANCED_FACE('',(#1109),#122,.T.);
#1178=ADVANCED_FACE('',(#1110),#130,.F.);
#1179=ADVANCED_FACE('',(#1111,#1112),#1876,.F.);
#1180=ADVANCED_FACE('',(#1113,#1114),#1877,.F.);
#1181=ADVANCED_FACE('',(#1115,#1116),#1878,.F.);
#1182=ADVANCED_FACE('',(#1117,#1118),#1879,.F.);
#1183=ADVANCED_FACE('',(#1119,#1120),#1880,.F.);
#1184=ADVANCED_FACE('',(#1121,#1122),#1881,.F.);
#1185=ADVANCED_FACE('',(#1123),#131,.F.);
#1186=ADVANCED_FACE('',(#1124),#132,.F.);
#1187=ADVANCED_FACE('',(#1125,#1126),#117,.T.);
#1188=ADVANCED_FACE('',(#1127,#1128),#117,.T.);
#1189=ADVANCED_FACE('',(#1129),#133,.F.);
#1190=ADVANCED_FACE('',(#1130),#134,.T.);
#1191=ADVANCED_FACE('',(#1131),#135,.T.);
#1192=ADVANCED_FACE('',(#1132,#1133),#136,.T.);
#1193=AXIS2_PLACEMENT_3D('',#1552,#1288,#1289);
#1194=AXIS2_PLACEMENT_3D('',#1553,#1290,#1291);
#1195=AXIS2_PLACEMENT_3D('',#1558,#1293,#1294);
#1196=AXIS2_PLACEMENT_3D('',#1561,#1296,$);
#1197=AXIS2_PLACEMENT_3D('',#1567,#1300,$);
#1198=AXIS2_PLACEMENT_3D('',#1568,#1301,#1302);
#1199=AXIS2_PLACEMENT_3D('',#1572,#1304,#1305);
#1200=AXIS2_PLACEMENT_3D('',#1576,#1307,#1308);
#1201=AXIS2_PLACEMENT_3D('',#1580,#1310,#1311);
#1202=AXIS2_PLACEMENT_3D('',#1581,#1312,#1313);
#1203=AXIS2_PLACEMENT_3D('',#1583,#1314,#1315);
#1204=AXIS2_PLACEMENT_3D('',#1585,#1316,#1317);
#1205=AXIS2_PLACEMENT_3D('',#1587,#1318,#1319);
#1206=AXIS2_PLACEMENT_3D('',#1589,#1320,#1321);
#1207=AXIS2_PLACEMENT_3D('',#1591,#1322,#1323);
#1208=AXIS2_PLACEMENT_3D('',#1593,#1324,#1325);
#1209=AXIS2_PLACEMENT_3D('',#1594,#1326,#1327);
#1210=AXIS2_PLACEMENT_3D('',#1597,#1329,$);
#1211=AXIS2_PLACEMENT_3D('',#1601,#1332,#1333);
#1212=AXIS2_PLACEMENT_3D('',#1602,#1334,#1335);
#1213=AXIS2_PLACEMENT_3D('',#1607,#1338,$);
#1214=AXIS2_PLACEMENT_3D('',#1611,#1341,#1342);
#1215=AXIS2_PLACEMENT_3D('',#1612,#1343,#1344);
#1216=AXIS2_PLACEMENT_3D('',#1613,#1345,#1346);
#1217=AXIS2_PLACEMENT_3D('',#1614,#1347,#1348);
#1218=AXIS2_PLACEMENT_3D('',#1619,#1350,#1351);
#1219=AXIS2_PLACEMENT_3D('',#1622,#1353,$);
#1220=AXIS2_PLACEMENT_3D('',#1625,#1355,#1356);
#1221=AXIS2_PLACEMENT_3D('',#1642,#1364,#1365);
#1222=AXIS2_PLACEMENT_3D('',#1646,#1367,#1368);
#1223=AXIS2_PLACEMENT_3D('',#1653,#1371,$);
#1224=AXIS2_PLACEMENT_3D('',#1654,#1372,#1373);
#1225=AXIS2_PLACEMENT_3D('',#1660,#1376,#1377);
#1226=AXIS2_PLACEMENT_3D('',#1668,#1381,#1382);
#1227=AXIS2_PLACEMENT_3D('',#1671,#1384,$);
#1228=AXIS2_PLACEMENT_3D('',#1672,#1385,#1386);
#1229=AXIS2_PLACEMENT_3D('',#1674,#1387,#1388);
#1230=AXIS2_PLACEMENT_3D('',#1676,#1389,#1390);
#1231=AXIS2_PLACEMENT_3D('',#1677,#1391,#1392);
#1232=AXIS2_PLACEMENT_3D('',#1679,#1394,#1395);
#1233=AXIS2_PLACEMENT_3D('',#1680,#1396,#1397);
#1234=AXIS2_PLACEMENT_3D('',#1683,#1399,$);
#1235=AXIS2_PLACEMENT_3D('',#1687,#1402,#1403);
#1236=AXIS2_PLACEMENT_3D('',#1690,#1405,#1406);
#1237=AXIS2_PLACEMENT_3D('',#1691,#1407,$);
#1238=AXIS2_PLACEMENT_3D('',#1695,#1410,#1411);
#1239=AXIS2_PLACEMENT_3D('',#1696,#1412,#1413);
#1240=AXIS2_PLACEMENT_3D('',#1700,#1415,#1416);
#1241=AXIS2_PLACEMENT_3D('',#1701,#1417,$);
#1242=AXIS2_PLACEMENT_3D('',#1702,#1418,#1419);
#1243=AXIS2_PLACEMENT_3D('',#1704,#1420,#1421);
#1244=AXIS2_PLACEMENT_3D('',#1705,#1422,#1423);
#1245=AXIS2_PLACEMENT_3D('',#1706,#1424,#1425);
#1246=AXIS2_PLACEMENT_3D('',#1709,#1427,$);
#1247=AXIS2_PLACEMENT_3D('',#1725,#1436,$);
#1248=AXIS2_PLACEMENT_3D('',#1729,#1439,#1440);
#1249=AXIS2_PLACEMENT_3D('',#1732,#1442,#1443);
#1250=AXIS2_PLACEMENT_3D('',#1733,#1444,$);
#1251=AXIS2_PLACEMENT_3D('',#1737,#1447,$);
#1252=AXIS2_PLACEMENT_3D('',#1738,#1448,#1449);
#1253=AXIS2_PLACEMENT_3D('',#1741,#1451,#1452);
#1254=AXIS2_PLACEMENT_3D('',#1743,#1453,#1454);
#1255=AXIS2_PLACEMENT_3D('',#1744,#1455,#1456);
#1256=AXIS2_PLACEMENT_3D('',#1749,#1459,$);
#1257=AXIS2_PLACEMENT_3D('',#1753,#1462,#1463);
#1258=AXIS2_PLACEMENT_3D('',#1754,#1464,#1465);
#1259=AXIS2_PLACEMENT_3D('',#1757,#1467,#1468);
#1260=AXIS2_PLACEMENT_3D('',#1758,#1469,$);
#1261=AXIS2_PLACEMENT_3D('',#1764,#1473,$);
#1262=AXIS2_PLACEMENT_3D('',#1770,#1477,$);
#1263=AXIS2_PLACEMENT_3D('',#1784,#1484,$);
#1264=AXIS2_PLACEMENT_3D('',#1794,#1490,$);
#1265=AXIS2_PLACEMENT_3D('',#1801,#1495,#1496);
#1266=AXIS2_PLACEMENT_3D('',#1803,#1497,$);
#1267=AXIS2_PLACEMENT_3D('',#1805,#1499,$);
#1268=AXIS2_PLACEMENT_3D('',#1814,#1505,#1506);
#1269=AXIS2_PLACEMENT_3D('',#1816,#1507,$);
#1270=AXIS2_PLACEMENT_3D('',#1822,#1511,$);
#1271=AXIS2_PLACEMENT_3D('',#1828,#1515,$);
#1272=AXIS2_PLACEMENT_3D('',#1832,#1518,$);
#1273=AXIS2_PLACEMENT_3D('',#1839,#1523,$);
#1274=AXIS2_PLACEMENT_3D('',#1841,#1525,#1526);
#1275=AXIS2_PLACEMENT_3D('',#1842,#1527,#1528);
#1276=AXIS2_PLACEMENT_3D('',#1844,#1529,#1530);
#1277=AXIS2_PLACEMENT_3D('',#1845,#1531,#1532);
#1278=AXIS2_PLACEMENT_3D('',#1846,#1533,#1534);
#1279=AXIS2_PLACEMENT_3D('',#1847,#1535,#1536);
#1280=AXIS2_PLACEMENT_3D('',#1848,#1537,#1538);
#1281=AXIS2_PLACEMENT_3D('',#1850,#1539,#1540);
#1282=AXIS2_PLACEMENT_3D('',#1851,#1541,$);
#1283=AXIS2_PLACEMENT_3D('',#1853,#1543,$);
#1284=AXIS2_PLACEMENT_3D('',#1855,#1545,$);
#1285=AXIS2_PLACEMENT_3D('',#1858,#1548,$);
#1286=AXIS2_PLACEMENT_3D('',#1859,#1549,$);
#1287=AXIS2_PLACEMENT_3D('',#1861,#1551,$);
#1288=DIRECTION('',(0.,0.,1.));
#1289=DIRECTION('',(0.141421356237309,-0.14142135623731,0.));
#1290=DIRECTION('',(0.,0.,-1.));
#1291=DIRECTION('',(0.141421356237309,-0.14142135623731,0.));
#1292=DIRECTION('',(0.,0.,-1.));
#1293=DIRECTION('',(0.,0.,1.));
#1294=DIRECTION('',(0.141421356237309,-0.14142135623731,0.));
#1295=DIRECTION('',(0.,0.,1.));
#1296=DIRECTION('',(1.,0.,0.));
#1297=DIRECTION('',(0.,-1.,0.));
#1298=DIRECTION('',(0.,0.,-1.));
#1299=DIRECTION('',(0.,-1.,0.));
#1300=DIRECTION('',(0.,0.,1.));
#1301=DIRECTION('',(0.,0.,1.));
#1302=DIRECTION('',(0.18,0.,0.));
#1303=DIRECTION('',(-1.,0.,0.));
#1304=DIRECTION('',(0.,0.,1.));
#1305=DIRECTION('',(-0.14142135623731,-0.14142135623731,0.));
#1306=DIRECTION('',(-1.22464679914735E-16,1.,0.));
#1307=DIRECTION('',(0.,0.,1.));
#1308=DIRECTION('',(-0.141421356237309,0.14142135623731,0.));
#1309=DIRECTION('',(1.,1.225073682345E-16,0.));
#1310=DIRECTION('',(0.,0.,1.));
#1311=DIRECTION('',(0.14142135623731,0.14142135623731,0.));
#1312=DIRECTION('',(0.,0.,1.));
#1313=DIRECTION('',(0.14,0.,0.));
#1314=DIRECTION('',(0.,0.,1.));
#1315=DIRECTION('',(0.14,0.,0.));
#1316=DIRECTION('',(0.,0.,1.));
#1317=DIRECTION('',(0.14,0.,0.));
#1318=DIRECTION('',(0.,0.,1.));
#1319=DIRECTION('',(0.14,0.,0.));
#1320=DIRECTION('',(0.,0.,1.));
#1321=DIRECTION('',(0.14,0.,0.));
#1322=DIRECTION('',(0.,0.,1.));
#1323=DIRECTION('',(0.14,0.,0.));
#1324=DIRECTION('',(0.,0.,1.));
#1325=DIRECTION('',(0.14142135623731,0.14142135623731,0.));
#1326=DIRECTION('',(0.,0.,-1.));
#1327=DIRECTION('',(0.14142135623731,0.14142135623731,0.));
#1328=DIRECTION('',(0.,0.,1.));
#1329=DIRECTION('',(-1.225073682345E-16,1.,0.));
#1330=DIRECTION('',(0.,0.,-1.));
#1331=DIRECTION('',(1.,1.225073682345E-16,0.));
#1332=DIRECTION('',(0.,0.,1.));
#1333=DIRECTION('',(-0.14142135623731,-0.14142135623731,0.));
#1334=DIRECTION('',(0.,0.,-1.));
#1335=DIRECTION('',(-0.14142135623731,-0.14142135623731,0.));
#1336=DIRECTION('',(0.,0.,-1.));
#1337=DIRECTION('',(0.,0.,1.));
#1338=DIRECTION('',(-1.,-1.22464679914735E-16,0.));
#1339=DIRECTION('',(-1.22464679914735E-16,1.,0.));
#1340=DIRECTION('',(0.,0.,1.));
#1341=DIRECTION('',(0.,0.,1.));
#1342=DIRECTION('',(-0.141421356237309,0.14142135623731,0.));
#1343=DIRECTION('',(0.,0.,-1.));
#1344=DIRECTION('',(-0.141421356237309,0.14142135623731,0.));
#1345=DIRECTION('',(1.,1.11022302462516E-15,-1.84763682482015E-31));
#1346=DIRECTION('',(0.,-0.282842712474619,-0.282842712474619));
#1347=DIRECTION('',(-1.,0.,0.));
#1348=DIRECTION('',(0.,-0.282842712474619,-0.282842712474619));
#1349=DIRECTION('',(-1.,-1.11022302462516E-15,1.84763682482015E-31));
#1350=DIRECTION('',(1.,0.,0.));
#1351=DIRECTION('',(0.,-0.282842712474619,-0.282842712474619));
#1352=DIRECTION('',(1.,1.11022302462516E-15,-1.84763682482015E-31));
#1353=DIRECTION('',(-1.,0.,0.));
#1354=DIRECTION('',(-1.05021096924001E-16,-1.,0.));
#1355=DIRECTION('',(1.,0.,0.));
#1356=DIRECTION('',(-1.88411095042053E-15,0.282842712474619,-0.282842712474619));
#1357=DIRECTION('',(0.,0.,-1.));
#1358=DIRECTION('',(-4.89804275569922E-17,-1.,0.));
#1359=DIRECTION('',(0.,0.,-1.));
#1360=DIRECTION('',(0.,-1.,3.01110384864605E-32));
#1361=DIRECTION('',(0.,0.,-1.));
#1362=DIRECTION('',(0.,0.847998304005088,-0.52999894000318));
#1363=DIRECTION('',(0.,1.,1.03708036837212E-30));
#1364=DIRECTION('',(-1.,0.,0.));
#1365=DIRECTION('',(0.,-0.0883883476483184,0.0883883476483184));
#1366=DIRECTION('',(0.,1.,5.98378068761742E-32));
#1367=DIRECTION('',(-1.,0.,0.));
#1368=DIRECTION('',(0.,0.0883883476483184,0.0883883476483184));
#1369=DIRECTION('',(0.,0.847998304005088,0.52999894000318));
#1370=DIRECTION('',(0.,0.,-1.));
#1371=DIRECTION('',(1.84763682482015E-31,-4.87665094041583E-31,1.));
#1372=DIRECTION('',(-1.84763682482015E-31,4.87665094041583E-31,-1.));
#1373=DIRECTION('',(0.18,0.,0.));
#1374=DIRECTION('',(-2.40048221540574E-16,1.,0.));
#1375=DIRECTION('',(1.,-4.44089209850063E-15,-1.84763682482017E-31));
#1376=DIRECTION('',(1.84763682482015E-31,-4.87665094041583E-31,1.));
#1377=DIRECTION('',(-0.565685424949239,-0.565685424949237,-1.71346913715798E-31));
#1378=DIRECTION('',(0.,-1.,-4.87665094041583E-31));
#1379=DIRECTION('',(-1.,0.,0.));
#1380=DIRECTION('',(-2.7755575615629E-16,1.,4.87665094041583E-31));
#1381=DIRECTION('',(1.84763682482015E-31,-4.87665094041583E-31,1.));
#1382=DIRECTION('',(0.565685424949239,-0.565685424949237,-3.80383158195847E-31));
#1383=DIRECTION('',(1.,6.66133814775095E-15,-1.84763682482012E-31));
#1384=DIRECTION('',(1.84763682482015E-31,-4.87665094041583E-31,1.));
#1385=DIRECTION('',(-1.,-6.80011602582908E-15,-1.51450705779785E-31));
#1386=DIRECTION('',(-2.77555756156289E-15,0.399999999999999,0.));
#1387=DIRECTION('',(0.,1.,1.51450705779785E-31));
#1388=DIRECTION('',(0.,0.,-0.4));
#1389=DIRECTION('',(-1.84763682482015E-31,4.87665094041583E-31,-1.));
#1390=DIRECTION('',(0.28284271247462,-0.282842712474618,0.));
#1391=DIRECTION('',(-1.,-6.66133814775095E-15,1.84763682482012E-31));
#1392=DIRECTION('',(-1.88411095042053E-15,0.282842712474619,-0.282842712474619));
#1393=DIRECTION('',(-1.,-6.66133814775095E-15,1.84763682482012E-31));
#1394=DIRECTION('',(2.7755575615629E-16,-1.,-4.87665094041583E-31));
#1395=DIRECTION('',(-0.282842712474619,0.,-0.282842712474619));
#1396=DIRECTION('',(0.,-1.,0.));
#1397=DIRECTION('',(-0.282842712474619,0.,-0.282842712474619));
#1398=DIRECTION('',(2.7755575615629E-16,-1.,-4.87665094041583E-31));
#1399=DIRECTION('',(-6.66133814775095E-15,1.,0.));
#1400=DIRECTION('',(0.,0.,-1.));
#1401=DIRECTION('',(1.,6.66133814775095E-15,7.4998413335726E-32));
#1402=DIRECTION('',(0.,0.,-1.));
#1403=DIRECTION('',(0.28284271247462,-0.282842712474618,0.));
#1404=DIRECTION('',(0.,0.,1.));
#1405=DIRECTION('',(7.49984133357256E-32,5.98378068761742E-32,-1.));
#1406=DIRECTION('',(0.28284271247462,-0.282842712474618,0.));
#1407=DIRECTION('',(-1.,-2.7755575615629E-16,0.));
#1408=DIRECTION('',(0.,0.,-1.));
#1409=DIRECTION('',(-2.7755575615629E-16,1.,5.98378068761742E-32));
#1410=DIRECTION('',(-1.,4.44089209850063E-15,1.84763682482017E-31));
#1411=DIRECTION('',(1.25607396694702E-15,0.282842712474619,-0.282842712474619));
#1412=DIRECTION('',(-1.,0.,0.));
#1413=DIRECTION('',(1.25607396694702E-15,0.282842712474619,-0.282842712474619));
#1414=DIRECTION('',(-1.,4.44089209850063E-15,1.84763682482017E-31));
#1415=DIRECTION('',(-1.,4.44089209850063E-15,1.84763682482017E-31));
#1416=DIRECTION('',(1.77635683940025E-15,0.4,0.));
#1417=DIRECTION('',(1.84763682482015E-31,-4.87665094041583E-31,1.));
#1418=DIRECTION('',(0.,1.,3.362143882618E-31));
#1419=DIRECTION('',(0.399999999999999,0.,0.));
#1420=DIRECTION('',(-1.84763682482015E-31,4.87665094041583E-31,-1.));
#1421=DIRECTION('',(-0.282842712474619,-0.282842712474619,0.));
#1422=DIRECTION('',(0.,1.,4.87665094041583E-31));
#1423=DIRECTION('',(0.282842712474619,0.,-0.282842712474619));
#1424=DIRECTION('',(0.,-1.,0.));
#1425=DIRECTION('',(0.282842712474619,0.,-0.282842712474619));
#1426=DIRECTION('',(0.,1.,4.87665094041583E-31));
#1427=DIRECTION('',(0.,1.,0.));
#1428=DIRECTION('',(0.,0.,-1.));
#1429=DIRECTION('',(-1.,0.,0.));
#1430=DIRECTION('',(0.,0.,-1.));
#1431=DIRECTION('',(-1.,0.,0.));
#1432=DIRECTION('',(0.,0.,-1.));
#1433=DIRECTION('',(1.,0.,0.));
#1434=DIRECTION('',(0.,0.,-1.));
#1435=DIRECTION('',(-1.,0.,0.));
#1436=DIRECTION('',(1.,0.,0.));
#1437=DIRECTION('',(0.,0.,-1.));
#1438=DIRECTION('',(0.,-1.,-5.98378068761742E-32));
#1439=DIRECTION('',(0.,0.,-1.));
#1440=DIRECTION('',(-0.28284271247462,-0.282842712474618,0.));
#1441=DIRECTION('',(0.,0.,1.));
#1442=DIRECTION('',(7.49984133357256E-32,5.98378068761742E-32,-1.));
#1443=DIRECTION('',(-0.28284271247462,-0.282842712474618,0.));
#1444=DIRECTION('',(4.44089209850063E-15,1.,0.));
#1445=DIRECTION('',(0.,0.,-1.));
#1446=DIRECTION('',(1.,-4.44089209850063E-15,7.49984133357253E-32));
#1447=DIRECTION('',(-7.49984133357256E-32,-5.98378068761742E-32,1.));
#1448=DIRECTION('',(7.49984133357256E-32,5.98378068761742E-32,-1.));
#1449=DIRECTION('',(0.14,0.,0.));
#1450=DIRECTION('',(0.,1.,0.));
#1451=DIRECTION('',(7.49984133357256E-32,5.98378068761742E-32,-1.));
#1452=DIRECTION('',(0.14,0.,0.));
#1453=DIRECTION('',(-1.,-1.37702080573663E-16,-7.49984133357256E-32));
#1454=DIRECTION('',(0.,-0.0883883476483184,0.0883883476483184));
#1455=DIRECTION('',(1.,0.,0.));
#1456=DIRECTION('',(0.,-0.0883883476483184,0.0883883476483184));
#1457=DIRECTION('',(-1.,-1.37702080573663E-16,-7.49984133357256E-32));
#1458=DIRECTION('',(-1.,-1.37702080573663E-16,-3.41181293086405E-31));
#1459=DIRECTION('',(-7.49984133357256E-32,-5.98378068761742E-32,1.));
#1460=DIRECTION('',(0.,-1.,-5.98378068761742E-32));
#1461=DIRECTION('',(1.,1.03276560430247E-16,7.49984133357256E-32));
#1462=DIRECTION('',(1.,1.03276560430247E-16,7.49984133357256E-32));
#1463=DIRECTION('',(0.,0.0883883476483184,0.0883883476483184));
#1464=DIRECTION('',(1.,0.,0.));
#1465=DIRECTION('',(0.,0.0883883476483184,0.0883883476483184));
#1466=DIRECTION('',(1.,1.03276560430247E-16,3.41181293086405E-31));
#1467=DIRECTION('',(0.,0.,1.));
#1468=DIRECTION('',(0.18,0.,0.));
#1469=DIRECTION('',(1.,-1.29661083167901E-16,0.));
#1470=DIRECTION('',(1.29661083167901E-16,1.,0.));
#1471=DIRECTION('',(0.,0.,-1.));
#1472=DIRECTION('',(-1.29661083167901E-16,-1.,0.));
#1473=DIRECTION('',(-1.,-1.21557265469908E-16,0.));
#1474=DIRECTION('',(1.21557265469908E-16,-1.,0.));
#1475=DIRECTION('',(-1.21557265469908E-16,1.,0.));
#1476=DIRECTION('',(0.,0.,-1.));
#1477=DIRECTION('',(1.,0.,0.));
#1478=DIRECTION('',(0.,0.,-1.));
#1479=DIRECTION('',(0.,-0.847998304005088,-0.52999894000318));
#1480=DIRECTION('',(0.,-1.,-1.03708036837212E-30));
#1481=DIRECTION('',(0.,-0.847998304005088,0.52999894000318));
#1482=DIRECTION('',(0.,0.,-1.));
#1483=DIRECTION('',(0.,1.,-3.01110384864373E-32));
#1484=DIRECTION('',(-3.41181293086405E-31,-1.03708036837212E-30,1.));
#1485=DIRECTION('',(-1.,9.99200722162641E-15,-3.41181293086395E-31));
#1486=DIRECTION('',(-5.55111512312585E-16,1.,1.03708036837212E-30));
#1487=DIRECTION('',(-1.,-1.37702080573663E-16,-3.41181293086405E-31));
#1488=DIRECTION('',(0.,-1.,-1.03708036837212E-30));
#1489=DIRECTION('',(-1.,-1.02695629777827E-14,-3.41181293086416E-31));
#1490=DIRECTION('',(-5.44285749252072E-15,0.52999894000318,0.847998304005088));
#1491=DIRECTION('',(0.,-0.847998304005088,0.52999894000318));
#1492=DIRECTION('',(1.,1.02695629777827E-14,7.49984133357262E-32));
#1493=DIRECTION('',(0.,-1.,-5.98378068761742E-32));
#1494=DIRECTION('',(1.,1.37702080573663E-16,0.));
#1495=DIRECTION('',(7.49984133357256E-32,5.98378068761742E-32,-1.));
#1496=DIRECTION('',(0.14,0.,0.));
#1497=DIRECTION('',(1.,0.,0.));
#1498=DIRECTION('',(0.,0.,-1.));
#1499=DIRECTION('',(-2.0594595917646E-15,-0.52999894000318,0.847998304005088));
#1500=DIRECTION('',(0.,-0.847998304005088,-0.52999894000318));
#1501=DIRECTION('',(1.,-3.88578058618805E-15,3.41181293086401E-31));
#1502=DIRECTION('',(-1.,3.88578058618805E-15,-7.49984133357253E-32));
#1503=DIRECTION('',(-1.,-1.11022302462516E-15,-7.49984133357256E-32));
#1504=DIRECTION('',(0.,-1.,-5.98378068761742E-32));
#1505=DIRECTION('',(7.49984133357256E-32,5.98378068761742E-32,-1.));
#1506=DIRECTION('',(0.14,0.,0.));
#1507=DIRECTION('',(3.23629364420152E-15,-0.52999894000318,0.847998304005088));
#1508=DIRECTION('',(-2.35366810487386E-16,0.847998304005088,0.52999894000318));
#1509=DIRECTION('',(-1.,-6.10622663543836E-15,-7.49984133357259E-32));
#1510=DIRECTION('',(1.,6.10622663543836E-15,3.41181293086411E-31));
#1511=DIRECTION('',(-1.,-2.77555756156292E-16,0.));
#1512=DIRECTION('',(-2.77555756156292E-16,1.,1.03708036837212E-30));
#1513=DIRECTION('',(0.,0.,-1.));
#1514=DIRECTION('',(-2.77555756156292E-16,1.,5.98378068761742E-32));
#1515=DIRECTION('',(5.29575323596611E-15,0.52999894000318,0.847998304005088));
#1516=DIRECTION('',(-4.70733620974771E-16,0.847998304005088,-0.52999894000318));
#1517=DIRECTION('',(1.,-9.99200722162641E-15,7.4998413335725E-32));
#1518=DIRECTION('',(-1.,-5.55111512312585E-16,0.));
#1519=DIRECTION('',(-5.55111512312585E-16,1.,5.98378068761742E-32));
#1520=DIRECTION('',(0.,0.,-1.));
#1521=DIRECTION('',(0.,-1.,-1.03708036837212E-30));
#1522=DIRECTION('',(1.,2.74694356608286E-16,0.));
#1523=DIRECTION('',(1.37702080573663E-16,-1.,0.));
#1524=DIRECTION('',(-1.,-1.37702080573663E-16,-1.55657084281695E-31));
#1525=DIRECTION('',(0.,0.,1.));
#1526=DIRECTION('',(0.14,0.,0.));
#1527=DIRECTION('',(7.49984133357256E-32,5.98378068761742E-32,-1.));
#1528=DIRECTION('',(0.14,0.,0.));
#1529=DIRECTION('',(0.,0.,1.));
#1530=DIRECTION('',(0.14,0.,0.));
#1531=DIRECTION('',(0.,0.,1.));
#1532=DIRECTION('',(0.14,0.,0.));
#1533=DIRECTION('',(0.,0.,1.));
#1534=DIRECTION('',(0.14,0.,0.));
#1535=DIRECTION('',(0.,0.,1.));
#1536=DIRECTION('',(0.14,0.,0.));
#1537=DIRECTION('',(7.49984133357256E-32,5.98378068761742E-32,-1.));
#1538=DIRECTION('',(0.14,0.,0.));
#1539=DIRECTION('',(0.,0.,1.));
#1540=DIRECTION('',(0.14,0.,0.));
#1541=DIRECTION('',(1.,0.,0.));
#1542=DIRECTION('',(0.,0.,-1.));
#1543=DIRECTION('',(1.11022302462516E-15,-1.,0.));
#1544=DIRECTION('',(-1.,1.11022302462516E-15,-7.49984133357255E-32));
#1545=DIRECTION('',(-1.11882940466101E-16,-1.,0.));
#1546=DIRECTION('',(1.,0.,0.));
#1547=DIRECTION('',(-1.,0.,0.));
#1548=DIRECTION('',(-1.55657084281695E-31,-9.53516218737897E-32,1.));
#1549=DIRECTION('',(0.,-1.,0.));
#1550=DIRECTION('',(-1.,0.,0.));
#1551=DIRECTION('',(0.,0.,1.));
#1552=CARTESIAN_POINT('',(7.05,0.2,0.));
#1553=CARTESIAN_POINT('',(7.05,0.2,1.985));
#1554=CARTESIAN_POINT('',(7.25,0.2,1.985));
#1555=CARTESIAN_POINT('',(7.05,0.,1.985));
#1556=CARTESIAN_POINT('',(7.05,0.,0.));
#1557=CARTESIAN_POINT('',(7.05,0.,0.));
#1558=CARTESIAN_POINT('',(7.05,0.2,0.));
#1559=CARTESIAN_POINT('',(7.25,0.2,0.));
#1560=CARTESIAN_POINT('',(7.25,0.2,0.));
#1561=CARTESIAN_POINT('',(7.25,3.625,0.));
#1562=CARTESIAN_POINT('',(7.25,7.25,0.));
#1563=CARTESIAN_POINT('',(7.25,7.05,0.));
#1564=CARTESIAN_POINT('',(7.25,7.05,0.));
#1565=CARTESIAN_POINT('',(7.25,7.05,1.985));
#1566=CARTESIAN_POINT('',(7.25,7.25,1.985));
#1567=CARTESIAN_POINT('',(3.625,3.625,0.));
#1568=CARTESIAN_POINT('',(2.6,6.05,0.));
#1569=CARTESIAN_POINT('',(2.42,6.05,0.));
#1570=CARTESIAN_POINT('',(7.25,0.,0.));
#1571=CARTESIAN_POINT('',(0.2,0.,0.));
#1572=CARTESIAN_POINT('',(0.2,0.2,0.));
#1573=CARTESIAN_POINT('',(-2.44929359829471E-17,0.2,0.));
#1574=CARTESIAN_POINT('',(0.,0.,0.));
#1575=CARTESIAN_POINT('',(-8.63375993398884E-16,7.05,0.));
#1576=CARTESIAN_POINT('',(0.199999999999999,7.05,0.));
#1577=CARTESIAN_POINT('',(0.199999999999999,7.25,0.));
#1578=CARTESIAN_POINT('',(-8.87868929381831E-16,7.25,0.));
#1579=CARTESIAN_POINT('',(7.05,7.25,0.));
#1580=CARTESIAN_POINT('',(7.05,7.05,0.));
#1581=CARTESIAN_POINT('',(0.925,6.65,0.));
#1582=CARTESIAN_POINT('',(0.785,6.65,0.));
#1583=CARTESIAN_POINT('',(0.925,0.650000000000001,0.));
#1584=CARTESIAN_POINT('',(0.785,0.650000000000001,0.));
#1585=CARTESIAN_POINT('',(6.325,2.15,0.));
#1586=CARTESIAN_POINT('',(6.185,2.15,0.));
#1587=CARTESIAN_POINT('',(6.325,0.65,0.));
#1588=CARTESIAN_POINT('',(6.185,0.65,0.));
#1589=CARTESIAN_POINT('',(6.325,6.65,0.));
#1590=CARTESIAN_POINT('',(6.185,6.65,0.));
#1591=CARTESIAN_POINT('',(0.925,2.15,0.));
#1592=CARTESIAN_POINT('',(0.785,2.15,0.));
#1593=CARTESIAN_POINT('',(7.05,7.05,0.));
#1594=CARTESIAN_POINT('',(7.05,7.05,1.985));
#1595=CARTESIAN_POINT('',(7.05,7.25,1.985));
#1596=CARTESIAN_POINT('',(7.05,7.25,0.));
#1597=CARTESIAN_POINT('',(3.625,7.25,0.));
#1598=CARTESIAN_POINT('',(0.199999999999999,7.25,0.));
#1599=CARTESIAN_POINT('',(0.199999999999999,7.25,1.985));
#1600=CARTESIAN_POINT('',(-8.87868929381831E-16,7.25,1.985));
#1601=CARTESIAN_POINT('',(0.2,0.2,0.));
#1602=CARTESIAN_POINT('',(0.2,0.2,1.985));
#1603=CARTESIAN_POINT('',(0.2,0.,1.985));
#1604=CARTESIAN_POINT('',(-2.44929359829471E-17,0.2,1.985));
#1605=CARTESIAN_POINT('',(-2.77555756156289E-17,0.2,0.));
#1606=CARTESIAN_POINT('',(0.2,0.,0.));
#1607=CARTESIAN_POINT('',(-4.43934464690916E-16,3.625,0.));
#1608=CARTESIAN_POINT('',(0.,0.,1.985));
#1609=CARTESIAN_POINT('',(-8.63375993398884E-16,7.05,1.985));
#1610=CARTESIAN_POINT('',(-8.60422844084496E-16,7.05,0.));
#1611=CARTESIAN_POINT('',(0.199999999999999,7.05,0.));
#1612=CARTESIAN_POINT('',(0.199999999999999,7.05,1.985));
#1613=CARTESIAN_POINT('',(5.0375,2.95,0.690000000000001));
#1614=CARTESIAN_POINT('',(6.85,2.95,0.690000000000001));
#1615=CARTESIAN_POINT('',(6.85,2.95,0.290000000000001));
#1616=CARTESIAN_POINT('',(6.85,2.55,0.690000000000001));
#1617=CARTESIAN_POINT('',(5.0375,2.95,0.290000000000001));
#1618=CARTESIAN_POINT('',(0.4,2.94999999999999,0.290000000000001));
#1619=CARTESIAN_POINT('',(0.400000000000001,2.94999999999999,0.690000000000001));
#1620=CARTESIAN_POINT('',(0.4,2.55,0.690000000000001));
#1621=CARTESIAN_POINT('',(5.0375,2.55,0.690000000000001));
#1622=CARTESIAN_POINT('',(0.4,3.625,1.985));
#1623=CARTESIAN_POINT('',(0.4,2.55,0.290000000000001));
#1624=CARTESIAN_POINT('',(0.400000000000001,5.85,0.290000000000001));
#1625=CARTESIAN_POINT('',(0.399999999999985,5.85,0.690000000000001));
#1626=CARTESIAN_POINT('',(0.400000000000001,6.25,0.690000000000001));
#1627=CARTESIAN_POINT('',(0.400000000000001,6.25,1.59));
#1628=CARTESIAN_POINT('',(0.400000000000001,6.25,1.59));
#1629=CARTESIAN_POINT('',(0.4,7.05,1.59));
#1630=CARTESIAN_POINT('',(0.4,7.05,1.59));
#1631=CARTESIAN_POINT('',(0.4,7.05,1.985));
#1632=CARTESIAN_POINT('',(0.4,7.05,1.76));
#1633=CARTESIAN_POINT('',(0.4,3.625,1.76));
#1634=CARTESIAN_POINT('',(0.4,0.250000000000002,1.76));
#1635=CARTESIAN_POINT('',(0.4,0.250000000000002,1.76));
#1636=CARTESIAN_POINT('',(0.4,0.250000000000002,1.59));
#1637=CARTESIAN_POINT('',(0.4,0.849999999999999,1.59));
#1638=CARTESIAN_POINT('',(0.4,1.80898876404494,0.990632022471916));
#1639=CARTESIAN_POINT('',(0.400000000000001,1.05,1.465));
#1640=CARTESIAN_POINT('',(0.4,2.5125,1.465));
#1641=CARTESIAN_POINT('',(0.4,1.25,1.465));
#1642=CARTESIAN_POINT('',(0.4,1.375,1.465));
#1643=CARTESIAN_POINT('',(0.399999999999999,1.375,1.59));
#1644=CARTESIAN_POINT('',(0.399999999999999,3.6375,1.59));
#1645=CARTESIAN_POINT('',(0.399999999999999,1.425,1.59));
#1646=CARTESIAN_POINT('',(0.4,1.425,1.465));
#1647=CARTESIAN_POINT('',(0.4,1.55,1.465));
#1648=CARTESIAN_POINT('',(0.4,1.75,1.465));
#1649=CARTESIAN_POINT('',(0.4,2.59101123595506,1.99063202247191));
#1650=CARTESIAN_POINT('',(0.4,1.95,1.59));
#1651=CARTESIAN_POINT('',(0.4,2.55,1.59));
#1652=CARTESIAN_POINT('',(0.4,2.55,1.59));
#1653=CARTESIAN_POINT('',(3.625,3.48838383838384,0.290000000000001));
#1654=CARTESIAN_POINT('',(2.6,6.05,0.290000000000001));
#1655=CARTESIAN_POINT('',(2.42,6.05,0.290000000000001));
#1656=CARTESIAN_POINT('',(6.85,6.25,0.290000000000001));
#1657=CARTESIAN_POINT('',(6.85,5.85,0.290000000000001));
#1658=CARTESIAN_POINT('',(5.0375,5.85000000000001,0.290000000000001));
#1659=CARTESIAN_POINT('',(6.45,5.85,0.290000000000001));
#1660=CARTESIAN_POINT('',(6.45,6.65,0.290000000000001));
#1661=CARTESIAN_POINT('',(5.65,6.65,0.290000000000001));
#1662=CARTESIAN_POINT('',(5.65,5.06919191919192,0.290000000000001));
#1663=CARTESIAN_POINT('',(5.65,7.05,0.290000000000001));
#1664=CARTESIAN_POINT('',(1.2,7.05,0.290000000000001));
#1665=CARTESIAN_POINT('',(1.6,7.05,0.290000000000001));
#1666=CARTESIAN_POINT('',(1.6,5.06919191919192,0.290000000000001));
#1667=CARTESIAN_POINT('',(1.6,6.65,0.290000000000001));
#1668=CARTESIAN_POINT('',(0.8,6.65,0.290000000000001));
#1669=CARTESIAN_POINT('',(0.800000000000005,5.85,0.290000000000001));
#1670=CARTESIAN_POINT('',(2.21249999999999,5.85000000000001,0.290000000000001));
#1671=CARTESIAN_POINT('',(0.8,6.65,0.690000000000001));
#1672=CARTESIAN_POINT('',(0.800000000000005,5.85,0.690000000000001));
#1673=CARTESIAN_POINT('',(0.800000000000002,6.25,0.690000000000001));
#1674=CARTESIAN_POINT('',(1.6,6.65,0.690000000000001));
#1675=CARTESIAN_POINT('',(1.2,6.65,0.690000000000001));
#1676=CARTESIAN_POINT('',(0.8,6.65,0.690000000000001));
#1677=CARTESIAN_POINT('',(2.21249999999999,5.85000000000001,0.690000000000001));
#1678=CARTESIAN_POINT('',(2.21249999999999,6.25000000000001,0.690000000000001));
#1679=CARTESIAN_POINT('',(1.6,5.06919191919192,0.690000000000001));
#1680=CARTESIAN_POINT('',(1.6,7.05,0.690000000000001));
#1681=CARTESIAN_POINT('',(1.2,7.05,0.690000000000001));
#1682=CARTESIAN_POINT('',(1.2,5.06919191919192,0.690000000000001));
#1683=CARTESIAN_POINT('',(0.8,6.25,1.59));
#1684=CARTESIAN_POINT('',(0.800000000000002,6.25,1.59));
#1685=CARTESIAN_POINT('',(0.800000000000002,6.25,1.59));
#1686=CARTESIAN_POINT('',(2.21249999999999,6.25000000000001,1.59));
#1687=CARTESIAN_POINT('',(0.8,6.65,1.59));
#1688=CARTESIAN_POINT('',(1.2,6.65,1.59));
#1689=CARTESIAN_POINT('',(1.2,6.65,1.59));
#1690=CARTESIAN_POINT('',(0.8,6.65,1.59));
#1691=CARTESIAN_POINT('',(1.2,6.65,1.59));
#1692=CARTESIAN_POINT('',(1.2,7.05,1.59));
#1693=CARTESIAN_POINT('',(1.2,7.05,1.59));
#1694=CARTESIAN_POINT('',(1.2,5.15,1.59));
#1695=CARTESIAN_POINT('',(5.0375,5.85000000000001,0.690000000000001));
#1696=CARTESIAN_POINT('',(6.85000000000001,5.85,0.690000000000001));
#1697=CARTESIAN_POINT('',(6.85,6.25,0.690000000000001));
#1698=CARTESIAN_POINT('',(5.03750000000001,6.25000000000001,0.690000000000001));
#1699=CARTESIAN_POINT('',(6.45,6.25,0.690000000000001));
#1700=CARTESIAN_POINT('',(6.45,5.85,0.690000000000001));
#1701=CARTESIAN_POINT('',(6.45,6.65,0.690000000000001));
#1702=CARTESIAN_POINT('',(5.65,6.65,0.690000000000001));
#1703=CARTESIAN_POINT('',(6.05,6.65,0.690000000000001));
#1704=CARTESIAN_POINT('',(6.45,6.65,0.690000000000001));
#1705=CARTESIAN_POINT('',(5.65,5.06919191919192,0.690000000000001));
#1706=CARTESIAN_POINT('',(5.65,7.05,0.690000000000001));
#1707=CARTESIAN_POINT('',(6.05,7.05,0.690000000000001));
#1708=CARTESIAN_POINT('',(6.05,5.06919191919192,0.690000000000001));
#1709=CARTESIAN_POINT('',(3.625,7.05,1.985));
#1710=CARTESIAN_POINT('',(6.05,7.05,1.59));
#1711=CARTESIAN_POINT('',(6.05,7.05,1.59));
#1712=CARTESIAN_POINT('',(6.85,7.05,1.59));
#1713=CARTESIAN_POINT('',(6.85,7.05,1.59));
#1714=CARTESIAN_POINT('',(6.85,7.05,1.985));
#1715=CARTESIAN_POINT('',(6.85,7.05,1.76));
#1716=CARTESIAN_POINT('',(7.05,7.05,1.76));
#1717=CARTESIAN_POINT('',(7.05,7.05,1.76));
#1718=CARTESIAN_POINT('',(7.05,7.05,1.985));
#1719=CARTESIAN_POINT('',(7.05,7.05,1.985));
#1720=CARTESIAN_POINT('',(5.2875,7.05,1.985));
#1721=CARTESIAN_POINT('',(0.2,7.05,1.985));
#1722=CARTESIAN_POINT('',(0.2,7.05,1.985));
#1723=CARTESIAN_POINT('',(0.2,7.05,1.76));
#1724=CARTESIAN_POINT('',(0.2,7.05,1.76));
#1725=CARTESIAN_POINT('',(6.05,6.65,1.59));
#1726=CARTESIAN_POINT('',(6.05,6.65,1.59));
#1727=CARTESIAN_POINT('',(6.05,6.65,1.59));
#1728=CARTESIAN_POINT('',(6.05,5.15,1.59));
#1729=CARTESIAN_POINT('',(6.45,6.65,1.59));
#1730=CARTESIAN_POINT('',(6.45,6.25,1.59));
#1731=CARTESIAN_POINT('',(6.45,6.25,1.59));
#1732=CARTESIAN_POINT('',(6.45,6.65,1.59));
#1733=CARTESIAN_POINT('',(6.45,6.25,1.59));
#1734=CARTESIAN_POINT('',(6.85,6.25,1.59));
#1735=CARTESIAN_POINT('',(6.85,6.25,1.59));
#1736=CARTESIAN_POINT('',(5.03750000000001,6.25000000000001,1.59));
#1737=CARTESIAN_POINT('',(3.625,3.65,1.59));
#1738=CARTESIAN_POINT('',(0.925,6.65,1.59));
#1739=CARTESIAN_POINT('',(0.785,6.65,1.59));
#1740=CARTESIAN_POINT('',(6.85,0.250000000000003,1.59));
#1741=CARTESIAN_POINT('',(6.325,6.65,1.59));
#1742=CARTESIAN_POINT('',(6.185,6.65,1.59));
#1743=CARTESIAN_POINT('',(3.625,1.375,1.465));
#1744=CARTESIAN_POINT('',(6.85,1.375,1.465));
#1745=CARTESIAN_POINT('',(6.85,1.25,1.465));
#1746=CARTESIAN_POINT('',(6.85,1.375,1.59));
#1747=CARTESIAN_POINT('',(3.625,1.375,1.59));
#1748=CARTESIAN_POINT('',(3.625,1.25,1.465));
#1749=CARTESIAN_POINT('',(3.625,3.65,1.59));
#1750=CARTESIAN_POINT('',(6.85,3.6375,1.59));
#1751=CARTESIAN_POINT('',(6.85,1.425,1.59));
#1752=CARTESIAN_POINT('',(3.625,1.425,1.59));
#1753=CARTESIAN_POINT('',(3.625,1.425,1.465));
#1754=CARTESIAN_POINT('',(6.85,1.425,1.465));
#1755=CARTESIAN_POINT('',(6.85,1.55,1.465));
#1756=CARTESIAN_POINT('',(3.625,1.55,1.465));
#1757=CARTESIAN_POINT('',(2.6,6.05,-10.1534297527201));
#1758=CARTESIAN_POINT('',(7.05,3.625,1.985));
#1759=CARTESIAN_POINT('',(7.05,0.199999999999999,1.76));
#1760=CARTESIAN_POINT('',(7.05,0.199999999999999,1.76));
#1761=CARTESIAN_POINT('',(7.05,0.199999999999999,1.985));
#1762=CARTESIAN_POINT('',(7.05,0.199999999999999,1.985));
#1763=CARTESIAN_POINT('',(7.05,3.625,1.985));
#1764=CARTESIAN_POINT('',(0.2,3.625,1.985));
#1765=CARTESIAN_POINT('',(0.200000000000001,0.199999999999999,1.76));
#1766=CARTESIAN_POINT('',(0.200000000000001,0.199999999999999,1.76));
#1767=CARTESIAN_POINT('',(0.2,3.625,1.985));
#1768=CARTESIAN_POINT('',(0.200000000000001,0.199999999999999,1.985));
#1769=CARTESIAN_POINT('',(0.200000000000001,0.199999999999999,1.985));
#1770=CARTESIAN_POINT('',(6.85,3.625,1.985));
#1771=CARTESIAN_POINT('',(6.85,2.55,1.59));
#1772=CARTESIAN_POINT('',(6.85,2.55,1.59));
#1773=CARTESIAN_POINT('',(6.85,1.95,1.59));
#1774=CARTESIAN_POINT('',(6.85,2.59101123595506,1.99063202247191));
#1775=CARTESIAN_POINT('',(6.85,1.75,1.465));
#1776=CARTESIAN_POINT('',(6.85,2.5125,1.465));
#1777=CARTESIAN_POINT('',(6.85,1.05,1.465));
#1778=CARTESIAN_POINT('',(6.85,1.80898876404494,0.990632022471916));
#1779=CARTESIAN_POINT('',(6.85,0.850000000000001,1.59));
#1780=CARTESIAN_POINT('',(6.85,0.250000000000003,1.59));
#1781=CARTESIAN_POINT('',(6.85,0.250000000000003,1.76));
#1782=CARTESIAN_POINT('',(6.85,0.250000000000003,1.76));
#1783=CARTESIAN_POINT('',(6.85,3.625,1.76));
#1784=CARTESIAN_POINT('',(3.625,1.4,1.465));
#1785=CARTESIAN_POINT('',(2.2125,1.04999999999999,1.465));
#1786=CARTESIAN_POINT('',(1.2,1.04999999999999,1.465));
#1787=CARTESIAN_POINT('',(1.2,1.025,1.465));
#1788=CARTESIAN_POINT('',(1.2,0.250000000000001,1.465));
#1789=CARTESIAN_POINT('',(3.625,0.250000000000001,1.465));
#1790=CARTESIAN_POINT('',(6.05,0.250000000000002,1.465));
#1791=CARTESIAN_POINT('',(6.05,1.025,1.465));
#1792=CARTESIAN_POINT('',(6.05,1.04999999999999,1.465));
#1793=CARTESIAN_POINT('',(5.0375,1.04999999999999,1.465));
#1794=CARTESIAN_POINT('',(5.03750000000001,0.949999999999982,1.5275));
#1795=CARTESIAN_POINT('',(6.05,0.82808988764044,1.60369382022472));
#1796=CARTESIAN_POINT('',(6.05,0.849999999999992,1.59));
#1797=CARTESIAN_POINT('',(5.03750000000002,0.849999999999982,1.59));
#1798=CARTESIAN_POINT('',(6.05,2.15,1.59));
#1799=CARTESIAN_POINT('',(6.05,0.250000000000002,1.59));
#1800=CARTESIAN_POINT('',(0.4,0.250000000000002,1.59));
#1801=CARTESIAN_POINT('',(6.325,0.65,1.59));
#1802=CARTESIAN_POINT('',(6.185,0.65,1.59));
#1803=CARTESIAN_POINT('',(6.05,0.649999999999997,1.59));
#1804=CARTESIAN_POINT('',(6.05,0.250000000000002,1.59));
#1805=CARTESIAN_POINT('',(5.0375,1.85000000000001,1.5275));
#1806=CARTESIAN_POINT('',(6.05,1.97191011235956,1.60369382022472));
#1807=CARTESIAN_POINT('',(6.05,1.95000000000001,1.59));
#1808=CARTESIAN_POINT('',(6.05,1.75000000000001,1.465));
#1809=CARTESIAN_POINT('',(5.0375,1.75000000000001,1.465));
#1810=CARTESIAN_POINT('',(5.0375,1.95000000000001,1.59));
#1811=CARTESIAN_POINT('',(5.0375,2.55,1.59));
#1812=CARTESIAN_POINT('',(6.05,2.55,1.59));
#1813=CARTESIAN_POINT('',(6.05,2.9,1.59));
#1814=CARTESIAN_POINT('',(6.325,2.15,1.59));
#1815=CARTESIAN_POINT('',(6.185,2.15,1.59));
#1816=CARTESIAN_POINT('',(2.21250000000001,1.85000000000001,1.5275));
#1817=CARTESIAN_POINT('',(1.2,1.97191011235956,1.60369382022472));
#1818=CARTESIAN_POINT('',(1.2,1.75,1.465));
#1819=CARTESIAN_POINT('',(1.2,1.95000000000001,1.59));
#1820=CARTESIAN_POINT('',(2.21250000000001,1.95000000000001,1.59));
#1821=CARTESIAN_POINT('',(2.2125,1.75000000000001,1.465));
#1822=CARTESIAN_POINT('',(1.2,2.15,1.59));
#1823=CARTESIAN_POINT('',(1.2,1.775,1.465));
#1824=CARTESIAN_POINT('',(1.2,2.55,1.465));
#1825=CARTESIAN_POINT('',(1.2,2.55,1.59));
#1826=CARTESIAN_POINT('',(1.2,2.55,1.59));
#1827=CARTESIAN_POINT('',(1.2,2.9,1.59));
#1828=CARTESIAN_POINT('',(2.21249999999999,0.949999999999982,1.5275));
#1829=CARTESIAN_POINT('',(1.2,0.828089887640439,1.60369382022472));
#1830=CARTESIAN_POINT('',(1.2,0.849999999999992,1.59));
#1831=CARTESIAN_POINT('',(2.21249999999999,0.849999999999981,1.59));
#1832=CARTESIAN_POINT('',(1.2,0.649999999999996,1.59));
#1833=CARTESIAN_POINT('',(1.2,2.15,1.59));
#1834=CARTESIAN_POINT('',(1.2,0.250000000000001,1.59));
#1835=CARTESIAN_POINT('',(1.2,0.250000000000001,1.59));
#1836=CARTESIAN_POINT('',(6.05,1.775,1.465));
#1837=CARTESIAN_POINT('',(6.05,2.55,1.465));
#1838=CARTESIAN_POINT('',(1.2,2.55,1.465));
#1839=CARTESIAN_POINT('',(3.625,0.250000000000002,1.76));
#1840=CARTESIAN_POINT('',(3.625,0.250000000000002,1.76));
#1841=CARTESIAN_POINT('',(0.925,2.15,-8.85342975272013));
#1842=CARTESIAN_POINT('',(0.925,2.15,1.59));
#1843=CARTESIAN_POINT('',(0.785,2.15,1.59));
#1844=CARTESIAN_POINT('',(6.325,6.65,-8.85342975272013));
#1845=CARTESIAN_POINT('',(6.325,0.65,-8.85342975272013));
#1846=CARTESIAN_POINT('',(6.325,2.15,-8.85342975272013));
#1847=CARTESIAN_POINT('',(0.925,0.650000000000001,-8.85342975272013));
#1848=CARTESIAN_POINT('',(0.925,0.650000000000001,1.59));
#1849=CARTESIAN_POINT('',(0.785,0.650000000000001,1.59));
#1850=CARTESIAN_POINT('',(0.925,6.65,-8.85342975272013));
#1851=CARTESIAN_POINT('',(6.05,2.15,1.59));
#1852=CARTESIAN_POINT('',(6.05,2.55,1.59));
#1853=CARTESIAN_POINT('',(6.45,2.55,1.59));
#1854=CARTESIAN_POINT('',(2.2125,2.55,1.59));
#1855=CARTESIAN_POINT('',(3.625,0.2,1.985));
#1856=CARTESIAN_POINT('',(6.85,0.199999999999999,1.76));
#1857=CARTESIAN_POINT('',(5.2875,0.199999999999999,1.985));
#1858=CARTESIAN_POINT('',(3.625,3.625,1.76));
#1859=CARTESIAN_POINT('',(3.625,0.,0.));
#1860=CARTESIAN_POINT('',(7.25,0.,1.985));
#1861=CARTESIAN_POINT('',(3.625,3.625,1.985));
#1862=CYLINDRICAL_SURFACE('',#1193,0.2);
#1863=CYLINDRICAL_SURFACE('',#1208,0.2);
#1864=CYLINDRICAL_SURFACE('',#1211,0.2);
#1865=CYLINDRICAL_SURFACE('',#1214,0.2);
#1866=CYLINDRICAL_SURFACE('',#1216,0.4);
#1867=CYLINDRICAL_SURFACE('',#1231,0.4);
#1868=CYLINDRICAL_SURFACE('',#1232,0.4);
#1869=CYLINDRICAL_SURFACE('',#1235,0.4);
#1870=CYLINDRICAL_SURFACE('',#1238,0.4);
#1871=CYLINDRICAL_SURFACE('',#1244,0.4);
#1872=CYLINDRICAL_SURFACE('',#1248,0.4);
#1873=CYLINDRICAL_SURFACE('',#1254,0.125);
#1874=CYLINDRICAL_SURFACE('',#1257,0.125);
#1875=CYLINDRICAL_SURFACE('',#1259,0.18);
#1876=CYLINDRICAL_SURFACE('',#1274,0.14);
#1877=CYLINDRICAL_SURFACE('',#1276,0.14);
#1878=CYLINDRICAL_SURFACE('',#1277,0.14);
#1879=CYLINDRICAL_SURFACE('',#1278,0.14);
#1880=CYLINDRICAL_SURFACE('',#1279,0.14);
#1881=CYLINDRICAL_SURFACE('',#1281,0.14);
#1882=CLOSED_SHELL('',(#1134,#1135,#1136,#1137,#1138,#1139,#1140,#1141,
#1142,#1143,#1144,#1145,#1146,#1147,#1148,#1149,#1150,#1151,#1152,#1153,
#1154,#1155,#1156,#1157,#1158,#1159,#1160,#1161,#1162,#1163,#1164,#1165,
#1166,#1167,#1168,#1169,#1170,#1171,#1172,#1173,#1174,#1175,#1176,#1177,
#1178,#1179,#1180,#1181,#1182,#1183,#1184,#1185,#1186,#1187,#1188,#1189,
#1190,#1191,#1192));
#1883=MANIFOLD_SOLID_BREP('',#1882);
#1884=ADVANCED_BREP_SHAPE_REPRESENTATION('',(#1883),#103);
ENDSEC;
END-ISO-10303-21;
