ISO-10303-21;
HEADER;
/* Generated by software containing ST-Developer
 * from STEP Tools, Inc. (www.steptools.com) 
 */

FILE_DESCRIPTION(
/* description */ ('Alibre Inc.'),
/* implementation_level */ '2;1');

FILE_NAME(
/* name */ 'export-3A8EBE68-752B-4DE1-8620-B6832D8CAFD0',
/* time_stamp */ '2026-09-15T14:42:00-07:00',
/* author */ (''),
/* organization */ (''),
/* preprocessor_version */ 'ST-DEVELOPER v17',
/* originating_system */ 'Alibre',
/* authorisation */ '');

FILE_SCHEMA (('CONFIG_CONTROL_DESIGN'));
ENDSEC;

DATA;
#10=MECHANICAL_CONTEXT('detailed design',#18,'mechanical');
#11=PRODUCT_RELATED_PRODUCT_CATEGORY('detail','',(#98));
#12=CC_DESIGN_SECURITY_CLASSIFICATION(#14,(#97));
#13=SECURITY_CLASSIFICATION_LEVEL('unclassified');
#14=SECURITY_CLASSIFICATION('name','Security for version',#13);
#15=SHAPE_DEFINITION_REPRESENTATION(#16,#1396);
#16=PRODUCT_DEFINITION_SHAPE('','DefinitionDesc',#96);
#17=APPLICATION_PROTOCOL_DEFINITION('AP definition status',
'config_control_design',1994,#18);
#18=APPLICATION_CONTEXT(
'control the configuration of three dimensional design');
#19=DESIGN_CONTEXT('detailed design',#18,'design');
#20=PERSON_AND_ORGANIZATION_ROLE('creator');
#21=PERSON_AND_ORGANIZATION_ROLE('classification_officer');
#22=PERSON_AND_ORGANIZATION_ROLE('creator');
#23=PERSON_AND_ORGANIZATION_ROLE('design_supplier');
#24=PERSON_AND_ORGANIZATION_ROLE('design_owner');
#25=CC_DESIGN_PERSON_AND_ORGANIZATION_ASSIGNMENT(#57,#20,(#96));
#26=CC_DESIGN_PERSON_AND_ORGANIZATION_ASSIGNMENT(#60,#21,(#14));
#27=CC_DESIGN_PERSON_AND_ORGANIZATION_ASSIGNMENT(#61,#22,(#97));
#28=CC_DESIGN_PERSON_AND_ORGANIZATION_ASSIGNMENT(#62,#23,(#97));
#29=CC_DESIGN_PERSON_AND_ORGANIZATION_ASSIGNMENT(#63,#24,(#98));
#30=DATE_TIME_ROLE('creation_date');
#31=DATE_TIME_ROLE('classification_date');
#32=CC_DESIGN_DATE_AND_TIME_ASSIGNMENT(#86,#30,(#96));
#33=CC_DESIGN_DATE_AND_TIME_ASSIGNMENT(#89,#31,(#14));
#34=CC_DESIGN_APPROVAL(#93,(#96));
#35=CC_DESIGN_APPROVAL(#94,(#97));
#36=CC_DESIGN_APPROVAL(#95,(#14));
#37=APPROVAL_PERSON_ORGANIZATION(#56,#93,#64);
#38=APPROVAL_PERSON_ORGANIZATION(#58,#94,#65);
#39=APPROVAL_PERSON_ORGANIZATION(#59,#95,#66);
#40=ORGANIZATION('DEFINITION_APPROVEDBY_ORG_ID',
'DEFINITION_APPROVEDBY_ORG_NAME','DEFINITION_APPROVEDBY_ORG_DESCR');
#41=ORGANIZATION('DEF_CREATOR_ORG_ID','DEF_CREATOR_ORG_NAME',
'DEF_CREATOR_ORG_DESCR');
#42=ORGANIZATION('APPROVEDBY_ORG_ID','APPROVEDBY_ORG_NAME',
'APPROVEDBY_ORG_DESCR');
#43=ORGANIZATION('SECURITY_APPROVEDBY_ORG_ID',
'SECURITY_APPROVEDBY_ORG_NAME','SECURITY_APPROVEDBY_ORG_DESCR');
#44=ORGANIZATION('CLASSOFFICER_ORG_ID','CLASSOFFICER_ORG_NAME',
'CLASSOFFICER_ORG_DESCR');
#45=ORGANIZATION('CREATOR_ORG_ID','CREATOR_ORG_NAME',
'CREATOR_ORG_DESCR');
#46=ORGANIZATION('SUPPLIER_ORG_ID','SUPPLIER_ORG_NAME',
'SUPPLIER_ORG_DESCR');
#47=ORGANIZATION('OWNER_ORG_ID','OWNER_ORG_NAME','OWNER_ORG_DESCR');
#48=PERSON('DEFINITION_approverID','DEFINITION_APPROVEDBY_LASTNAME',
'DEFINITION_APPROVEDBY_FIRSTNAME',$,$,$);
#49=PERSON('DEF_createrID','DEF_CREATOR_LASTNAME',
'DEF_CREATOR_FIRSTNAME',$,$,$);
#50=PERSON('approverID','APPROVEDBY_LASTNAME','APPROVEDBY_FIRSTNAME',$,
$,$);
#51=PERSON('SECURITY_approverID','SECURITY_LASTNAME',
'SECURITY_APPROVEDBY_FIRSTNAME',$,$,$);
#52=PERSON('classifierID','CLASSOFFICER_LASTNAME',
'CLASSOFFICER_FIRSTNAME',$,$,$);
#53=PERSON('createrID','CREATOR_LASTNAME','CREATOR_FIRSTNAME',$,$,$);
#54=PERSON('supplierID','SUPPLIER_LASTNAME','SUPPLIER_FIRSTNAME',$,$,$);
#55=PERSON('ownerID','OWNER_LASTNAME','OWNER_FIRSTNAME',$,$,$);
#56=PERSON_AND_ORGANIZATION(#48,#40);
#57=PERSON_AND_ORGANIZATION(#49,#41);
#58=PERSON_AND_ORGANIZATION(#50,#42);
#59=PERSON_AND_ORGANIZATION(#51,#43);
#60=PERSON_AND_ORGANIZATION(#52,#44);
#61=PERSON_AND_ORGANIZATION(#53,#45);
#62=PERSON_AND_ORGANIZATION(#54,#46);
#63=PERSON_AND_ORGANIZATION(#55,#47);
#64=APPROVAL_ROLE('definition_approval');
#65=APPROVAL_ROLE('version_approval');
#66=APPROVAL_ROLE('security_approval');
#67=APPROVAL_DATE_TIME(#85,#93);
#68=APPROVAL_DATE_TIME(#87,#94);
#69=APPROVAL_DATE_TIME(#88,#95);
#70=COORDINATED_UNIVERSAL_TIME_OFFSET(7,0,.BEHIND.);
#71=COORDINATED_UNIVERSAL_TIME_OFFSET(7,0,.BEHIND.);
#72=COORDINATED_UNIVERSAL_TIME_OFFSET(7,0,.BEHIND.);
#73=COORDINATED_UNIVERSAL_TIME_OFFSET(7,0,.BEHIND.);
#74=COORDINATED_UNIVERSAL_TIME_OFFSET(7,0,.BEHIND.);
#75=LOCAL_TIME(11,10,35.,#70);
#76=LOCAL_TIME(11,10,35.,#71);
#77=LOCAL_TIME(11,10,35.,#72);
#78=LOCAL_TIME(11,10,35.,#73);
#79=LOCAL_TIME(11,10,35.,#74);
#80=CALENDAR_DATE(2026,15,9);
#81=CALENDAR_DATE(2026,15,9);
#82=CALENDAR_DATE(2026,15,9);
#83=CALENDAR_DATE(2026,15,9);
#84=CALENDAR_DATE(2026,15,9);
#85=DATE_AND_TIME(#80,#75);
#86=DATE_AND_TIME(#81,#76);
#87=DATE_AND_TIME(#82,#77);
#88=DATE_AND_TIME(#83,#78);
#89=DATE_AND_TIME(#84,#79);
#90=APPROVAL_STATUS('not_yet_approved');
#91=APPROVAL_STATUS('not_yet_approved');
#92=APPROVAL_STATUS('not_yet_approved');
#93=APPROVAL(#90,'defintion approval');
#94=APPROVAL(#91,'version approval');
#95=APPROVAL(#92,'security approval');
#96=PRODUCT_DEFINITION('DefinitionID','DefinitionDesc',#97,#19);
#97=PRODUCT_DEFINITION_FORMATION_WITH_SPECIFIED_SOURCE(
'PRODUCT_VERSION_ID','PRODUCT_VERSION_DESCR',#98,.NOT_KNOWN.);
#98=PRODUCT('','Case_Back_rev2','',(#10));
#99=(
LENGTH_UNIT()
NAMED_UNIT(*)
SI_UNIT(.CENTI.,.METRE.)
);
#100=(
NAMED_UNIT(*)
PLANE_ANGLE_UNIT()
SI_UNIT($,.RADIAN.)
);
#101=(
NAMED_UNIT(*)
SI_UNIT($,.STERADIAN.)
SOLID_ANGLE_UNIT()
);
#102=UNCERTAINTY_MEASURE_WITH_UNIT(LENGTH_MEASURE(1.E-6),#99,
'DISTANCE_ACCURACY_VALUE',
'Maximum model space distance between geometric entities at asserted c
onnectivities');
#103=(
GEOMETRIC_REPRESENTATION_CONTEXT(3)
GLOBAL_UNCERTAINTY_ASSIGNED_CONTEXT((#102))
GLOBAL_UNIT_ASSIGNED_CONTEXT((#101,#100,#99))
REPRESENTATION_CONTEXT('ID1','3D')
);
#104=CONICAL_SURFACE('',#678,0.26,0.785398163397448);
#105=CONICAL_SURFACE('',#681,0.26,0.785398163397448);
#106=CONICAL_SURFACE('',#684,0.26,0.785398163397448);
#107=CONICAL_SURFACE('',#687,0.26,0.785398163397448);
#108=CONICAL_SURFACE('',#690,0.26,0.785398163397448);
#109=CONICAL_SURFACE('',#693,0.26,0.785398163397448);
#110=PLANE('',#664);
#111=PLANE('',#668);
#112=PLANE('',#696);
#113=PLANE('',#697);
#114=PLANE('',#698);
#115=PLANE('',#699);
#116=PLANE('',#700);
#117=PLANE('',#701);
#118=PLANE('',#702);
#119=PLANE('',#703);
#120=PLANE('',#704);
#121=PLANE('',#705);
#122=CIRCLE('',#663,0.2);
#123=CIRCLE('',#665,0.5);
#124=CIRCLE('',#667,0.2);
#125=CIRCLE('',#669,0.5);
#126=CIRCLE('',#671,0.2);
#127=CIRCLE('',#672,0.5);
#128=CIRCLE('',#674,0.2);
#129=CIRCLE('',#675,0.5);
#130=CIRCLE('',#679,0.16);
#131=CIRCLE('',#680,0.26);
#132=CIRCLE('',#682,0.16);
#133=CIRCLE('',#683,0.26);
#134=CIRCLE('',#685,0.16);
#135=CIRCLE('',#686,0.26);
#136=CIRCLE('',#688,0.16);
#137=CIRCLE('',#689,0.26);
#138=CIRCLE('',#691,0.16);
#139=CIRCLE('',#692,0.26);
#140=CIRCLE('',#694,0.16);
#141=CIRCLE('',#695,0.26);
#142=VECTOR('',#708,1.);
#143=VECTOR('',#709,1.);
#144=VECTOR('',#712,1.);
#145=VECTOR('',#716,1.);
#146=VECTOR('',#717,1.);
#147=VECTOR('',#720,1.);
#148=VECTOR('',#723,1.);
#149=VECTOR('',#724,1.);
#150=VECTOR('',#726,1.);
#151=VECTOR('',#727,1.);
#152=VECTOR('',#732,1.);
#153=VECTOR('',#733,1.);
#154=VECTOR('',#736,1.);
#155=VECTOR('',#739,1.);
#156=VECTOR('',#742,1.);
#157=VECTOR('',#745,1.);
#158=VECTOR('',#746,1.);
#159=VECTOR('',#747,1.);
#160=VECTOR('',#752,1.);
#161=VECTOR('',#753,1.);
#162=VECTOR('',#756,1.);
#163=VECTOR('',#757,1.);
#164=VECTOR('',#795,1.);
#165=VECTOR('',#796,1.);
#166=VECTOR('',#797,1.);
#167=VECTOR('',#798,1.);
#168=VECTOR('',#799,1.);
#169=VECTOR('',#800,1.);
#170=VECTOR('',#801,1.);
#171=VECTOR('',#802,1.);
#172=VECTOR('',#803,1.);
#173=VECTOR('',#805,1.);
#174=VECTOR('',#806,1.);
#175=VECTOR('',#807,1.);
#176=VECTOR('',#809,1.);
#177=VECTOR('',#810,1.);
#178=VECTOR('',#811,1.);
#179=VECTOR('',#813,1.);
#180=VECTOR('',#814,1.);
#181=VECTOR('',#815,1.);
#182=VECTOR('',#818,1.);
#183=VECTOR('',#819,1.);
#184=VECTOR('',#820,1.);
#185=VECTOR('',#822,1.);
#186=VECTOR('',#823,1.);
#187=VECTOR('',#824,1.);
#188=VECTOR('',#826,1.);
#189=VECTOR('',#828,1.);
#190=LINE('',#899,#142);
#191=LINE('',#938,#143);
#192=LINE('',#942,#144);
#193=LINE('',#946,#145);
#194=LINE('',#948,#146);
#195=LINE('',#1018,#147);
#196=LINE('',#1022,#148);
#197=LINE('',#1061,#149);
#198=LINE('',#1063,#150);
#199=LINE('',#1065,#151);
#200=LINE('',#1137,#152);
#201=LINE('',#1176,#153);
#202=LINE('',#1180,#154);
#203=LINE('',#1184,#155);
#204=LINE('',#1254,#156);
#205=LINE('',#1258,#157);
#206=LINE('',#1297,#158);
#207=LINE('',#1298,#159);
#208=LINE('',#1303,#160);
#209=LINE('',#1304,#161);
#210=LINE('',#1306,#162);
#211=LINE('',#1307,#163);
#212=LINE('',#1337,#164);
#213=LINE('',#1339,#165);
#214=LINE('',#1341,#166);
#215=LINE('',#1343,#167);
#216=LINE('',#1345,#168);
#217=LINE('',#1348,#169);
#218=LINE('',#1349,#170);
#219=LINE('',#1351,#171);
#220=LINE('',#1353,#172);
#221=LINE('',#1355,#173);
#222=LINE('',#1357,#174);
#223=LINE('',#1359,#175);
#224=LINE('',#1361,#176);
#225=LINE('',#1363,#177);
#226=LINE('',#1364,#178);
#227=LINE('',#1366,#179);
#228=LINE('',#1367,#180);
#229=LINE('',#1369,#181);
#230=LINE('',#1372,#182);
#231=LINE('',#1374,#183);
#232=LINE('',#1375,#184);
#233=LINE('',#1378,#185);
#234=LINE('',#1380,#186);
#235=LINE('',#1382,#187);
#236=LINE('',#1384,#188);
#237=LINE('',#1386,#189);
#238=VERTEX_POINT('',#897);
#239=VERTEX_POINT('',#898);
#240=VERTEX_POINT('',#900);
#241=VERTEX_POINT('',#937);
#242=VERTEX_POINT('',#939);
#243=VERTEX_POINT('',#941);
#244=VERTEX_POINT('',#945);
#245=VERTEX_POINT('',#947);
#246=VERTEX_POINT('',#1016);
#247=VERTEX_POINT('',#1017);
#248=VERTEX_POINT('',#1019);
#249=VERTEX_POINT('',#1021);
#250=VERTEX_POINT('',#1023);
#251=VERTEX_POINT('',#1060);
#252=VERTEX_POINT('',#1064);
#253=VERTEX_POINT('',#1066);
#254=VERTEX_POINT('',#1135);
#255=VERTEX_POINT('',#1136);
#256=VERTEX_POINT('',#1138);
#257=VERTEX_POINT('',#1175);
#258=VERTEX_POINT('',#1177);
#259=VERTEX_POINT('',#1179);
#260=VERTEX_POINT('',#1182);
#261=VERTEX_POINT('',#1183);
#262=VERTEX_POINT('',#1252);
#263=VERTEX_POINT('',#1253);
#264=VERTEX_POINT('',#1255);
#265=VERTEX_POINT('',#1257);
#266=VERTEX_POINT('',#1259);
#267=VERTEX_POINT('',#1296);
#268=VERTEX_POINT('',#1299);
#269=VERTEX_POINT('',#1300);
#270=VERTEX_POINT('',#1310);
#271=VERTEX_POINT('',#1312);
#272=VERTEX_POINT('',#1315);
#273=VERTEX_POINT('',#1317);
#274=VERTEX_POINT('',#1320);
#275=VERTEX_POINT('',#1324);
#276=VERTEX_POINT('',#1328);
#277=VERTEX_POINT('',#1330);
#278=VERTEX_POINT('',#1333);
#279=VERTEX_POINT('',#1335);
#280=VERTEX_POINT('',#1338);
#281=VERTEX_POINT('',#1340);
#282=VERTEX_POINT('',#1342);
#283=VERTEX_POINT('',#1344);
#284=VERTEX_POINT('',#1346);
#285=VERTEX_POINT('',#1347);
#286=VERTEX_POINT('',#1350);
#287=VERTEX_POINT('',#1352);
#288=VERTEX_POINT('',#1356);
#289=VERTEX_POINT('',#1358);
#290=VERTEX_POINT('',#1362);
#291=VERTEX_POINT('',#1368);
#292=VERTEX_POINT('',#1373);
#293=VERTEX_POINT('',#1376);
#294=VERTEX_POINT('',#1379);
#295=VERTEX_POINT('',#1381);
#296=B_SPLINE_CURVE_WITH_KNOTS('',3,(#831,#832,#833,#834,#835,#836,#837,
#838,#839,#840,#841,#842,#843,#844,#845,#846,#847,#848,#849,#850,#851,#852,
#853,#854,#855,#856,#857,#858,#859,#860,#861,#862,#863,#864,#865,#866,#867,
#868,#869,#870,#871,#872,#873,#874,#875,#876,#877,#878,#879,#880,#881,#882,
#883,#884,#885,#886,#887,#888,#889,#890,#891,#892,#893,#894,#895,#896),
 .UNSPECIFIED.,.T.,.U.,(4,2,2,2,2,2,2,2,2,2,2,2,2,2,2,2,2,2,2,2,2,2,2,2,
2,2,2,2,2,2,2,2,4),(0.,0.088775671064556,0.177551342129112,0.266327013193668,
0.355102684258224,0.471458507268606,0.587814330278989,0.690106266361813,
0.792398202444638,0.827098249657626,0.861798296870614,0.896658463906375,
0.931518630942136,1.01815722829506,1.10479582564798,1.35467779497523,1.60455976430248,
1.85444173362973,2.10432370295698,2.1909623003099,2.27760089766283,2.31246106469859,
2.34732123173435,2.38202127894734,2.41672132616033,2.51901326224315,2.62130519832597,
2.73766102133636,2.85401684434674,2.9427925154113,3.03156818647585,3.12034385754041,
3.20911952860496),.UNSPECIFIED.);
#297=B_SPLINE_CURVE_WITH_KNOTS('',3,(#901,#902,#903,#904,#905,#906,#907,
#908,#909,#910,#911,#912,#913,#914,#915,#916,#917,#918,#919,#920,#921,#922,
#923,#924,#925,#926,#927,#928,#929,#930,#931,#932,#933,#934,#935,#936),
 .UNSPECIFIED.,.T.,.U.,(4,2,2,2,2,2,2,2,2,2,2,2,2,2,2,2,2,4),(0.,0.00143205386899623,
0.253288814328971,0.379217194558958,0.505145574788945,0.590606287828898,
0.67606700086885,0.75073869632009,0.825410391771329,0.901433725610063,0.977457059448798,
1.06155700573545,1.1456569520221,1.25449027942161,1.36332360682112,1.49607663090679,
1.62882965499247,1.63026170886146),.UNSPECIFIED.);
#298=B_SPLINE_CURVE_WITH_KNOTS('',3,(#950,#951,#952,#953,#954,#955,#956,
#957,#958,#959,#960,#961,#962,#963,#964,#965,#966,#967,#968,#969,#970,#971,
#972,#973,#974,#975,#976,#977,#978,#979,#980,#981,#982,#983,#984,#985,#986,
#987,#988,#989,#990,#991,#992,#993,#994,#995,#996,#997,#998,#999,#1000,
#1001,#1002,#1003,#1004,#1005,#1006,#1007,#1008,#1009,#1010,#1011,#1012,
#1013,#1014,#1015),.UNSPECIFIED.,.T.,.U.,(4,2,2,2,2,2,2,2,2,2,2,2,2,2,2,
2,2,2,2,2,2,2,2,2,2,2,2,2,2,2,2,2,4),(0.,0.0887756710645562,0.177551342129112,
0.266327013193668,0.355102684258225,0.471458507268607,0.58781433027899,
0.690106266361814,0.792398202444638,0.827098249657626,0.861798296870614,
0.896658463906374,0.931518630942134,1.01815722829506,1.10479582564798,1.35467779497523,
1.60455976430248,1.85444173362973,2.10432370295698,2.1909623003099,2.27760089766283,
2.31246106469859,2.34732123173435,2.38202127894733,2.41672132616032,2.51901326224315,
2.62130519832597,2.73766102133635,2.85401684434673,2.94279251541129,3.03156818647585,
3.1203438575404,3.20911952860496),.UNSPECIFIED.);
#299=B_SPLINE_CURVE_WITH_KNOTS('',3,(#1024,#1025,#1026,#1027,#1028,#1029,
#1030,#1031,#1032,#1033,#1034,#1035,#1036,#1037,#1038,#1039,#1040,#1041,
#1042,#1043,#1044,#1045,#1046,#1047,#1048,#1049,#1050,#1051,#1052,#1053,
#1054,#1055,#1056,#1057,#1058,#1059),.UNSPECIFIED.,.T.,.U.,(4,2,2,2,2,2,
2,2,2,2,2,2,2,2,2,2,2,4),(0.,0.00143205386899617,0.13418507795467,0.266938102040344,
0.375771429439852,0.484604756839361,0.570065469879314,0.655526182919267,
0.730197878370506,0.804869573821745,0.879541269272984,0.954212964724223,
1.03967367776418,1.12513439080413,1.25106277103412,1.3769911512641,1.62884791172408,
1.63027996559307),.UNSPECIFIED.);
#300=B_SPLINE_CURVE_WITH_KNOTS('',3,(#1069,#1070,#1071,#1072,#1073,#1074,
#1075,#1076,#1077,#1078,#1079,#1080,#1081,#1082,#1083,#1084,#1085,#1086,
#1087,#1088,#1089,#1090,#1091,#1092,#1093,#1094,#1095,#1096,#1097,#1098,
#1099,#1100,#1101,#1102,#1103,#1104,#1105,#1106,#1107,#1108,#1109,#1110,
#1111,#1112,#1113,#1114,#1115,#1116,#1117,#1118,#1119,#1120,#1121,#1122,
#1123,#1124,#1125,#1126,#1127,#1128,#1129,#1130,#1131,#1132,#1133,#1134),
 .UNSPECIFIED.,.T.,.U.,(4,2,2,2,2,2,2,2,2,2,2,2,2,2,2,2,2,2,2,2,2,2,2,2,
2,2,2,2,2,2,2,2,4),(0.,0.0887756710645561,0.177551342129112,0.266327013193668,
0.355102684258224,0.471458507268607,0.58781433027899,0.690106266361814,
0.792398202444637,0.827098249657626,0.861798296870614,0.896658463906374,
0.931518630942133,1.01815722829506,1.10479582564798,1.35467779497523,1.60455976430248,
1.85444173362973,2.10432370295698,2.1909623003099,2.27760089766282,2.31246106469858,
2.34732123173434,2.38202127894733,2.41672132616032,2.51901326224314,2.62130519832597,
2.73766102133635,2.85401684434673,2.94279251541129,3.03156818647584,3.1203438575404,
3.20911952860496),.UNSPECIFIED.);
#301=B_SPLINE_CURVE_WITH_KNOTS('',3,(#1139,#1140,#1141,#1142,#1143,#1144,
#1145,#1146,#1147,#1148,#1149,#1150,#1151,#1152,#1153,#1154,#1155,#1156,
#1157,#1158,#1159,#1160,#1161,#1162,#1163,#1164,#1165,#1166,#1167,#1168,
#1169,#1170,#1171,#1172,#1173,#1174),.UNSPECIFIED.,.T.,.U.,(4,2,2,2,2,2,
2,2,2,2,2,2,2,2,2,2,2,4),(0.,0.00143205386903065,0.253288814328928,0.379217194558876,
0.505145574788825,0.590606287828778,0.676067000868731,0.75073869631997,
0.825410391771209,0.900082087222447,0.974753782673686,1.06021449571364,
1.14567520875359,1.2545085361531,1.36334186355261,1.49609488763827,1.62884791172392,
1.63027996559295),.UNSPECIFIED.);
#302=B_SPLINE_CURVE_WITH_KNOTS('',3,(#1186,#1187,#1188,#1189,#1190,#1191,
#1192,#1193,#1194,#1195,#1196,#1197,#1198,#1199,#1200,#1201,#1202,#1203,
#1204,#1205,#1206,#1207,#1208,#1209,#1210,#1211,#1212,#1213,#1214,#1215,
#1216,#1217,#1218,#1219,#1220,#1221,#1222,#1223,#1224,#1225,#1226,#1227,
#1228,#1229,#1230,#1231,#1232,#1233,#1234,#1235,#1236,#1237,#1238,#1239,
#1240,#1241,#1242,#1243,#1244,#1245,#1246,#1247,#1248,#1249,#1250,#1251),
 .UNSPECIFIED.,.T.,.U.,(4,2,2,2,2,2,2,2,2,2,2,2,2,2,2,2,2,2,2,2,2,2,2,2,
2,2,2,2,2,2,2,2,4),(0.,0.0887756710645559,0.177551342129112,0.266327013193668,
0.355102684258223,0.471458507268606,0.587814330278988,0.690106266361812,
0.792398202444637,0.827098249657625,0.861798296870613,0.896658463906372,
0.931518630942132,1.01815722829505,1.10479582564798,1.35467779497523,1.60455976430248,
1.85444173362973,2.10432370295698,2.1909623003099,2.27760089766282,2.31246106469858,
2.34732123173434,2.38202127894733,2.41672132616032,2.51901326224314,2.62130519832597,
2.73766102133635,2.85401684434673,2.94279251541129,3.03156818647585,3.1203438575404,
3.20911952860496),.UNSPECIFIED.);
#303=B_SPLINE_CURVE_WITH_KNOTS('',3,(#1260,#1261,#1262,#1263,#1264,#1265,
#1266,#1267,#1268,#1269,#1270,#1271,#1272,#1273,#1274,#1275,#1276,#1277,
#1278,#1279,#1280,#1281,#1282,#1283,#1284,#1285,#1286,#1287,#1288,#1289,
#1290,#1291,#1292,#1293,#1294,#1295),.UNSPECIFIED.,.T.,.U.,(4,2,2,2,2,2,
2,2,2,2,2,2,2,2,2,2,2,4),(0.,0.00143205386902994,0.134185077954687,0.266938102040344,
0.375771429439853,0.484604756839361,0.568704703126013,0.652804649412665,
0.728827983251399,0.804851317090133,0.879523012541372,0.954194707992612,
1.03965542103256,1.12511613407252,1.25104451430247,1.37697289453242,1.62882965499231,
1.63026170886134),.UNSPECIFIED.);
#304=EDGE_CURVE('',#238,#239,#296,.F.);
#305=EDGE_CURVE('',#238,#240,#190,.T.);
#306=EDGE_CURVE('',#240,#241,#297,.T.);
#307=EDGE_CURVE('',#241,#242,#191,.T.);
#308=EDGE_CURVE('',#242,#243,#122,.T.);
#309=EDGE_CURVE('',#243,#239,#192,.T.);
#310=EDGE_CURVE('',#241,#244,#123,.F.);
#311=EDGE_CURVE('',#244,#245,#193,.T.);
#312=EDGE_CURVE('',#245,#242,#194,.T.);
#313=EDGE_CURVE('',#246,#247,#298,.F.);
#314=EDGE_CURVE('',#246,#248,#195,.T.);
#315=EDGE_CURVE('',#248,#249,#124,.T.);
#316=EDGE_CURVE('',#249,#250,#196,.T.);
#317=EDGE_CURVE('',#250,#251,#299,.T.);
#318=EDGE_CURVE('',#251,#247,#197,.T.);
#319=EDGE_CURVE('',#249,#252,#198,.T.);
#320=EDGE_CURVE('',#252,#253,#199,.T.);
#321=EDGE_CURVE('',#250,#253,#125,.T.);
#322=EDGE_CURVE('',#254,#255,#300,.F.);
#323=EDGE_CURVE('',#254,#256,#200,.T.);
#324=EDGE_CURVE('',#256,#257,#301,.T.);
#325=EDGE_CURVE('',#257,#258,#201,.T.);
#326=EDGE_CURVE('',#258,#259,#126,.T.);
#327=EDGE_CURVE('',#259,#255,#202,.T.);
#328=EDGE_CURVE('',#257,#260,#127,.F.);
#329=EDGE_CURVE('',#260,#261,#199,.T.);
#330=EDGE_CURVE('',#261,#258,#203,.T.);
#331=EDGE_CURVE('',#262,#263,#302,.F.);
#332=EDGE_CURVE('',#262,#264,#204,.T.);
#333=EDGE_CURVE('',#264,#265,#128,.T.);
#334=EDGE_CURVE('',#265,#266,#205,.T.);
#335=EDGE_CURVE('',#266,#267,#303,.T.);
#336=EDGE_CURVE('',#267,#263,#206,.T.);
#337=EDGE_CURVE('',#265,#268,#207,.T.);
#338=EDGE_CURVE('',#268,#269,#193,.T.);
#339=EDGE_CURVE('',#266,#269,#129,.T.);
#340=EDGE_CURVE('',#256,#267,#208,.T.);
#341=EDGE_CURVE('',#269,#260,#209,.T.);
#342=EDGE_CURVE('',#240,#251,#210,.T.);
#343=EDGE_CURVE('',#253,#244,#211,.T.);
#344=EDGE_CURVE('',#270,#270,#130,.T.);
#345=EDGE_CURVE('',#271,#262,#131,.T.);
#346=EDGE_CURVE('',#263,#271,#131,.T.);
#347=EDGE_CURVE('',#272,#272,#132,.T.);
#348=EDGE_CURVE('',#273,#238,#133,.T.);
#349=EDGE_CURVE('',#239,#273,#133,.T.);
#350=EDGE_CURVE('',#274,#274,#134,.T.);
#351=EDGE_CURVE('',#247,#246,#135,.T.);
#352=EDGE_CURVE('',#275,#275,#136,.T.);
#353=EDGE_CURVE('',#255,#254,#137,.T.);
#354=EDGE_CURVE('',#276,#276,#138,.T.);
#355=EDGE_CURVE('',#277,#277,#139,.T.);
#356=EDGE_CURVE('',#278,#278,#140,.T.);
#357=EDGE_CURVE('',#279,#279,#141,.T.);
#358=EDGE_CURVE('',#243,#280,#212,.T.);
#359=EDGE_CURVE('',#281,#280,#213,.T.);
#360=EDGE_CURVE('',#282,#281,#214,.T.);
#361=EDGE_CURVE('',#283,#282,#215,.T.);
#362=EDGE_CURVE('',#284,#283,#216,.T.);
#363=EDGE_CURVE('',#285,#284,#213,.T.);
#364=EDGE_CURVE('',#285,#264,#217,.T.);
#365=EDGE_CURVE('',#259,#286,#218,.T.);
#366=EDGE_CURVE('',#286,#287,#219,.T.);
#367=EDGE_CURVE('',#287,#248,#220,.T.);
#368=EDGE_CURVE('',#288,#286,#221,.T.);
#369=EDGE_CURVE('',#289,#288,#222,.T.);
#370=EDGE_CURVE('',#289,#287,#223,.T.);
#371=EDGE_CURVE('',#290,#289,#224,.T.);
#372=EDGE_CURVE('',#280,#290,#225,.T.);
#373=EDGE_CURVE('',#252,#245,#226,.T.);
#374=EDGE_CURVE('',#268,#261,#227,.T.);
#375=EDGE_CURVE('',#291,#285,#228,.T.);
#376=EDGE_CURVE('',#288,#291,#229,.T.);
#377=EDGE_CURVE('',#292,#290,#230,.T.);
#378=EDGE_CURVE('',#292,#281,#231,.T.);
#379=EDGE_CURVE('',#293,#284,#232,.T.);
#380=EDGE_CURVE('',#291,#293,#230,.T.);
#381=EDGE_CURVE('',#293,#294,#233,.T.);
#382=EDGE_CURVE('',#294,#295,#234,.T.);
#383=EDGE_CURVE('',#295,#292,#235,.T.);
#384=EDGE_CURVE('',#295,#282,#236,.T.);
#385=EDGE_CURVE('',#294,#283,#237,.T.);
#386=ORIENTED_EDGE('',*,*,#304,.F.);
#387=ORIENTED_EDGE('',*,*,#305,.T.);
#388=ORIENTED_EDGE('',*,*,#306,.T.);
#389=ORIENTED_EDGE('',*,*,#307,.T.);
#390=ORIENTED_EDGE('',*,*,#308,.T.);
#391=ORIENTED_EDGE('',*,*,#309,.T.);
#392=ORIENTED_EDGE('',*,*,#307,.F.);
#393=ORIENTED_EDGE('',*,*,#310,.T.);
#394=ORIENTED_EDGE('',*,*,#311,.T.);
#395=ORIENTED_EDGE('',*,*,#312,.T.);
#396=ORIENTED_EDGE('',*,*,#313,.F.);
#397=ORIENTED_EDGE('',*,*,#314,.T.);
#398=ORIENTED_EDGE('',*,*,#315,.T.);
#399=ORIENTED_EDGE('',*,*,#316,.T.);
#400=ORIENTED_EDGE('',*,*,#317,.T.);
#401=ORIENTED_EDGE('',*,*,#318,.T.);
#402=ORIENTED_EDGE('',*,*,#316,.F.);
#403=ORIENTED_EDGE('',*,*,#319,.T.);
#404=ORIENTED_EDGE('',*,*,#320,.T.);
#405=ORIENTED_EDGE('',*,*,#321,.F.);
#406=ORIENTED_EDGE('',*,*,#322,.F.);
#407=ORIENTED_EDGE('',*,*,#323,.T.);
#408=ORIENTED_EDGE('',*,*,#324,.T.);
#409=ORIENTED_EDGE('',*,*,#325,.T.);
#410=ORIENTED_EDGE('',*,*,#326,.T.);
#411=ORIENTED_EDGE('',*,*,#327,.T.);
#412=ORIENTED_EDGE('',*,*,#325,.F.);
#413=ORIENTED_EDGE('',*,*,#328,.T.);
#414=ORIENTED_EDGE('',*,*,#329,.T.);
#415=ORIENTED_EDGE('',*,*,#330,.T.);
#416=ORIENTED_EDGE('',*,*,#331,.F.);
#417=ORIENTED_EDGE('',*,*,#332,.T.);
#418=ORIENTED_EDGE('',*,*,#333,.T.);
#419=ORIENTED_EDGE('',*,*,#334,.T.);
#420=ORIENTED_EDGE('',*,*,#335,.T.);
#421=ORIENTED_EDGE('',*,*,#336,.T.);
#422=ORIENTED_EDGE('',*,*,#334,.F.);
#423=ORIENTED_EDGE('',*,*,#337,.T.);
#424=ORIENTED_EDGE('',*,*,#338,.T.);
#425=ORIENTED_EDGE('',*,*,#339,.F.);
#426=ORIENTED_EDGE('',*,*,#328,.F.);
#427=ORIENTED_EDGE('',*,*,#324,.F.);
#428=ORIENTED_EDGE('',*,*,#340,.T.);
#429=ORIENTED_EDGE('',*,*,#335,.F.);
#430=ORIENTED_EDGE('',*,*,#339,.T.);
#431=ORIENTED_EDGE('',*,*,#341,.T.);
#432=ORIENTED_EDGE('',*,*,#310,.F.);
#433=ORIENTED_EDGE('',*,*,#306,.F.);
#434=ORIENTED_EDGE('',*,*,#342,.T.);
#435=ORIENTED_EDGE('',*,*,#317,.F.);
#436=ORIENTED_EDGE('',*,*,#321,.T.);
#437=ORIENTED_EDGE('',*,*,#343,.T.);
#438=ORIENTED_EDGE('',*,*,#344,.F.);
#439=ORIENTED_EDGE('',*,*,#345,.T.);
#440=ORIENTED_EDGE('',*,*,#331,.T.);
#441=ORIENTED_EDGE('',*,*,#346,.T.);
#442=ORIENTED_EDGE('',*,*,#347,.F.);
#443=ORIENTED_EDGE('',*,*,#348,.T.);
#444=ORIENTED_EDGE('',*,*,#304,.T.);
#445=ORIENTED_EDGE('',*,*,#349,.T.);
#446=ORIENTED_EDGE('',*,*,#350,.F.);
#447=ORIENTED_EDGE('',*,*,#313,.T.);
#448=ORIENTED_EDGE('',*,*,#351,.T.);
#449=ORIENTED_EDGE('',*,*,#352,.F.);
#450=ORIENTED_EDGE('',*,*,#322,.T.);
#451=ORIENTED_EDGE('',*,*,#353,.T.);
#452=ORIENTED_EDGE('',*,*,#354,.F.);
#453=ORIENTED_EDGE('',*,*,#355,.T.);
#454=ORIENTED_EDGE('',*,*,#356,.F.);
#455=ORIENTED_EDGE('',*,*,#357,.T.);
#456=ORIENTED_EDGE('',*,*,#309,.F.);
#457=ORIENTED_EDGE('',*,*,#358,.T.);
#458=ORIENTED_EDGE('',*,*,#359,.F.);
#459=ORIENTED_EDGE('',*,*,#360,.F.);
#460=ORIENTED_EDGE('',*,*,#361,.F.);
#461=ORIENTED_EDGE('',*,*,#362,.F.);
#462=ORIENTED_EDGE('',*,*,#363,.F.);
#463=ORIENTED_EDGE('',*,*,#364,.T.);
#464=ORIENTED_EDGE('',*,*,#332,.F.);
#465=ORIENTED_EDGE('',*,*,#345,.F.);
#466=ORIENTED_EDGE('',*,*,#346,.F.);
#467=ORIENTED_EDGE('',*,*,#336,.F.);
#468=ORIENTED_EDGE('',*,*,#340,.F.);
#469=ORIENTED_EDGE('',*,*,#323,.F.);
#470=ORIENTED_EDGE('',*,*,#353,.F.);
#471=ORIENTED_EDGE('',*,*,#327,.F.);
#472=ORIENTED_EDGE('',*,*,#365,.T.);
#473=ORIENTED_EDGE('',*,*,#366,.T.);
#474=ORIENTED_EDGE('',*,*,#367,.T.);
#475=ORIENTED_EDGE('',*,*,#314,.F.);
#476=ORIENTED_EDGE('',*,*,#351,.F.);
#477=ORIENTED_EDGE('',*,*,#318,.F.);
#478=ORIENTED_EDGE('',*,*,#342,.F.);
#479=ORIENTED_EDGE('',*,*,#305,.F.);
#480=ORIENTED_EDGE('',*,*,#348,.F.);
#481=ORIENTED_EDGE('',*,*,#349,.F.);
#482=ORIENTED_EDGE('',*,*,#357,.F.);
#483=ORIENTED_EDGE('',*,*,#355,.F.);
#484=ORIENTED_EDGE('',*,*,#366,.F.);
#485=ORIENTED_EDGE('',*,*,#368,.F.);
#486=ORIENTED_EDGE('',*,*,#369,.F.);
#487=ORIENTED_EDGE('',*,*,#370,.T.);
#488=ORIENTED_EDGE('',*,*,#367,.F.);
#489=ORIENTED_EDGE('',*,*,#370,.F.);
#490=ORIENTED_EDGE('',*,*,#371,.F.);
#491=ORIENTED_EDGE('',*,*,#372,.F.);
#492=ORIENTED_EDGE('',*,*,#358,.F.);
#493=ORIENTED_EDGE('',*,*,#308,.F.);
#494=ORIENTED_EDGE('',*,*,#312,.F.);
#495=ORIENTED_EDGE('',*,*,#373,.F.);
#496=ORIENTED_EDGE('',*,*,#319,.F.);
#497=ORIENTED_EDGE('',*,*,#315,.F.);
#498=ORIENTED_EDGE('',*,*,#365,.F.);
#499=ORIENTED_EDGE('',*,*,#326,.F.);
#500=ORIENTED_EDGE('',*,*,#330,.F.);
#501=ORIENTED_EDGE('',*,*,#374,.F.);
#502=ORIENTED_EDGE('',*,*,#337,.F.);
#503=ORIENTED_EDGE('',*,*,#333,.F.);
#504=ORIENTED_EDGE('',*,*,#364,.F.);
#505=ORIENTED_EDGE('',*,*,#375,.F.);
#506=ORIENTED_EDGE('',*,*,#376,.F.);
#507=ORIENTED_EDGE('',*,*,#368,.T.);
#508=ORIENTED_EDGE('',*,*,#373,.T.);
#509=ORIENTED_EDGE('',*,*,#311,.F.);
#510=ORIENTED_EDGE('',*,*,#343,.F.);
#511=ORIENTED_EDGE('',*,*,#320,.F.);
#512=ORIENTED_EDGE('',*,*,#372,.T.);
#513=ORIENTED_EDGE('',*,*,#377,.F.);
#514=ORIENTED_EDGE('',*,*,#378,.T.);
#515=ORIENTED_EDGE('',*,*,#359,.T.);
#516=ORIENTED_EDGE('',*,*,#375,.T.);
#517=ORIENTED_EDGE('',*,*,#363,.T.);
#518=ORIENTED_EDGE('',*,*,#379,.F.);
#519=ORIENTED_EDGE('',*,*,#380,.F.);
#520=ORIENTED_EDGE('',*,*,#376,.T.);
#521=ORIENTED_EDGE('',*,*,#380,.T.);
#522=ORIENTED_EDGE('',*,*,#381,.T.);
#523=ORIENTED_EDGE('',*,*,#382,.T.);
#524=ORIENTED_EDGE('',*,*,#383,.T.);
#525=ORIENTED_EDGE('',*,*,#377,.T.);
#526=ORIENTED_EDGE('',*,*,#371,.T.);
#527=ORIENTED_EDGE('',*,*,#369,.T.);
#528=ORIENTED_EDGE('',*,*,#354,.T.);
#529=ORIENTED_EDGE('',*,*,#352,.T.);
#530=ORIENTED_EDGE('',*,*,#347,.T.);
#531=ORIENTED_EDGE('',*,*,#344,.T.);
#532=ORIENTED_EDGE('',*,*,#356,.T.);
#533=ORIENTED_EDGE('',*,*,#350,.T.);
#534=ORIENTED_EDGE('',*,*,#374,.T.);
#535=ORIENTED_EDGE('',*,*,#329,.F.);
#536=ORIENTED_EDGE('',*,*,#341,.F.);
#537=ORIENTED_EDGE('',*,*,#338,.F.);
#538=ORIENTED_EDGE('',*,*,#360,.T.);
#539=ORIENTED_EDGE('',*,*,#378,.F.);
#540=ORIENTED_EDGE('',*,*,#383,.F.);
#541=ORIENTED_EDGE('',*,*,#384,.T.);
#542=ORIENTED_EDGE('',*,*,#362,.T.);
#543=ORIENTED_EDGE('',*,*,#385,.F.);
#544=ORIENTED_EDGE('',*,*,#381,.F.);
#545=ORIENTED_EDGE('',*,*,#379,.T.);
#546=ORIENTED_EDGE('',*,*,#361,.T.);
#547=ORIENTED_EDGE('',*,*,#384,.F.);
#548=ORIENTED_EDGE('',*,*,#382,.F.);
#549=ORIENTED_EDGE('',*,*,#385,.T.);
#550=EDGE_LOOP('',(#386,#387,#388,#389,#390,#391));
#551=EDGE_LOOP('',(#392,#393,#394,#395));
#552=EDGE_LOOP('',(#396,#397,#398,#399,#400,#401));
#553=EDGE_LOOP('',(#402,#403,#404,#405));
#554=EDGE_LOOP('',(#406,#407,#408,#409,#410,#411));
#555=EDGE_LOOP('',(#412,#413,#414,#415));
#556=EDGE_LOOP('',(#416,#417,#418,#419,#420,#421));
#557=EDGE_LOOP('',(#422,#423,#424,#425));
#558=EDGE_LOOP('',(#426,#427,#428,#429,#430,#431));
#559=EDGE_LOOP('',(#432,#433,#434,#435,#436,#437));
#560=EDGE_LOOP('',(#438));
#561=EDGE_LOOP('',(#439,#440,#441));
#562=EDGE_LOOP('',(#442));
#563=EDGE_LOOP('',(#443,#444,#445));
#564=EDGE_LOOP('',(#446));
#565=EDGE_LOOP('',(#447,#448));
#566=EDGE_LOOP('',(#449));
#567=EDGE_LOOP('',(#450,#451));
#568=EDGE_LOOP('',(#452));
#569=EDGE_LOOP('',(#453));
#570=EDGE_LOOP('',(#454));
#571=EDGE_LOOP('',(#455));
#572=EDGE_LOOP('',(#456,#457,#458,#459,#460,#461,#462,#463,#464,#465,#466,
#467,#468,#469,#470,#471,#472,#473,#474,#475,#476,#477,#478,#479,#480,#481));
#573=EDGE_LOOP('',(#482));
#574=EDGE_LOOP('',(#483));
#575=EDGE_LOOP('',(#484,#485,#486,#487));
#576=EDGE_LOOP('',(#488,#489,#490,#491,#492,#493,#494,#495,#496,#497));
#577=EDGE_LOOP('',(#498,#499,#500,#501,#502,#503,#504,#505,#506,#507));
#578=EDGE_LOOP('',(#508,#509,#510,#511));
#579=EDGE_LOOP('',(#512,#513,#514,#515));
#580=EDGE_LOOP('',(#516,#517,#518,#519));
#581=EDGE_LOOP('',(#520,#521,#522,#523,#524,#525,#526,#527));
#582=EDGE_LOOP('',(#528));
#583=EDGE_LOOP('',(#529));
#584=EDGE_LOOP('',(#530));
#585=EDGE_LOOP('',(#531));
#586=EDGE_LOOP('',(#532));
#587=EDGE_LOOP('',(#533));
#588=EDGE_LOOP('',(#534,#535,#536,#537));
#589=EDGE_LOOP('',(#538,#539,#540,#541));
#590=EDGE_LOOP('',(#542,#543,#544,#545));
#591=EDGE_LOOP('',(#546,#547,#548,#549));
#592=FACE_BOUND('',#550,.T.);
#593=FACE_BOUND('',#551,.T.);
#594=FACE_BOUND('',#552,.T.);
#595=FACE_BOUND('',#553,.T.);
#596=FACE_BOUND('',#554,.T.);
#597=FACE_BOUND('',#555,.T.);
#598=FACE_BOUND('',#556,.T.);
#599=FACE_BOUND('',#557,.T.);
#600=FACE_BOUND('',#558,.T.);
#601=FACE_BOUND('',#559,.T.);
#602=FACE_BOUND('',#560,.T.);
#603=FACE_BOUND('',#561,.T.);
#604=FACE_BOUND('',#562,.T.);
#605=FACE_BOUND('',#563,.T.);
#606=FACE_BOUND('',#564,.T.);
#607=FACE_BOUND('',#565,.T.);
#608=FACE_BOUND('',#566,.T.);
#609=FACE_BOUND('',#567,.T.);
#610=FACE_BOUND('',#568,.T.);
#611=FACE_BOUND('',#569,.T.);
#612=FACE_BOUND('',#570,.T.);
#613=FACE_BOUND('',#571,.T.);
#614=FACE_BOUND('',#572,.T.);
#615=FACE_BOUND('',#573,.T.);
#616=FACE_BOUND('',#574,.T.);
#617=FACE_BOUND('',#575,.T.);
#618=FACE_BOUND('',#576,.T.);
#619=FACE_BOUND('',#577,.T.);
#620=FACE_BOUND('',#578,.T.);
#621=FACE_BOUND('',#579,.T.);
#622=FACE_BOUND('',#580,.T.);
#623=FACE_BOUND('',#581,.T.);
#624=FACE_BOUND('',#582,.T.);
#625=FACE_BOUND('',#583,.T.);
#626=FACE_BOUND('',#584,.T.);
#627=FACE_BOUND('',#585,.T.);
#628=FACE_BOUND('',#586,.T.);
#629=FACE_BOUND('',#587,.T.);
#630=FACE_BOUND('',#588,.T.);
#631=FACE_BOUND('',#589,.T.);
#632=FACE_BOUND('',#590,.T.);
#633=FACE_BOUND('',#591,.T.);
#634=ADVANCED_FACE('',(#592),#1388,.F.);
#635=ADVANCED_FACE('',(#593),#110,.T.);
#636=ADVANCED_FACE('',(#594),#1389,.F.);
#637=ADVANCED_FACE('',(#595),#111,.T.);
#638=ADVANCED_FACE('',(#596),#1390,.F.);
#639=ADVANCED_FACE('',(#597),#111,.T.);
#640=ADVANCED_FACE('',(#598),#1391,.F.);
#641=ADVANCED_FACE('',(#599),#110,.T.);
#642=ADVANCED_FACE('',(#600),#1392,.F.);
#643=ADVANCED_FACE('',(#601),#1393,.F.);
#644=ADVANCED_FACE('',(#602,#603),#104,.F.);
#645=ADVANCED_FACE('',(#604,#605),#105,.F.);
#646=ADVANCED_FACE('',(#606,#607),#106,.F.);
#647=ADVANCED_FACE('',(#608,#609),#107,.F.);
#648=ADVANCED_FACE('',(#610,#611),#108,.F.);
#649=ADVANCED_FACE('',(#612,#613),#109,.F.);
#650=ADVANCED_FACE('',(#614,#615,#616),#112,.T.);
#651=ADVANCED_FACE('',(#617),#113,.F.);
#652=ADVANCED_FACE('',(#618),#114,.F.);
#653=ADVANCED_FACE('',(#619),#115,.F.);
#654=ADVANCED_FACE('',(#620),#116,.T.);
#655=ADVANCED_FACE('',(#621),#117,.T.);
#656=ADVANCED_FACE('',(#622),#117,.T.);
#657=ADVANCED_FACE('',(#623,#624,#625,#626,#627,#628,#629),#118,.F.);
#658=ADVANCED_FACE('',(#630),#116,.T.);
#659=ADVANCED_FACE('',(#631),#119,.T.);
#660=ADVANCED_FACE('',(#632),#120,.T.);
#661=ADVANCED_FACE('',(#633),#121,.T.);
#662=AXIS2_PLACEMENT_3D('',#830,#706,#707);
#663=AXIS2_PLACEMENT_3D('',#940,#710,#711);
#664=AXIS2_PLACEMENT_3D('',#943,#713,$);
#665=AXIS2_PLACEMENT_3D('',#944,#714,#715);
#666=AXIS2_PLACEMENT_3D('',#949,#718,#719);
#667=AXIS2_PLACEMENT_3D('',#1020,#721,#722);
#668=AXIS2_PLACEMENT_3D('',#1062,#725,$);
#669=AXIS2_PLACEMENT_3D('',#1067,#728,#729);
#670=AXIS2_PLACEMENT_3D('',#1068,#730,#731);
#671=AXIS2_PLACEMENT_3D('',#1178,#734,#735);
#672=AXIS2_PLACEMENT_3D('',#1181,#737,#738);
#673=AXIS2_PLACEMENT_3D('',#1185,#740,#741);
#674=AXIS2_PLACEMENT_3D('',#1256,#743,#744);
#675=AXIS2_PLACEMENT_3D('',#1301,#748,#749);
#676=AXIS2_PLACEMENT_3D('',#1302,#750,#751);
#677=AXIS2_PLACEMENT_3D('',#1305,#754,#755);
#678=AXIS2_PLACEMENT_3D('',#1308,#758,#759);
#679=AXIS2_PLACEMENT_3D('',#1309,#760,#761);
#680=AXIS2_PLACEMENT_3D('',#1311,#762,#763);
#681=AXIS2_PLACEMENT_3D('',#1313,#764,#765);
#682=AXIS2_PLACEMENT_3D('',#1314,#766,#767);
#683=AXIS2_PLACEMENT_3D('',#1316,#768,#769);
#684=AXIS2_PLACEMENT_3D('',#1318,#770,#771);
#685=AXIS2_PLACEMENT_3D('',#1319,#772,#773);
#686=AXIS2_PLACEMENT_3D('',#1321,#774,#775);
#687=AXIS2_PLACEMENT_3D('',#1322,#776,#777);
#688=AXIS2_PLACEMENT_3D('',#1323,#778,#779);
#689=AXIS2_PLACEMENT_3D('',#1325,#780,#781);
#690=AXIS2_PLACEMENT_3D('',#1326,#782,#783);
#691=AXIS2_PLACEMENT_3D('',#1327,#784,#785);
#692=AXIS2_PLACEMENT_3D('',#1329,#786,#787);
#693=AXIS2_PLACEMENT_3D('',#1331,#788,#789);
#694=AXIS2_PLACEMENT_3D('',#1332,#790,#791);
#695=AXIS2_PLACEMENT_3D('',#1334,#792,#793);
#696=AXIS2_PLACEMENT_3D('',#1336,#794,$);
#697=AXIS2_PLACEMENT_3D('',#1354,#804,$);
#698=AXIS2_PLACEMENT_3D('',#1360,#808,$);
#699=AXIS2_PLACEMENT_3D('',#1365,#812,$);
#700=AXIS2_PLACEMENT_3D('',#1370,#816,$);
#701=AXIS2_PLACEMENT_3D('',#1371,#817,$);
#702=AXIS2_PLACEMENT_3D('',#1377,#821,$);
#703=AXIS2_PLACEMENT_3D('',#1383,#825,$);
#704=AXIS2_PLACEMENT_3D('',#1385,#827,$);
#705=AXIS2_PLACEMENT_3D('',#1387,#829,$);
#706=DIRECTION('',(-8.20867301016751E-16,-1.,0.));
#707=DIRECTION('',(-0.141421356237309,0.,-0.14142135623731));
#708=DIRECTION('',(8.20867301016751E-16,1.,0.));
#709=DIRECTION('',(-8.20867301016751E-16,-1.,0.));
#710=DIRECTION('',(3.41607084500048E-17,-1.,0.));
#711=DIRECTION('',(-0.141421356237309,0.,-0.14142135623731));
#712=DIRECTION('',(8.20867301016751E-16,1.,0.));
#713=DIRECTION('',(1.,-8.20867301016751E-16,0.));
#714=DIRECTION('',(1.,-8.20867301016751E-16,0.));
#715=DIRECTION('',(0.,-0.489897948556635,-0.1));
#716=DIRECTION('',(-8.20867301016751E-16,-1.,0.));
#717=DIRECTION('',(0.,0.,-1.));
#718=DIRECTION('',(-2.05216825254188E-16,1.,0.));
#719=DIRECTION('',(0.141421356237309,0.,-0.14142135623731));
#720=DIRECTION('',(2.05216825254188E-16,-1.,0.));
#721=DIRECTION('',(3.41607084500048E-17,-1.,0.));
#722=DIRECTION('',(0.141421356237309,0.,-0.14142135623731));
#723=DIRECTION('',(-2.05216825254188E-16,1.,0.));
#724=DIRECTION('',(2.05216825254188E-16,-1.,0.));
#725=DIRECTION('',(-1.,-2.05216825254188E-16,0.));
#726=DIRECTION('',(0.,0.,1.));
#727=DIRECTION('',(-2.05216825254188E-16,1.,0.));
#728=DIRECTION('',(-1.,-2.05216825254188E-16,0.));
#729=DIRECTION('',(0.,-0.489897948556635,-0.1));
#730=DIRECTION('',(-2.05216825254188E-16,1.,0.));
#731=DIRECTION('',(0.141421356237309,0.,-0.14142135623731));
#732=DIRECTION('',(2.05216825254188E-16,-1.,0.));
#733=DIRECTION('',(-2.05216825254188E-16,1.,0.));
#734=DIRECTION('',(-3.41607084500048E-17,1.,0.));
#735=DIRECTION('',(0.141421356237309,0.,-0.14142135623731));
#736=DIRECTION('',(2.05216825254188E-16,-1.,0.));
#737=DIRECTION('',(-1.,-2.05216825254188E-16,0.));
#738=DIRECTION('',(0.,0.489897948556636,-0.1));
#739=DIRECTION('',(0.,0.,-1.));
#740=DIRECTION('',(-8.20867301016751E-16,-1.,0.));
#741=DIRECTION('',(-0.141421356237309,0.,-0.14142135623731));
#742=DIRECTION('',(8.20867301016751E-16,1.,0.));
#743=DIRECTION('',(-3.41607084500048E-17,1.,0.));
#744=DIRECTION('',(-0.141421356237309,0.,-0.14142135623731));
#745=DIRECTION('',(-8.20867301016751E-16,-1.,0.));
#746=DIRECTION('',(8.20867301016751E-16,1.,0.));
#747=DIRECTION('',(0.,0.,1.));
#748=DIRECTION('',(1.,-8.20867301016751E-16,0.));
#749=DIRECTION('',(0.,0.489897948556636,-0.1));
#750=DIRECTION('',(-1.,-1.72701359386135E-16,0.));
#751=DIRECTION('',(0.,0.489897948556636,-0.1));
#752=DIRECTION('',(1.,1.72701359386135E-16,0.));
#753=DIRECTION('',(-1.,-1.72701359386135E-16,0.));
#754=DIRECTION('',(1.,1.97372982155583E-16,0.));
#755=DIRECTION('',(0.,-0.489897948556635,-0.1));
#756=DIRECTION('',(-1.,-1.97372982155583E-16,0.));
#757=DIRECTION('',(1.,1.97372982155583E-16,0.));
#758=DIRECTION('',(0.,0.,1.));
#759=DIRECTION('',(-0.26,0.,0.));
#760=DIRECTION('',(0.,0.,1.));
#761=DIRECTION('',(0.16,0.,0.));
#762=DIRECTION('',(0.,0.,1.));
#763=DIRECTION('',(-0.26,0.,0.));
#764=DIRECTION('',(0.,0.,1.));
#765=DIRECTION('',(-0.26,0.,0.));
#766=DIRECTION('',(0.,0.,1.));
#767=DIRECTION('',(0.16,0.,0.));
#768=DIRECTION('',(0.,0.,1.));
#769=DIRECTION('',(-0.26,0.,0.));
#770=DIRECTION('',(0.,0.,1.));
#771=DIRECTION('',(-0.26,0.,0.));
#772=DIRECTION('',(0.,0.,1.));
#773=DIRECTION('',(0.16,0.,0.));
#774=DIRECTION('',(0.,0.,1.));
#775=DIRECTION('',(-0.26,0.,0.));
#776=DIRECTION('',(0.,0.,1.));
#777=DIRECTION('',(-0.26,0.,0.));
#778=DIRECTION('',(0.,0.,1.));
#779=DIRECTION('',(0.16,0.,0.));
#780=DIRECTION('',(0.,0.,1.));
#781=DIRECTION('',(-0.26,0.,0.));
#782=DIRECTION('',(0.,0.,1.));
#783=DIRECTION('',(-0.26,0.,0.));
#784=DIRECTION('',(0.,0.,1.));
#785=DIRECTION('',(0.16,0.,0.));
#786=DIRECTION('',(0.,0.,1.));
#787=DIRECTION('',(-0.26,0.,0.));
#788=DIRECTION('',(0.,0.,1.));
#789=DIRECTION('',(-0.26,0.,0.));
#790=DIRECTION('',(0.,0.,1.));
#791=DIRECTION('',(0.16,0.,0.));
#792=DIRECTION('',(0.,0.,1.));
#793=DIRECTION('',(-0.26,0.,0.));
#794=DIRECTION('',(0.,0.,1.));
#795=DIRECTION('',(1.,3.41607084500048E-17,0.));
#796=DIRECTION('',(0.,-1.,0.));
#797=DIRECTION('',(1.,1.30614473485313E-16,0.));
#798=DIRECTION('',(-1.22464679914735E-16,1.,0.));
#799=DIRECTION('',(-1.,0.,0.));
#800=DIRECTION('',(-1.,-3.41607084500048E-17,0.));
#801=DIRECTION('',(-1.,-3.41607084500048E-17,0.));
#802=DIRECTION('',(-1.44184808392877E-16,1.,0.));
#803=DIRECTION('',(1.,3.41607084500048E-17,0.));
#804=DIRECTION('',(-1.,-1.44184808392877E-16,0.));
#805=DIRECTION('',(0.,0.,1.));
#806=DIRECTION('',(1.44184808392877E-16,-1.,0.));
#807=DIRECTION('',(0.,0.,1.));
#808=DIRECTION('',(-3.41607084500048E-17,1.,0.));
#809=DIRECTION('',(-1.,-3.41607084500048E-17,0.));
#810=DIRECTION('',(0.,0.,-1.));
#811=DIRECTION('',(1.,3.41607084500048E-17,6.90453160088409E-33));
#812=DIRECTION('',(3.41607084500048E-17,-1.,0.));
#813=DIRECTION('',(-1.,-3.41607084500048E-17,-6.90453160088409E-33));
#814=DIRECTION('',(0.,0.,1.));
#815=DIRECTION('',(1.,3.41607084500048E-17,0.));
#816=DIRECTION('',(-6.90453160088409E-33,-7.4249399948135E-32,1.));
#817=DIRECTION('',(1.,0.,0.));
#818=DIRECTION('',(0.,-1.,0.));
#819=DIRECTION('',(0.,0.,1.));
#820=DIRECTION('',(0.,0.,1.));
#821=DIRECTION('',(0.,0.,1.));
#822=DIRECTION('',(-1.,0.,0.));
#823=DIRECTION('',(-1.22464679914735E-16,1.,0.));
#824=DIRECTION('',(1.,1.30614473485313E-16,0.));
#825=DIRECTION('',(-1.30614473485313E-16,1.,0.));
#826=DIRECTION('',(0.,0.,1.));
#827=DIRECTION('',(0.,-1.,0.));
#828=DIRECTION('',(0.,0.,1.));
#829=DIRECTION('',(-1.,-1.22464679914735E-16,0.));
#830=CARTESIAN_POINT('',(5.85,2.269,0.3));
#831=CARTESIAN_POINT('',(5.83973647660748,1.9,0.100263523392518));
#832=CARTESIAN_POINT('',(5.83973647660748,1.92959189035485,0.100263523392518));
#833=CARTESIAN_POINT('',(5.84516436961858,1.95869027950469,0.0998256858171849));
#834=CARTESIAN_POINT('',(5.86446033666686,2.01466636912601,0.100290124661703));
#835=CARTESIAN_POINT('',(5.87830359407569,2.04155135028757,0.101334695655964));
#836=CARTESIAN_POINT('',(5.91027418209186,2.09245225826672,0.108596108083692));
#837=CARTESIAN_POINT('',(5.92845506652781,2.11656492935321,0.114929884707327));
#838=CARTESIAN_POINT('',(5.96380027314015,2.16230748534477,0.134302550701587));
#839=CARTESIAN_POINT('',(5.98086425122972,2.18402314842103,0.147321748204932));
#840=CARTESIAN_POINT('',(6.01404232982481,2.23246903673343,0.182359551469815));
#841=CARTESIAN_POINT('',(6.03013730287096,2.26184046671347,0.208264394247265));
#842=CARTESIAN_POINT('',(6.04892012731795,2.32114195562382,0.264003602633544));
#843=CARTESIAN_POINT('',(6.05179449427749,2.35113727876979,0.293705427648577));
#844=CARTESIAN_POINT('',(6.04631889765729,2.40238133734476,0.34524119869726));
#845=CARTESIAN_POINT('',(6.03891422908724,2.42793133299369,0.371355797688008));
#846=CARTESIAN_POINT('',(6.0121350813478,2.47378569639474,0.420384604009408));
#847=CARTESIAN_POINT('',(5.99296662838454,2.494171138076,0.443335259825538));
#848=CARTESIAN_POINT('',(5.95897655658338,2.5120473246829,0.468039861802237));
#849=CARTESIAN_POINT('',(5.94876010202266,2.51613094868393,0.474343732446415));
#850=CARTESIAN_POINT('',(5.92680241689848,2.52146280214483,0.485069403025934));
#851=CARTESIAN_POINT('',(5.91504802660034,2.52268029961885,0.489479510223488));
#852=CARTESIAN_POINT('',(5.89272438045426,2.52219926436924,0.495728370180248));
#853=CARTESIAN_POINT('',(5.88039042178146,2.52044541049788,0.498047097323525));
#854=CARTESIAN_POINT('',(5.85630726909622,2.51377509138083,0.500265944747967));
#855=CARTESIAN_POINT('',(5.84455484625476,2.50887844072313,0.500190473888146));
#856=CARTESIAN_POINT('',(5.80880308506235,2.49006090009785,0.497374736840645));
#857=CARTESIAN_POINT('',(5.7859197516334,2.47052976161013,0.490658956943414));
#858=CARTESIAN_POINT('',(5.74706503649027,2.42599656292158,0.472804822547623));
#859=CARTESIAN_POINT('',(5.73110734545607,2.40098369448671,0.461663637098582));
#860=CARTESIAN_POINT('',(5.68291074644068,2.30878576718873,0.41971689546046));
#861=CARTESIAN_POINT('',(5.66433619259053,2.23038541195774,0.381607809390676));
#862=CARTESIAN_POINT('',(5.64785594723092,2.0677433379999,0.316397616959321));
#863=CARTESIAN_POINT('',(5.65026352339252,1.98329398977575,0.289736476607479));
#864=CARTESIAN_POINT('',(5.65026352339252,1.81670601022425,0.289736476607479));
#865=CARTESIAN_POINT('',(5.64785594723092,1.7322566620001,0.316397616959322));
#866=CARTESIAN_POINT('',(5.66433619259053,1.56961458804226,0.381607809390677));
#867=CARTESIAN_POINT('',(5.68291074644068,1.49121423281127,0.41971689546046));
#868=CARTESIAN_POINT('',(5.73110734545607,1.39901630551329,0.461663637098582));
#869=CARTESIAN_POINT('',(5.74706503649027,1.37400343707842,0.472804822547624));
#870=CARTESIAN_POINT('',(5.7859197516334,1.32947023838987,0.490658956943414));
#871=CARTESIAN_POINT('',(5.80880308506235,1.30993909990215,0.497374736840645));
#872=CARTESIAN_POINT('',(5.84455484625476,1.29112155927687,0.500190473888146));
#873=CARTESIAN_POINT('',(5.85630726909621,1.28622490861917,0.500265944747967));
#874=CARTESIAN_POINT('',(5.88039042178146,1.27955458950212,0.498047097323525));
#875=CARTESIAN_POINT('',(5.89272438045426,1.27780073563076,0.495728370180248));
#876=CARTESIAN_POINT('',(5.91504802660034,1.27731970038115,0.489479510223488));
#877=CARTESIAN_POINT('',(5.92680241689848,1.27853719785517,0.485069403025934));
#878=CARTESIAN_POINT('',(5.94876010202266,1.28386905131607,0.474343732446415));
#879=CARTESIAN_POINT('',(5.95897655658338,1.2879526753171,0.468039861802237));
#880=CARTESIAN_POINT('',(5.99296662838454,1.305828861924,0.443335259825538));
#881=CARTESIAN_POINT('',(6.0121350813478,1.32621430360526,0.420384604009408));
#882=CARTESIAN_POINT('',(6.03891422908724,1.37206866700631,0.371355797688008));
#883=CARTESIAN_POINT('',(6.04631889765729,1.39761866265523,0.34524119869726));
#884=CARTESIAN_POINT('',(6.05179449427749,1.44886272123021,0.293705427648577));
#885=CARTESIAN_POINT('',(6.04892012731795,1.47885804437618,0.264003602633544));
#886=CARTESIAN_POINT('',(6.03013730287096,1.53815953328653,0.208264394247266));
#887=CARTESIAN_POINT('',(6.01404232982481,1.56753096326657,0.182359551469815));
#888=CARTESIAN_POINT('',(5.98086425122972,1.61597685157897,0.147321748204932));
#889=CARTESIAN_POINT('',(5.96380027314015,1.63769251465523,0.134302550701587));
#890=CARTESIAN_POINT('',(5.92845506652781,1.68343507064678,0.114929884707327));
#891=CARTESIAN_POINT('',(5.91027418209186,1.70754774173328,0.108596108083692));
#892=CARTESIAN_POINT('',(5.8783035940757,1.75844864971243,0.101334695655964));
#893=CARTESIAN_POINT('',(5.86446033666686,1.78533363087398,0.100290124661703));
#894=CARTESIAN_POINT('',(5.84516436961858,1.84130972049531,0.0998256858171849));
#895=CARTESIAN_POINT('',(5.83973647660748,1.87040810964515,0.100263523392518));
#896=CARTESIAN_POINT('',(5.83973647660748,1.9,0.100263523392518));
#897=CARTESIAN_POINT('',(5.85,1.97141428428544,0.0999999999999996));
#898=CARTESIAN_POINT('',(5.85,1.82858571571456,0.0999999999999996));
#899=CARTESIAN_POINT('',(5.85,2.269,0.1));
#900=CARTESIAN_POINT('',(5.85,2.16889794855664,0.1));
#901=CARTESIAN_POINT('',(5.85,2.16889794855664,0.1));
#902=CARTESIAN_POINT('',(5.84974484500299,2.16849451308318,0.1));
#903=CARTESIAN_POINT('',(5.8494386592344,2.16801039077438,0.100000624998368));
#904=CARTESIAN_POINT('',(5.8043093655156,2.09665444451536,0.100184865627858));
#905=CARTESIAN_POINT('',(5.75624250737425,2.02103797837483,0.116184579690002));
#906=CARTESIAN_POINT('',(5.69899780726843,1.91691219763707,0.166423488983702));
#907=CARTESIAN_POINT('',(5.68240858075767,1.88377207209344,0.187359179038833));
#908=CARTESIAN_POINT('',(5.65801921858799,1.82235273809351,0.237404316440575));
#909=CARTESIAN_POINT('',(5.65,1.79408362460263,0.266419098605337));
#910=CARTESIAN_POINT('',(5.65,1.75180580594865,0.322789523477321));
#911=CARTESIAN_POINT('',(5.65417658550303,1.73556902204293,0.348942552353102));
#912=CARTESIAN_POINT('',(5.67440165569435,1.70996661488164,0.399535988480192));
#913=CARTESIAN_POINT('',(5.69055223027713,1.70049750644477,0.423883069289801));
#914=CARTESIAN_POINT('',(5.72780915778905,1.68851461574332,0.46018025833687));
#915=CARTESIAN_POINT('',(5.74992547674819,1.68462937670367,0.475145737081326));
#916=CARTESIAN_POINT('',(5.79858073578697,1.67992813828389,0.495056413587157));
#917=CARTESIAN_POINT('',(5.82510943484959,1.679,0.5));
#918=CARTESIAN_POINT('',(5.87534111127958,1.679,0.5));
#919=CARTESIAN_POINT('',(5.9023173563482,1.67995944715275,0.494876816222733));
#920=CARTESIAN_POINT('',(5.95164421835359,1.68483935144279,0.474305839809969));
#921=CARTESIAN_POINT('',(5.9739834109214,1.68887983095481,0.458859301553225));
#922=CARTESIAN_POINT('',(6.01071188442605,1.70116266020921,0.42213082804857));
#923=CARTESIAN_POINT('',(6.02636473756787,1.71064020099324,0.398050354763775));
#924=CARTESIAN_POINT('',(6.04595812277466,1.73604996017126,0.348153912158852));
#925=CARTESIAN_POINT('',(6.05,1.75207795929931,0.322426652343108));
#926=CARTESIAN_POINT('',(6.05,1.79066461403654,0.270977779360131));
#927=CARTESIAN_POINT('',(6.04345384486838,1.8170964642698,0.242731080898308));
#928=CARTESIAN_POINT('',(6.02182729132598,1.87430345286846,0.194266797825351));
#929=CARTESIAN_POINT('',(6.00684360297114,1.90507416262197,0.174000890496517));
#930=CARTESIAN_POINT('',(5.9726095644725,1.96942434708967,0.139766851997881));
#931=CARTESIAN_POINT('',(5.94941113729055,2.00900957686404,0.124448652190449));
#932=CARTESIAN_POINT('',(5.9003128729092,2.0893880300847,0.104629899562414));
#933=CARTESIAN_POINT('',(5.87446953352074,2.13020807709281,0.100098230347803));
#934=CARTESIAN_POINT('',(5.85056134076561,2.16801039077438,0.100000624998368));
#935=CARTESIAN_POINT('',(5.85025515499701,2.16849451308318,0.1));
#936=CARTESIAN_POINT('',(5.85,2.16889794855664,0.1));
#937=CARTESIAN_POINT('',(5.65,1.76889794855664,0.3));
#938=CARTESIAN_POINT('',(5.65,2.269,0.3));
#939=CARTESIAN_POINT('',(5.65,1.523,0.3));
#940=CARTESIAN_POINT('',(5.85,1.523,0.3));
#941=CARTESIAN_POINT('',(5.85,1.523,0.0999999999999996));
#942=CARTESIAN_POINT('',(5.85,2.269,0.1));
#943=CARTESIAN_POINT('',(5.65,1.138,0.1));
#944=CARTESIAN_POINT('',(5.65,2.16889794855664,0.6));
#945=CARTESIAN_POINT('',(5.65,1.679,0.5));
#946=CARTESIAN_POINT('',(5.65,0.597000000000001,0.5));
#947=CARTESIAN_POINT('',(5.65,1.523,0.5));
#948=CARTESIAN_POINT('',(5.65,1.523,-4.51482093628606));
#949=CARTESIAN_POINT('',(0.949999999999999,2.269,0.3));
#950=CARTESIAN_POINT('',(0.960263523392518,1.9,0.100263523392518));
#951=CARTESIAN_POINT('',(0.960263523392518,1.87040810964515,0.100263523392518));
#952=CARTESIAN_POINT('',(0.954835630381422,1.84130972049531,0.0998256858171849));
#953=CARTESIAN_POINT('',(0.935539663333137,1.78533363087399,0.100290124661703));
#954=CARTESIAN_POINT('',(0.921696405924305,1.75844864971243,0.101334695655964));
#955=CARTESIAN_POINT('',(0.889725817908144,1.70754774173328,0.108596108083693));
#956=CARTESIAN_POINT('',(0.871544933472193,1.68343507064679,0.114929884707327));
#957=CARTESIAN_POINT('',(0.836199726859851,1.63769251465523,0.134302550701587));
#958=CARTESIAN_POINT('',(0.819135748770281,1.61597685157897,0.147321748204932));
#959=CARTESIAN_POINT('',(0.785957670175192,1.56753096326657,0.182359551469815));
#960=CARTESIAN_POINT('',(0.769862697129041,1.53815953328653,0.208264394247267));
#961=CARTESIAN_POINT('',(0.751079872682049,1.47885804437618,0.264003602633545));
#962=CARTESIAN_POINT('',(0.748205505722509,1.4488627212302,0.293705427648577));
#963=CARTESIAN_POINT('',(0.753681102342714,1.39761866265523,0.34524119869726));
#964=CARTESIAN_POINT('',(0.761085770912762,1.37206866700631,0.371355797688009));
#965=CARTESIAN_POINT('',(0.787864918652201,1.32621430360526,0.420384604009408));
#966=CARTESIAN_POINT('',(0.807033371615464,1.305828861924,0.443335259825538));
#967=CARTESIAN_POINT('',(0.841023443416625,1.2879526753171,0.468039861802236));
#968=CARTESIAN_POINT('',(0.851239897977339,1.28386905131607,0.474343732446415));
#969=CARTESIAN_POINT('',(0.873197583101521,1.27853719785517,0.485069403025934));
#970=CARTESIAN_POINT('',(0.884951973399662,1.27731970038115,0.489479510223488));
#971=CARTESIAN_POINT('',(0.907275619545737,1.27780073563076,0.495728370180248));
#972=CARTESIAN_POINT('',(0.919609578218539,1.27955458950212,0.498047097323525));
#973=CARTESIAN_POINT('',(0.943692730903784,1.28622490861917,0.500265944747968));
#974=CARTESIAN_POINT('',(0.955445153745244,1.29112155927687,0.500190473888146));
#975=CARTESIAN_POINT('',(0.991196914937654,1.30993909990215,0.497374736840645));
#976=CARTESIAN_POINT('',(1.0140802483666,1.32947023838987,0.490658956943414));
#977=CARTESIAN_POINT('',(1.05293496350973,1.37400343707842,0.472804822547624));
#978=CARTESIAN_POINT('',(1.06889265454393,1.39901630551329,0.461663637098583));
#979=CARTESIAN_POINT('',(1.11708925355932,1.49121423281127,0.419716895460461));
#980=CARTESIAN_POINT('',(1.13566380740947,1.56961458804226,0.381607809390677));
#981=CARTESIAN_POINT('',(1.15214405276908,1.7322566620001,0.316397616959322));
#982=CARTESIAN_POINT('',(1.14973647660748,1.81670601022425,0.289736476607481));
#983=CARTESIAN_POINT('',(1.14973647660748,1.98329398977575,0.289736476607481));
#984=CARTESIAN_POINT('',(1.15214405276908,2.0677433379999,0.316397616959322));
#985=CARTESIAN_POINT('',(1.13566380740947,2.23038541195774,0.381607809390677));
#986=CARTESIAN_POINT('',(1.11708925355932,2.30878576718873,0.419716895460461));
#987=CARTESIAN_POINT('',(1.06889265454393,2.40098369448671,0.461663637098583));
#988=CARTESIAN_POINT('',(1.05293496350973,2.42599656292158,0.472804822547625));
#989=CARTESIAN_POINT('',(1.0140802483666,2.47052976161013,0.490658956943414));
#990=CARTESIAN_POINT('',(0.991196914937654,2.49006090009785,0.497374736840645));
#991=CARTESIAN_POINT('',(0.955445153745244,2.50887844072313,0.500190473888146));
#992=CARTESIAN_POINT('',(0.943692730903784,2.51377509138083,0.500265944747968));
#993=CARTESIAN_POINT('',(0.919609578218539,2.52044541049788,0.498047097323525));
#994=CARTESIAN_POINT('',(0.907275619545737,2.52219926436923,0.495728370180248));
#995=CARTESIAN_POINT('',(0.884951973399662,2.52268029961885,0.489479510223487));
#996=CARTESIAN_POINT('',(0.873197583101521,2.52146280214483,0.485069403025934));
#997=CARTESIAN_POINT('',(0.851239897977339,2.51613094868393,0.474343732446415));
#998=CARTESIAN_POINT('',(0.841023443416625,2.5120473246829,0.468039861802236));
#999=CARTESIAN_POINT('',(0.807033371615463,2.494171138076,0.443335259825538));
#1000=CARTESIAN_POINT('',(0.787864918652201,2.47378569639474,0.420384604009408));
#1001=CARTESIAN_POINT('',(0.761085770912761,2.42793133299369,0.371355797688009));
#1002=CARTESIAN_POINT('',(0.753681102342714,2.40238133734477,0.34524119869726));
#1003=CARTESIAN_POINT('',(0.748205505722509,2.35113727876979,0.293705427648577));
#1004=CARTESIAN_POINT('',(0.751079872682049,2.32114195562382,0.264003602633544));
#1005=CARTESIAN_POINT('',(0.769862697129041,2.26184046671347,0.208264394247266));
#1006=CARTESIAN_POINT('',(0.785957670175192,2.23246903673343,0.182359551469815));
#1007=CARTESIAN_POINT('',(0.819135748770281,2.18402314842103,0.147321748204932));
#1008=CARTESIAN_POINT('',(0.836199726859851,2.16230748534477,0.134302550701587));
#1009=CARTESIAN_POINT('',(0.871544933472193,2.11656492935321,0.114929884707327));
#1010=CARTESIAN_POINT('',(0.889725817908144,2.09245225826672,0.108596108083693));
#1011=CARTESIAN_POINT('',(0.921696405924305,2.04155135028757,0.101334695655964));
#1012=CARTESIAN_POINT('',(0.935539663333137,2.01466636912601,0.100290124661703));
#1013=CARTESIAN_POINT('',(0.954835630381422,1.95869027950469,0.0998256858171849));
#1014=CARTESIAN_POINT('',(0.960263523392518,1.92959189035485,0.100263523392518));
#1015=CARTESIAN_POINT('',(0.960263523392518,1.9,0.100263523392518));
#1016=CARTESIAN_POINT('',(0.949999999999999,1.82858571571457,0.0999999999999996));
#1017=CARTESIAN_POINT('',(0.949999999999999,1.97141428428543,0.0999999999999996));
#1018=CARTESIAN_POINT('',(0.949999999999999,2.269,0.1));
#1019=CARTESIAN_POINT('',(0.949999999999999,1.523,0.0999999999999996));
#1020=CARTESIAN_POINT('',(0.949999999999999,1.523,0.3));
#1021=CARTESIAN_POINT('',(1.15,1.523,0.3));
#1022=CARTESIAN_POINT('',(1.15,2.269,0.3));
#1023=CARTESIAN_POINT('',(1.15,1.76889794855664,0.3));
#1024=CARTESIAN_POINT('',(0.949999999999999,2.16889794855664,0.1));
#1025=CARTESIAN_POINT('',(0.94974484500299,2.16849451308318,0.1));
#1026=CARTESIAN_POINT('',(0.949438659234393,2.16801039077437,0.100000624998368));
#1027=CARTESIAN_POINT('',(0.925530466479262,2.13020807709281,0.100098230347803));
#1028=CARTESIAN_POINT('',(0.899687127090802,2.0893880300847,0.104629899562414));
#1029=CARTESIAN_POINT('',(0.850588862709454,2.00900957686404,0.124448652190449));
#1030=CARTESIAN_POINT('',(0.827390435527499,1.96942434708967,0.139766851997881));
#1031=CARTESIAN_POINT('',(0.793156397028864,1.90507416262196,0.174000890496517));
#1032=CARTESIAN_POINT('',(0.778172708674019,1.87430345286846,0.194266797825351));
#1033=CARTESIAN_POINT('',(0.756546155131622,1.8170964642698,0.242731080898307));
#1034=CARTESIAN_POINT('',(0.749999999999999,1.79066461403654,0.270977779360131));
#1035=CARTESIAN_POINT('',(0.749999999999999,1.75180580594865,0.322789523477321));
#1036=CARTESIAN_POINT('',(0.754176585503023,1.73556902204293,0.348942552353103));
#1037=CARTESIAN_POINT('',(0.774401655694345,1.70996661488164,0.399535988480192));
#1038=CARTESIAN_POINT('',(0.79055223027713,1.70049750644477,0.423883069289801));
#1039=CARTESIAN_POINT('',(0.827809157789049,1.68851461574332,0.46018025833687));
#1040=CARTESIAN_POINT('',(0.849925476748193,1.68462937670367,0.475145737081327));
#1041=CARTESIAN_POINT('',(0.898580735786968,1.67992813828389,0.495056413587157));
#1042=CARTESIAN_POINT('',(0.925109434849586,1.679,0.5));
#1043=CARTESIAN_POINT('',(0.974890565150412,1.679,0.5));
#1044=CARTESIAN_POINT('',(1.00141926421303,1.67992813828389,0.495056413587157));
#1045=CARTESIAN_POINT('',(1.05007452325181,1.68462937670367,0.475145737081327));
#1046=CARTESIAN_POINT('',(1.07219084221095,1.68851461574332,0.46018025833687));
#1047=CARTESIAN_POINT('',(1.10944776972287,1.70049750644477,0.423883069289801));
#1048=CARTESIAN_POINT('',(1.12559834430565,1.70996661488164,0.399535988480192));
#1049=CARTESIAN_POINT('',(1.14582341449698,1.73556902204293,0.348942552353103));
#1050=CARTESIAN_POINT('',(1.15,1.75180580594865,0.322789523477321));
#1051=CARTESIAN_POINT('',(1.15,1.79408362460263,0.266419098605337));
#1052=CARTESIAN_POINT('',(1.14198078141201,1.8223527380935,0.237404316440575));
#1053=CARTESIAN_POINT('',(1.11759141924233,1.88377207209344,0.187359179038833));
#1054=CARTESIAN_POINT('',(1.10100219273157,1.91691219763707,0.166423488983703));
#1055=CARTESIAN_POINT('',(1.04375749262576,2.02103797837483,0.116184579690002));
#1056=CARTESIAN_POINT('',(0.995690634484393,2.09665444451535,0.100184865627858));
#1057=CARTESIAN_POINT('',(0.950561340765605,2.16801039077437,0.100000624998368));
#1058=CARTESIAN_POINT('',(0.950255154997008,2.16849451308318,0.1));
#1059=CARTESIAN_POINT('',(0.949999999999999,2.16889794855664,0.1));
#1060=CARTESIAN_POINT('',(0.949999999999999,2.16889794855664,0.1));
#1061=CARTESIAN_POINT('',(0.949999999999999,2.269,0.1));
#1062=CARTESIAN_POINT('',(1.15,1.138,0.1));
#1063=CARTESIAN_POINT('',(1.15,1.523,-4.51482093628606));
#1064=CARTESIAN_POINT('',(1.15,1.523,0.5));
#1065=CARTESIAN_POINT('',(1.15,1.679,0.5));
#1066=CARTESIAN_POINT('',(1.15,1.679,0.5));
#1067=CARTESIAN_POINT('',(1.15,2.16889794855664,0.6));
#1068=CARTESIAN_POINT('',(0.949999999999999,2.269,0.3));
#1069=CARTESIAN_POINT('',(0.960263523392518,0.399999999999999,0.100263523392518));
#1070=CARTESIAN_POINT('',(0.960263523392518,0.370408109645147,0.100263523392518));
#1071=CARTESIAN_POINT('',(0.954835630381422,0.341309720495306,0.0998256858171849));
#1072=CARTESIAN_POINT('',(0.935539663333138,0.285333630873986,0.100290124661703));
#1073=CARTESIAN_POINT('',(0.921696405924305,0.258448649712426,0.101334695655964));
#1074=CARTESIAN_POINT('',(0.889725817908144,0.207547741733279,0.108596108083693));
#1075=CARTESIAN_POINT('',(0.871544933472193,0.183435070646785,0.114929884707327));
#1076=CARTESIAN_POINT('',(0.836199726859851,0.137692514655228,0.134302550701587));
#1077=CARTESIAN_POINT('',(0.819135748770281,0.115976851578971,0.147321748204932));
#1078=CARTESIAN_POINT('',(0.785957670175193,0.0675309632665665,0.182359551469815));
#1079=CARTESIAN_POINT('',(0.769862697129041,0.0381595332865289,0.208264394247267));
#1080=CARTESIAN_POINT('',(0.751079872682049,-0.0211419556238208,0.264003602633545));
#1081=CARTESIAN_POINT('',(0.748205505722509,-0.0511372787697959,0.293705427648577));
#1082=CARTESIAN_POINT('',(0.753681102342714,-0.102381337344767,0.34524119869726));
#1083=CARTESIAN_POINT('',(0.761085770912762,-0.12793133299369,0.371355797688009));
#1084=CARTESIAN_POINT('',(0.787864918652201,-0.173785696394737,0.420384604009408));
#1085=CARTESIAN_POINT('',(0.807033371615464,-0.194171138075997,0.443335259825538));
#1086=CARTESIAN_POINT('',(0.841023443416626,-0.212047324682899,0.468039861802236));
#1087=CARTESIAN_POINT('',(0.851239897977339,-0.216130948683933,0.474343732446415));
#1088=CARTESIAN_POINT('',(0.873197583101521,-0.221462802144826,0.485069403025934));
#1089=CARTESIAN_POINT('',(0.884951973399662,-0.222680299618852,0.489479510223487));
#1090=CARTESIAN_POINT('',(0.907275619545738,-0.222199264369235,0.495728370180248));
#1091=CARTESIAN_POINT('',(0.91960957821854,-0.220445410497876,0.498047097323525));
#1092=CARTESIAN_POINT('',(0.943692730903784,-0.213775091380828,0.500265944747968));
#1093=CARTESIAN_POINT('',(0.955445153745244,-0.208878440723132,0.500190473888146));
#1094=CARTESIAN_POINT('',(0.991196914937654,-0.190060900097847,0.497374736840645));
#1095=CARTESIAN_POINT('',(1.0140802483666,-0.170529761610127,0.490658956943414));
#1096=CARTESIAN_POINT('',(1.05293496350973,-0.125996562921578,0.472804822547624));
#1097=CARTESIAN_POINT('',(1.06889265454393,-0.100983694486711,0.461663637098583));
#1098=CARTESIAN_POINT('',(1.11708925355932,-0.00878576718872967,0.419716895460461));
#1099=CARTESIAN_POINT('',(1.13566380740947,0.0696145880422631,0.381607809390677));
#1100=CARTESIAN_POINT('',(1.15214405276908,0.232256662000098,0.316397616959322));
#1101=CARTESIAN_POINT('',(1.14973647660748,0.316706010224249,0.289736476607481));
#1102=CARTESIAN_POINT('',(1.14973647660748,0.483293989775749,0.289736476607481));
#1103=CARTESIAN_POINT('',(1.15214405276908,0.567743337999901,0.316397616959322));
#1104=CARTESIAN_POINT('',(1.13566380740947,0.730385411957735,0.381607809390677));
#1105=CARTESIAN_POINT('',(1.11708925355932,0.808785767188728,0.419716895460461));
#1106=CARTESIAN_POINT('',(1.06889265454393,0.90098369448671,0.461663637098583));
#1107=CARTESIAN_POINT('',(1.05293496350973,0.925996562921577,0.472804822547624));
#1108=CARTESIAN_POINT('',(1.0140802483666,0.970529761610126,0.490658956943414));
#1109=CARTESIAN_POINT('',(0.991196914937654,0.990060900097846,0.497374736840645));
#1110=CARTESIAN_POINT('',(0.955445153745244,1.00887844072313,0.500190473888146));
#1111=CARTESIAN_POINT('',(0.943692730903784,1.01377509138083,0.500265944747968));
#1112=CARTESIAN_POINT('',(0.91960957821854,1.02044541049788,0.498047097323525));
#1113=CARTESIAN_POINT('',(0.907275619545737,1.02219926436923,0.495728370180247));
#1114=CARTESIAN_POINT('',(0.884951973399662,1.02268029961885,0.489479510223487));
#1115=CARTESIAN_POINT('',(0.873197583101521,1.02146280214483,0.485069403025934));
#1116=CARTESIAN_POINT('',(0.851239897977339,1.01613094868393,0.474343732446415));
#1117=CARTESIAN_POINT('',(0.841023443416626,1.0120473246829,0.468039861802236));
#1118=CARTESIAN_POINT('',(0.807033371615464,0.994171138075996,0.443335259825538));
#1119=CARTESIAN_POINT('',(0.787864918652201,0.973785696394736,0.420384604009408));
#1120=CARTESIAN_POINT('',(0.761085770912762,0.927931332993689,0.371355797688009));
#1121=CARTESIAN_POINT('',(0.753681102342714,0.902381337344766,0.34524119869726));
#1122=CARTESIAN_POINT('',(0.748205505722509,0.851137278769795,0.293705427648577));
#1123=CARTESIAN_POINT('',(0.751079872682049,0.82114195562382,0.264003602633545));
#1124=CARTESIAN_POINT('',(0.769862697129041,0.76184046671347,0.208264394247267));
#1125=CARTESIAN_POINT('',(0.785957670175193,0.732469036733432,0.182359551469815));
#1126=CARTESIAN_POINT('',(0.819135748770281,0.684023148421028,0.147321748204932));
#1127=CARTESIAN_POINT('',(0.836199726859851,0.662307485344771,0.134302550701587));
#1128=CARTESIAN_POINT('',(0.871544933472193,0.616564929353214,0.114929884707327));
#1129=CARTESIAN_POINT('',(0.889725817908144,0.59245225826672,0.108596108083693));
#1130=CARTESIAN_POINT('',(0.921696405924305,0.541551350287573,0.101334695655964));
#1131=CARTESIAN_POINT('',(0.935539663333138,0.514666369126013,0.100290124661703));
#1132=CARTESIAN_POINT('',(0.954835630381422,0.458690279504693,0.0998256858171849));
#1133=CARTESIAN_POINT('',(0.960263523392518,0.429591890354851,0.100263523392518));
#1134=CARTESIAN_POINT('',(0.960263523392518,0.399999999999999,0.100263523392518));
#1135=CARTESIAN_POINT('',(0.95,0.32858571571457,0.0999999999999996));
#1136=CARTESIAN_POINT('',(0.95,0.471414284285429,0.0999999999999996));
#1137=CARTESIAN_POINT('',(0.949999999999999,2.269,0.1));
#1138=CARTESIAN_POINT('',(0.95,0.107102051443364,0.1));
#1139=CARTESIAN_POINT('',(0.95,0.107102051443364,0.1));
#1140=CARTESIAN_POINT('',(0.950255154997015,0.107505486916835,0.1));
#1141=CARTESIAN_POINT('',(0.950561340765594,0.107989609225663,0.100000624998367));
#1142=CARTESIAN_POINT('',(0.995690634485436,0.179345555483998,0.100184865627863));
#1143=CARTESIAN_POINT('',(1.04375749262572,0.254962021625112,0.116184579689982));
#1144=CARTESIAN_POINT('',(1.10100219273155,0.359087802362898,0.166423488983682));
#1145=CARTESIAN_POINT('',(1.11759141924232,0.392227927906547,0.187359179038819));
#1146=CARTESIAN_POINT('',(1.14198078141201,0.453647261906498,0.237404316440576));
#1147=CARTESIAN_POINT('',(1.15,0.481916375397374,0.266419098605347));
#1148=CARTESIAN_POINT('',(1.15,0.524194194051355,0.322789523477321));
#1149=CARTESIAN_POINT('',(1.14582341449698,0.540430977957071,0.348942552353103));
#1150=CARTESIAN_POINT('',(1.12559834430565,0.566033385118361,0.399535988480192));
#1151=CARTESIAN_POINT('',(1.10944776972287,0.57550249355523,0.423883069289801));
#1152=CARTESIAN_POINT('',(1.07219084221095,0.587485384256685,0.46018025833687));
#1153=CARTESIAN_POINT('',(1.05007452325181,0.59137062329633,0.475145737081327));
#1154=CARTESIAN_POINT('',(1.00141926421303,0.596071861716109,0.495056413587157));
#1155=CARTESIAN_POINT('',(0.974890565150413,0.597,0.5));
#1156=CARTESIAN_POINT('',(0.925109434849587,0.597,0.5));
#1157=CARTESIAN_POINT('',(0.898580735786968,0.596071861716108,0.495056413587157));
#1158=CARTESIAN_POINT('',(0.849925476748193,0.591370623296329,0.475145737081327));
#1159=CARTESIAN_POINT('',(0.827809157789049,0.587485384256685,0.46018025833687));
#1160=CARTESIAN_POINT('',(0.790552230277131,0.57550249355523,0.423883069289801));
#1161=CARTESIAN_POINT('',(0.774401655694345,0.56603338511836,0.399535988480192));
#1162=CARTESIAN_POINT('',(0.754176585503024,0.54043097795707,0.348942552353103));
#1163=CARTESIAN_POINT('',(0.75,0.524194194051355,0.322789523477321));
#1164=CARTESIAN_POINT('',(0.75,0.485335385963462,0.270977779360131));
#1165=CARTESIAN_POINT('',(0.756546155131622,0.458903535730198,0.242731080898307));
#1166=CARTESIAN_POINT('',(0.778172708674019,0.401696547131539,0.194266797825351));
#1167=CARTESIAN_POINT('',(0.793156397028864,0.370925837378036,0.174000890496517));
#1168=CARTESIAN_POINT('',(0.827390435527497,0.306575652910332,0.139766851997884));
#1169=CARTESIAN_POINT('',(0.850588862709452,0.266990423135968,0.124448652190451));
#1170=CARTESIAN_POINT('',(0.899687127090795,0.186611969915313,0.104629899562416));
#1171=CARTESIAN_POINT('',(0.925530466478703,0.145791922906872,0.100098230347805));
#1172=CARTESIAN_POINT('',(0.949438659234406,0.107989609225663,0.100000624998367));
#1173=CARTESIAN_POINT('',(0.949744845002985,0.107505486916835,0.1));
#1174=CARTESIAN_POINT('',(0.95,0.107102051443364,0.1));
#1175=CARTESIAN_POINT('',(1.15,0.507102051443364,0.3));
#1176=CARTESIAN_POINT('',(1.15,2.269,0.3));
#1177=CARTESIAN_POINT('',(1.15,0.753,0.3));
#1178=CARTESIAN_POINT('',(0.95,0.753,0.3));
#1179=CARTESIAN_POINT('',(0.95,0.753,0.0999999999999996));
#1180=CARTESIAN_POINT('',(0.949999999999999,2.269,0.1));
#1181=CARTESIAN_POINT('',(1.15,0.107102051443364,0.6));
#1182=CARTESIAN_POINT('',(1.15,0.597,0.5));
#1183=CARTESIAN_POINT('',(1.15,0.753,0.5));
#1184=CARTESIAN_POINT('',(1.15,0.753,-4.51482093628606));
#1185=CARTESIAN_POINT('',(5.85,2.269,0.3));
#1186=CARTESIAN_POINT('',(5.83973647660748,0.4,0.100263523392518));
#1187=CARTESIAN_POINT('',(5.83973647660748,0.429591890354852,0.100263523392518));
#1188=CARTESIAN_POINT('',(5.84516436961858,0.458690279504693,0.0998256858171849));
#1189=CARTESIAN_POINT('',(5.86446033666686,0.514666369126014,0.100290124661703));
#1190=CARTESIAN_POINT('',(5.8783035940757,0.541551350287574,0.101334695655964));
#1191=CARTESIAN_POINT('',(5.91027418209186,0.592452258266721,0.108596108083693));
#1192=CARTESIAN_POINT('',(5.92845506652781,0.616564929353214,0.114929884707327));
#1193=CARTESIAN_POINT('',(5.96380027314015,0.662307485344771,0.134302550701587));
#1194=CARTESIAN_POINT('',(5.98086425122972,0.684023148421027,0.147321748204932));
#1195=CARTESIAN_POINT('',(6.01404232982481,0.732469036733432,0.182359551469815));
#1196=CARTESIAN_POINT('',(6.03013730287096,0.761840466713469,0.208264394247266));
#1197=CARTESIAN_POINT('',(6.04892012731795,0.821141955623819,0.264003602633544));
#1198=CARTESIAN_POINT('',(6.05179449427749,0.851137278769794,0.293705427648577));
#1199=CARTESIAN_POINT('',(6.04631889765728,0.902381337344765,0.34524119869726));
#1200=CARTESIAN_POINT('',(6.03891422908724,0.927931332993689,0.371355797688009));
#1201=CARTESIAN_POINT('',(6.0121350813478,0.973785696394737,0.420384604009409));
#1202=CARTESIAN_POINT('',(5.99296662838453,0.994171138075996,0.443335259825538));
#1203=CARTESIAN_POINT('',(5.95897655658337,1.0120473246829,0.468039861802236));
#1204=CARTESIAN_POINT('',(5.94876010202266,1.01613094868393,0.474343732446416));
#1205=CARTESIAN_POINT('',(5.92680241689848,1.02146280214482,0.485069403025934));
#1206=CARTESIAN_POINT('',(5.91504802660034,1.02268029961885,0.489479510223488));
#1207=CARTESIAN_POINT('',(5.89272438045426,1.02219926436923,0.495728370180247));
#1208=CARTESIAN_POINT('',(5.88039042178146,1.02044541049788,0.498047097323525));
#1209=CARTESIAN_POINT('',(5.85630726909622,1.01377509138083,0.500265944747967));
#1210=CARTESIAN_POINT('',(5.84455484625476,1.00887844072313,0.500190473888146));
#1211=CARTESIAN_POINT('',(5.80880308506235,0.990060900097847,0.497374736840645));
#1212=CARTESIAN_POINT('',(5.7859197516334,0.970529761610127,0.490658956943414));
#1213=CARTESIAN_POINT('',(5.74706503649027,0.925996562921578,0.472804822547624));
#1214=CARTESIAN_POINT('',(5.73110734545607,0.900983694486711,0.461663637098583));
#1215=CARTESIAN_POINT('',(5.68291074644068,0.808785767188729,0.419716895460461));
#1216=CARTESIAN_POINT('',(5.66433619259053,0.730385411957736,0.381607809390677));
#1217=CARTESIAN_POINT('',(5.64785594723092,0.567743337999901,0.316397616959322));
#1218=CARTESIAN_POINT('',(5.65026352339252,0.48329398977575,0.289736476607481));
#1219=CARTESIAN_POINT('',(5.65026352339252,0.31670601022425,0.289736476607481));
#1220=CARTESIAN_POINT('',(5.64785594723092,0.232256662000098,0.316397616959322));
#1221=CARTESIAN_POINT('',(5.66433619259053,0.069614588042263,0.381607809390678));
#1222=CARTESIAN_POINT('',(5.68291074644068,-0.00878576718872998,0.419716895460461));
#1223=CARTESIAN_POINT('',(5.73110734545607,-0.100983694486711,0.461663637098583));
#1224=CARTESIAN_POINT('',(5.74706503649027,-0.125996562921578,0.472804822547624));
#1225=CARTESIAN_POINT('',(5.7859197516334,-0.170529761610128,0.490658956943414));
#1226=CARTESIAN_POINT('',(5.80880308506235,-0.190060900097848,0.497374736840646));
#1227=CARTESIAN_POINT('',(5.84455484625476,-0.208878440723132,0.500190473888146));
#1228=CARTESIAN_POINT('',(5.85630726909622,-0.213775091380828,0.500265944747967));
#1229=CARTESIAN_POINT('',(5.88039042178146,-0.220445410497876,0.498047097323525));
#1230=CARTESIAN_POINT('',(5.89272438045426,-0.222199264369235,0.495728370180248));
#1231=CARTESIAN_POINT('',(5.91504802660034,-0.222680299618852,0.489479510223488));
#1232=CARTESIAN_POINT('',(5.92680241689848,-0.221462802144826,0.485069403025934));
#1233=CARTESIAN_POINT('',(5.94876010202266,-0.216130948683933,0.474343732446415));
#1234=CARTESIAN_POINT('',(5.95897655658337,-0.212047324682899,0.468039861802237));
#1235=CARTESIAN_POINT('',(5.99296662838453,-0.194171138075997,0.443335259825538));
#1236=CARTESIAN_POINT('',(6.0121350813478,-0.173785696394737,0.420384604009408));
#1237=CARTESIAN_POINT('',(6.03891422908724,-0.12793133299369,0.371355797688009));
#1238=CARTESIAN_POINT('',(6.04631889765728,-0.102381337344766,0.34524119869726));
#1239=CARTESIAN_POINT('',(6.05179449427749,-0.0511372787697953,0.293705427648577));
#1240=CARTESIAN_POINT('',(6.04892012731795,-0.0211419556238201,0.264003602633545));
#1241=CARTESIAN_POINT('',(6.03013730287096,0.0381595332865296,0.208264394247266));
#1242=CARTESIAN_POINT('',(6.01404232982481,0.067530963266567,0.182359551469815));
#1243=CARTESIAN_POINT('',(5.98086425122972,0.115976851578972,0.147321748204932));
#1244=CARTESIAN_POINT('',(5.96380027314015,0.137692514655228,0.134302550701587));
#1245=CARTESIAN_POINT('',(5.92845506652781,0.183435070646785,0.114929884707327));
#1246=CARTESIAN_POINT('',(5.91027418209185,0.207547741733279,0.108596108083693));
#1247=CARTESIAN_POINT('',(5.87830359407569,0.258448649712426,0.101334695655964));
#1248=CARTESIAN_POINT('',(5.86446033666686,0.285333630873986,0.100290124661703));
#1249=CARTESIAN_POINT('',(5.84516436961858,0.341309720495306,0.0998256858171849));
#1250=CARTESIAN_POINT('',(5.83973647660748,0.370408109645148,0.100263523392518));
#1251=CARTESIAN_POINT('',(5.83973647660748,0.4,0.100263523392518));
#1252=CARTESIAN_POINT('',(5.85,0.471414284285431,0.0999999999999996));
#1253=CARTESIAN_POINT('',(5.85,0.328585715714569,0.0999999999999996));
#1254=CARTESIAN_POINT('',(5.85,2.269,0.1));
#1255=CARTESIAN_POINT('',(5.85,0.753,0.0999999999999996));
#1256=CARTESIAN_POINT('',(5.85,0.752999999999998,0.3));
#1257=CARTESIAN_POINT('',(5.65,0.753,0.3));
#1258=CARTESIAN_POINT('',(5.65,2.269,0.3));
#1259=CARTESIAN_POINT('',(5.65,0.507102051443365,0.3));
#1260=CARTESIAN_POINT('',(5.85,0.107102051443365,0.1));
#1261=CARTESIAN_POINT('',(5.85025515499701,0.107505486916835,0.1));
#1262=CARTESIAN_POINT('',(5.85056134076559,0.107989609225664,0.100000624998367));
#1263=CARTESIAN_POINT('',(5.87446953352131,0.145791922906862,0.100098230347805));
#1264=CARTESIAN_POINT('',(5.9003128729092,0.186611969915314,0.104629899562416));
#1265=CARTESIAN_POINT('',(5.94941113729055,0.266990423135969,0.124448652190451));
#1266=CARTESIAN_POINT('',(5.9726095644725,0.306575652910333,0.139766851997884));
#1267=CARTESIAN_POINT('',(6.00684360297114,0.370925837378037,0.174000890496517));
#1268=CARTESIAN_POINT('',(6.02182729132598,0.40169654713154,0.194266797825351));
#1269=CARTESIAN_POINT('',(6.04345384486838,0.458903535730199,0.242731080898307));
#1270=CARTESIAN_POINT('',(6.05,0.485335385963464,0.270977779360131));
#1271=CARTESIAN_POINT('',(6.05,0.523922040700696,0.322426652343108));
#1272=CARTESIAN_POINT('',(6.04595812277466,0.539950039828743,0.348153912158852));
#1273=CARTESIAN_POINT('',(6.02636473756787,0.56535979900676,0.398050354763775));
#1274=CARTESIAN_POINT('',(6.01071188442605,0.574837339790789,0.42213082804857));
#1275=CARTESIAN_POINT('',(5.97398341092139,0.58712016904519,0.458859301553225));
#1276=CARTESIAN_POINT('',(5.95164421835358,0.591160648557217,0.47430583980997));
#1277=CARTESIAN_POINT('',(5.9023173563482,0.596040552847257,0.494876816222733));
#1278=CARTESIAN_POINT('',(5.87534111127958,0.597000000000001,0.5));
#1279=CARTESIAN_POINT('',(5.82510943484959,0.597000000000001,0.5));
#1280=CARTESIAN_POINT('',(5.79858073578697,0.596071861716109,0.495056413587157));
#1281=CARTESIAN_POINT('',(5.74992547674819,0.59137062329633,0.475145737081326));
#1282=CARTESIAN_POINT('',(5.72780915778905,0.587485384256686,0.46018025833687));
#1283=CARTESIAN_POINT('',(5.69055223027713,0.575502493555231,0.423883069289801));
#1284=CARTESIAN_POINT('',(5.67440165569435,0.566033385118361,0.399535988480192));
#1285=CARTESIAN_POINT('',(5.65417658550302,0.540430977957071,0.348942552353102));
#1286=CARTESIAN_POINT('',(5.65,0.524194194051355,0.322789523477321));
#1287=CARTESIAN_POINT('',(5.65,0.481916375397375,0.266419098605347));
#1288=CARTESIAN_POINT('',(5.65801921858799,0.453647261906499,0.237404316440576));
#1289=CARTESIAN_POINT('',(5.68240858075768,0.392227927906549,0.18735917903882));
#1290=CARTESIAN_POINT('',(5.69899780726844,0.3590878023629,0.166423488983683));
#1291=CARTESIAN_POINT('',(5.75624250737427,0.254962021625114,0.116184579689982));
#1292=CARTESIAN_POINT('',(5.80430936551458,0.179345555484011,0.100184865627863));
#1293=CARTESIAN_POINT('',(5.8494386592344,0.107989609225664,0.100000624998367));
#1294=CARTESIAN_POINT('',(5.84974484500298,0.107505486916836,0.1));
#1295=CARTESIAN_POINT('',(5.85,0.107102051443365,0.1));
#1296=CARTESIAN_POINT('',(5.85,0.107102051443364,0.1));
#1297=CARTESIAN_POINT('',(5.85,2.269,0.1));
#1298=CARTESIAN_POINT('',(5.65,0.753,-4.51482093628606));
#1299=CARTESIAN_POINT('',(5.65,0.753,0.5));
#1300=CARTESIAN_POINT('',(5.65,0.597000000000001,0.5));
#1301=CARTESIAN_POINT('',(5.65,0.107102051443365,0.6));
#1302=CARTESIAN_POINT('',(1.15,0.107102051443364,0.6));
#1303=CARTESIAN_POINT('',(1.15,0.107102051443364,0.1));
#1304=CARTESIAN_POINT('',(1.15,0.597,0.5));
#1305=CARTESIAN_POINT('',(5.65,2.16889794855664,0.6));
#1306=CARTESIAN_POINT('',(5.65,2.16889794855664,0.1));
#1307=CARTESIAN_POINT('',(5.65,1.679,0.5));
#1308=CARTESIAN_POINT('',(6.1,0.399999999999999,0.0999999999999996));
#1309=CARTESIAN_POINT('',(6.1,0.399999999999999,0.));
#1310=CARTESIAN_POINT('',(5.94,0.399999999999999,0.));
#1311=CARTESIAN_POINT('',(6.1,0.399999999999999,0.0999999999999996));
#1312=CARTESIAN_POINT('',(6.36,0.4,0.0999999999999996));
#1313=CARTESIAN_POINT('',(6.1,1.9,0.0999999999999996));
#1314=CARTESIAN_POINT('',(6.1,1.9,0.));
#1315=CARTESIAN_POINT('',(5.94,1.9,0.));
#1316=CARTESIAN_POINT('',(6.1,1.9,0.0999999999999996));
#1317=CARTESIAN_POINT('',(6.36,1.9,0.0999999999999996));
#1318=CARTESIAN_POINT('',(0.7,1.9,0.0999999999999996));
#1319=CARTESIAN_POINT('',(0.7,1.9,0.));
#1320=CARTESIAN_POINT('',(0.54,1.9,0.));
#1321=CARTESIAN_POINT('',(0.7,1.9,0.0999999999999996));
#1322=CARTESIAN_POINT('',(0.7,0.399999999999999,0.0999999999999996));
#1323=CARTESIAN_POINT('',(0.7,0.399999999999999,0.));
#1324=CARTESIAN_POINT('',(0.54,0.399999999999999,0.));
#1325=CARTESIAN_POINT('',(0.7,0.399999999999999,0.0999999999999996));
#1326=CARTESIAN_POINT('',(0.7,6.4,0.0999999999999996));
#1327=CARTESIAN_POINT('',(0.7,6.4,0.));
#1328=CARTESIAN_POINT('',(0.54,6.4,0.));
#1329=CARTESIAN_POINT('',(0.7,6.4,0.0999999999999996));
#1330=CARTESIAN_POINT('',(0.96,6.4,0.0999999999999996));
#1331=CARTESIAN_POINT('',(6.1,6.4,0.0999999999999996));
#1332=CARTESIAN_POINT('',(6.1,6.4,0.));
#1333=CARTESIAN_POINT('',(5.94,6.4,0.));
#1334=CARTESIAN_POINT('',(6.1,6.4,0.0999999999999996));
#1335=CARTESIAN_POINT('',(6.36,6.4,0.0999999999999996));
#1336=CARTESIAN_POINT('',(3.4,3.4,0.1));
#1337=CARTESIAN_POINT('',(3.475,1.523,0.0999999999999996));
#1338=CARTESIAN_POINT('',(6.8,1.523,0.0999999999999996));
#1339=CARTESIAN_POINT('',(6.8,6.8,0.1));
#1340=CARTESIAN_POINT('',(6.8,6.8,0.1));
#1341=CARTESIAN_POINT('',(-8.327598234202E-16,6.8,0.1));
#1342=CARTESIAN_POINT('',(-8.327598234202E-16,6.8,0.1));
#1343=CARTESIAN_POINT('',(0.,0.,0.1));
#1344=CARTESIAN_POINT('',(0.,0.,0.1));
#1345=CARTESIAN_POINT('',(6.8,0.,0.1));
#1346=CARTESIAN_POINT('',(6.8,0.,0.1));
#1347=CARTESIAN_POINT('',(6.8,0.753,0.0999999999999996));
#1348=CARTESIAN_POINT('',(3.475,0.753,0.0999999999999996));
#1349=CARTESIAN_POINT('',(3.475,0.753,0.0999999999999996));
#1350=CARTESIAN_POINT('',(0.3,0.753,0.0999999999999996));
#1351=CARTESIAN_POINT('',(0.3,2.269,0.0999999999999996));
#1352=CARTESIAN_POINT('',(0.3,1.523,0.0999999999999996));
#1353=CARTESIAN_POINT('',(3.475,1.523,0.0999999999999996));
#1354=CARTESIAN_POINT('',(0.3,1.138,-9.12964187257212));
#1355=CARTESIAN_POINT('',(0.3,0.753,-9.12964187257212));
#1356=CARTESIAN_POINT('',(0.3,0.753,0.));
#1357=CARTESIAN_POINT('',(0.3,2.269,0.));
#1358=CARTESIAN_POINT('',(0.3,1.523,0.));
#1359=CARTESIAN_POINT('',(0.3,1.523,-9.12964187257212));
#1360=CARTESIAN_POINT('',(3.55,1.523,-9.12964187257212));
#1361=CARTESIAN_POINT('',(3.475,1.523,0.));
#1362=CARTESIAN_POINT('',(6.8,1.523,0.));
#1363=CARTESIAN_POINT('',(6.8,1.523,-4.56482093628606));
#1364=CARTESIAN_POINT('',(3.475,1.523,0.5));
#1365=CARTESIAN_POINT('',(3.55,0.753,-9.12964187257212));
#1366=CARTESIAN_POINT('',(3.475,0.753,0.5));
#1367=CARTESIAN_POINT('',(6.8,0.753,-4.56482093628606));
#1368=CARTESIAN_POINT('',(6.8,0.753,0.));
#1369=CARTESIAN_POINT('',(3.475,0.753,0.));
#1370=CARTESIAN_POINT('',(3.4,1.138,0.5));
#1371=CARTESIAN_POINT('',(6.8,3.4,0.));
#1372=CARTESIAN_POINT('',(6.8,6.8,0.));
#1373=CARTESIAN_POINT('',(6.8,6.8,0.));
#1374=CARTESIAN_POINT('',(6.8,6.8,0.));
#1375=CARTESIAN_POINT('',(6.8,0.,0.));
#1376=CARTESIAN_POINT('',(6.8,0.,0.));
#1377=CARTESIAN_POINT('',(3.4,3.4,0.));
#1378=CARTESIAN_POINT('',(6.8,0.,0.));
#1379=CARTESIAN_POINT('',(0.,0.,0.));
#1380=CARTESIAN_POINT('',(0.,0.,0.));
#1381=CARTESIAN_POINT('',(-8.327598234202E-16,6.8,0.));
#1382=CARTESIAN_POINT('',(-8.327598234202E-16,6.8,0.));
#1383=CARTESIAN_POINT('',(3.4,6.8,0.));
#1384=CARTESIAN_POINT('',(-8.327598234202E-16,6.8,0.));
#1385=CARTESIAN_POINT('',(3.4,0.,0.));
#1386=CARTESIAN_POINT('',(0.,0.,0.));
#1387=CARTESIAN_POINT('',(-4.163799117101E-16,3.4,0.));
#1388=CYLINDRICAL_SURFACE('',#662,0.2);
#1389=CYLINDRICAL_SURFACE('',#666,0.2);
#1390=CYLINDRICAL_SURFACE('',#670,0.2);
#1391=CYLINDRICAL_SURFACE('',#673,0.2);
#1392=CYLINDRICAL_SURFACE('',#676,0.5);
#1393=CYLINDRICAL_SURFACE('',#677,0.5);
#1394=CLOSED_SHELL('',(#634,#635,#636,#637,#638,#639,#640,#641,#642,#643,
#644,#645,#646,#647,#648,#649,#650,#651,#652,#653,#654,#655,#656,#657,#658,
#659,#660,#661));
#1395=MANIFOLD_SOLID_BREP('',#1394);
#1396=ADVANCED_BREP_SHAPE_REPRESENTATION('',(#1395),#103);
ENDSEC;
END-ISO-10303-21;
