M48
; DRILL file KiCad 10.0.1 date 2026-09-04T01:23:56
; FORMAT={-:-/ absolute / metric / decimal}
; #@! TF.CreationDate,2026-09-04T01:23:56-07:00
; #@! TF.GenerationSoftware,Kicad,Pcbnew,10.0.1
; #@! TF.FileFunction,Plated,1,2,PTH
FMAT,2
METRIC
; #@! TA.AperFunction,Plated,PTH,ComponentDrill
T1C0.700
; #@! TA.AperFunction,Plated,PTH,ComponentDrill
T2C0.800
; #@! TA.AperFunction,Plated,PTH,ComponentDrill
T3C0.900
; #@! TA.AperFunction,Plated,PTH,ComponentDrill
T4C1.000
%
G90
G05
T1
X116.924Y-55.801
X116.924Y-63.421
X120.379Y-58.697
X127.999Y-58.697
T2
X98.179Y-33.398
X98.179Y-35.938
X98.179Y-38.478
X98.179Y-41.018
X98.179Y-43.558
X98.179Y-46.098
X98.179Y-48.638
X98.179Y-51.178
X98.179Y-53.718
X98.179Y-56.258
X98.179Y-58.798
X98.179Y-61.338
X98.179Y-63.878
X98.179Y-66.418
X98.586Y-73.073
X98.586Y-80.693
X101.126Y-73.073
X101.126Y-80.693
X103.666Y-73.073
X103.666Y-80.693
X106.206Y-73.073
X106.206Y-80.693
X108.379Y-30.198
X108.746Y-73.073
X108.746Y-80.693
X111.286Y-73.073
X111.286Y-80.693
X113.379Y-30.198
X113.419Y-33.398
X113.419Y-35.938
X113.419Y-38.478
X113.419Y-41.018
X113.419Y-43.558
X113.419Y-46.098
X113.419Y-48.638
X113.419Y-51.178
X113.419Y-53.718
X113.419Y-56.258
X113.419Y-58.798
X113.419Y-61.338
X113.419Y-63.878
X113.419Y-66.418
X113.826Y-73.073
X113.826Y-80.693
X116.366Y-73.073
X116.366Y-80.693
X117.694Y-35.232
X117.694Y-37.772
X117.694Y-40.312
X117.694Y-42.852
X117.694Y-45.392
X117.694Y-47.932
X117.694Y-50.472
X117.694Y-53.012
X118.906Y-73.073
X118.906Y-80.693
X121.446Y-73.073
X121.446Y-80.693
X121.892Y-32.077
X124.697Y-75.704
X124.697Y-80.704
X125.314Y-35.232
X125.314Y-37.772
X125.314Y-40.312
X125.314Y-42.852
X125.314Y-45.392
X125.314Y-47.932
X125.314Y-50.472
X125.314Y-53.012
X126.892Y-32.077
X128.819Y-40.008
X128.819Y-42.548
X128.819Y-45.088
X128.819Y-47.628
X128.819Y-50.168
X128.819Y-52.708
X128.819Y-55.248
X131.45Y-36.858
X136.439Y-40.008
X136.439Y-42.548
X136.439Y-45.088
X136.439Y-47.628
X136.439Y-50.168
X136.439Y-52.708
X136.439Y-55.248
X136.45Y-36.858
T3
X122.012Y-63.976
X122.012Y-66.576
X122.012Y-69.176
X128.253Y-65.097
X128.253Y-67.637
T4
X79.98Y-37.62
X79.98Y-40.16
X79.98Y-42.7
X79.98Y-45.24
X79.98Y-47.78
X79.98Y-50.32
X79.98Y-52.86
X79.98Y-55.4
X79.98Y-57.94
X79.98Y-60.48
X79.98Y-63.02
X79.98Y-65.56
X79.98Y-68.1
X79.98Y-70.64
X79.98Y-73.18
X79.98Y-75.72
X79.98Y-78.26
X79.98Y-80.8
X79.98Y-83.34
X80.0Y-30.0
X80.0Y-32.54
X80.0Y-35.08
X85.06Y-30.0
X85.06Y-32.54
X85.06Y-35.08
X85.06Y-37.62
X85.06Y-40.16
X85.06Y-42.7
X85.06Y-45.24
X85.06Y-47.78
X85.06Y-50.32
X85.06Y-52.86
X85.06Y-55.4
X85.06Y-57.94
X85.06Y-60.48
X85.06Y-63.02
X85.06Y-65.56
X85.06Y-68.1
X85.06Y-70.64
X85.06Y-73.18
X85.06Y-75.72
X85.06Y-78.26
X85.06Y-80.8
X85.06Y-83.34
M30
